<svg width="32" height="32" viewBox="0 0 32 32" fill="none" xmlns="http://www.w3.org/2000/svg">
<path d="M25.3333 12.0033C25.3333 13.9366 24.76 15.7099 23.7733 17.1899C22.3333 19.3233 20.0533 20.8299 17.4 21.2166C16.9466 21.2966 16.48 21.3366 16 21.3366C15.52 21.3366 15.0533 21.2966 14.6 21.2166C11.9466 20.8299 9.66663 19.3233 8.22663 17.1899C7.23996 15.7099 6.66663 13.9366 6.66663 12.0033C6.66663 6.84326 10.84 2.66992 16 2.66992C21.16 2.66992 25.3333 6.84326 25.3333 12.0033Z" fill="white" stroke="#C9B3EF" stroke-width="2" stroke-linecap="round" stroke-linejoin="round"/>
<path d="M28.3333 24.6318L26.1333 25.1517C25.6399 25.2717 25.2533 25.6451 25.1466 26.1384L24.6799 28.0984C24.4266 29.1651 23.0666 29.4851 22.3599 28.6451L15.9999 21.3384L9.63994 28.6584C8.93328 29.4984 7.57328 29.1784 7.31994 28.1117L6.85328 26.1517C6.73328 25.6584 6.34661 25.2717 5.86661 25.1651L3.66661 24.6451C2.65328 24.4051 2.29328 23.1384 3.02661 22.4051L8.22661 17.2051C9.66661 19.3384 11.9466 20.8451 14.5999 21.2318C15.0533 21.3118 15.5199 21.3518 15.9999 21.3518C16.4799 21.3518 16.9466 21.3118 17.3999 21.2318C20.0533 20.8451 22.3333 19.3384 23.7733 17.2051L28.9733 22.4051C29.7066 23.1251 29.3466 24.3918 28.3333 24.6318Z" stroke="#462B9C" stroke-width="2" stroke-linecap="round" stroke-linejoin="round"/>
<path d="M16.7733 7.97789L17.5599 9.55121C17.6666 9.76455 17.9466 9.97789 18.1999 10.0179L19.6266 10.2579C20.5333 10.4045 20.7466 11.0712 20.0933 11.7246L18.9866 12.8312C18.7999 13.0179 18.6933 13.3779 18.7599 13.6446L19.0799 15.0179C19.3333 16.0979 18.7599 16.5245 17.7999 15.9512L16.4666 15.1645C16.2266 15.0179 15.8266 15.0179 15.5866 15.1645L14.2533 15.9512C13.2933 16.5112 12.7199 16.0979 12.9733 15.0179L13.2933 13.6446C13.3466 13.3912 13.2533 13.0179 13.0666 12.8312L11.9599 11.7246C11.3066 11.0712 11.5199 10.4179 12.4266 10.2579L13.8533 10.0179C14.0933 9.97789 14.3733 9.76455 14.4799 9.55121L15.2666 7.97789C15.6533 7.12456 16.3466 7.12456 16.7733 7.97789Z" stroke="#462B9C" stroke-width="2" stroke-linecap="round" stroke-linejoin="round"/>
</svg>
