<svg width="56" height="56" viewBox="0 0 56 56" fill="none" xmlns="http://www.w3.org/2000/svg">
<g id="ph:t-shirt">
<path id="Vector" d="M54.1607 13.3919L42.8382 7.21875C42.5817 7.0768 42.2936 7.00158 42.0004 7H35.0004C34.5363 7 34.0912 7.18437 33.763 7.51256C33.4348 7.84075 33.2504 8.28587 33.2504 8.75C33.2504 10.1424 32.6973 11.4777 31.7127 12.4623C30.7282 13.4469 29.3928 14 28.0004 14C26.608 14 25.2727 13.4469 24.2881 12.4623C23.3035 11.4777 22.7504 10.1424 22.7504 8.75C22.7504 8.28587 22.5661 7.84075 22.2379 7.51256C21.9097 7.18437 21.4646 7 21.0004 7H14.0004C13.7065 7.00122 13.4176 7.07645 13.1604 7.21875L1.84011 13.3919C1.03315 13.8183 0.428225 14.5474 0.157992 15.4192C-0.112242 16.291 -0.0257329 17.2344 0.39855 18.0425L4.61386 26.0947C4.92036 26.6736 5.37979 27.1574 5.94214 27.4933C6.50448 27.8292 7.1482 28.0045 7.80324 28H12.2504V45.5C12.2504 46.4283 12.6192 47.3185 13.2756 47.9749C13.9319 48.6312 14.8222 49 15.7504 49H40.2504C41.1787 49 42.0689 48.6312 42.7253 47.9749C43.3817 47.3185 43.7504 46.4283 43.7504 45.5V28H48.1998C48.8548 28.0045 49.4986 27.8292 50.0609 27.4933C50.6232 27.1574 51.0827 26.6736 51.3892 26.0947L55.6045 18.0425C56.0286 17.2341 56.1148 16.2905 55.8441 15.4187C55.5735 14.5469 54.9681 13.818 54.1607 13.3919ZM7.80324 24.5C7.77091 24.5015 7.73909 24.4914 7.71355 24.4716L3.52011 16.4631L12.2504 11.6988V24.5H7.80324ZM40.2504 45.5H15.7504V10.5H19.4254C19.8292 12.4757 20.9029 14.2512 22.465 15.5264C24.0271 16.8015 25.9817 17.498 27.9982 17.498C30.0147 17.498 31.9693 16.8015 33.5314 15.5264C35.0936 14.2512 36.1673 12.4757 36.571 10.5H40.2504V45.5ZM48.2895 24.4694C48.2774 24.4803 48.2632 24.4886 48.2478 24.4939C48.2324 24.4992 48.216 24.5012 48.1998 24.5H43.7504V11.6988L52.4829 16.4631L48.2895 24.4694Z" fill="#C9B3EF"/>
</g>
</svg>
