<svg width="20" height="20" viewBox="0 0 20 20" fill="none" xmlns="http://www.w3.org/2000/svg">
<g id="chart-bar">
<g id="vuesax/linear/chart">
<g id="chart">
<path id="Vector" d="M2.5 18.334H17.5" stroke="#0A121A" stroke-width="1.25" stroke-linecap="round" stroke-linejoin="round"/>
<g id="Group">
<path id="Vector_2" d="M4.66665 6.98438H3.33333C2.875 6.98438 2.5 7.35937 2.5 7.81771V15.001C2.5 15.4594 2.875 15.8344 3.33333 15.8344H4.66665C5.12498 15.8344 5.49998 15.4594 5.49998 15.001V7.81771C5.49998 7.35937 5.12498 6.98438 4.66665 6.98438Z" stroke="#0A121A" stroke-width="1.25" stroke-linecap="round" stroke-linejoin="round"/>
<path id="Vector_3" d="M10.6666 4.32617H9.33333C8.875 4.32617 8.5 4.70117 8.5 5.15951V15.0012C8.5 15.4595 8.875 15.8345 9.33333 15.8345H10.6666C11.125 15.8345 11.5 15.4595 11.5 15.0012V5.15951C11.5 4.70117 11.125 4.32617 10.6666 4.32617Z" stroke="#0A121A" stroke-width="1.25" stroke-linecap="round" stroke-linejoin="round"/>
<path id="Vector_4" d="M16.6666 1.66797H15.3333C14.875 1.66797 14.5 2.04297 14.5 2.5013V15.0013C14.5 15.4596 14.875 15.8346 15.3333 15.8346H16.6666C17.125 15.8346 17.5 15.4596 17.5 15.0013V2.5013C17.5 2.04297 17.125 1.66797 16.6666 1.66797Z" stroke="#0A121A" stroke-width="1.25" stroke-linecap="round" stroke-linejoin="round"/>
</g>
</g>
</g>
</g>
</svg>
