<svg width="20" height="20" viewBox="0 0 20 20" fill="none" xmlns="http://www.w3.org/2000/svg">
<g id="setting">
<g id="vuesax/linear/setting-2">
<g id="setting-2">
<path id="Vector" d="M10 12.5C11.3807 12.5 12.5 11.3807 12.5 10C12.5 8.61929 11.3807 7.5 10 7.5C8.61929 7.5 7.5 8.61929 7.5 10C7.5 11.3807 8.61929 12.5 10 12.5Z" stroke="#0A121A" stroke-width="1.25" stroke-miterlimit="10" stroke-linecap="round" stroke-linejoin="round"/>
<path id="Vector_2" d="M1.66675 10.7319V9.26523C1.66675 8.39856 2.37508 7.6819 3.25008 7.6819C4.75841 7.6819 5.37508 6.61523 4.61675 5.3069C4.18341 4.5569 4.44175 3.5819 5.20008 3.14856L6.64175 2.32356C7.30008 1.9319 8.15008 2.16523 8.54175 2.82356L8.63341 2.9819C9.38341 4.29023 10.6167 4.29023 11.3751 2.9819L11.4667 2.82356C11.8584 2.16523 12.7084 1.9319 13.3667 2.32356L14.8084 3.14856C15.5667 3.5819 15.8251 4.5569 15.3917 5.3069C14.6334 6.61523 15.2501 7.6819 16.7584 7.6819C17.6251 7.6819 18.3417 8.39023 18.3417 9.26523V10.7319C18.3417 11.5986 17.6334 12.3152 16.7584 12.3152C15.2501 12.3152 14.6334 13.3819 15.3917 14.6902C15.8251 15.4486 15.5667 16.4152 14.8084 16.8486L13.3667 17.6736C12.7084 18.0652 11.8584 17.8319 11.4667 17.1736L11.3751 17.0152C10.6251 15.7069 9.39175 15.7069 8.63341 17.0152L8.54175 17.1736C8.15008 17.8319 7.30008 18.0652 6.64175 17.6736L5.20008 16.8486C4.44175 16.4152 4.18341 15.4402 4.61675 14.6902C5.37508 13.3819 4.75841 12.3152 3.25008 12.3152C2.37508 12.3152 1.66675 11.5986 1.66675 10.7319Z" stroke="#0A121A" stroke-width="1.25" stroke-miterlimit="10" stroke-linecap="round" stroke-linejoin="round"/>
</g>
</g>
</g>
</svg>
