<svg width="119" height="32" viewBox="0 0 119 32" fill="none" xmlns="http://www.w3.org/2000/svg">
<g id="Logo_RGB-Wordmark+Brandmark(Blue)" clip-path="url(#clip0_845_38764)">
<g id="Layer_x0020_1">
<path id="Vector" d="M35.8432 25.2498C36.762 25.2498 37.6436 25.1205 38.4871 24.8615C39.3307 24.6025 40.0705 24.2224 40.7052 23.7209C41.3399 23.2198 41.8497 22.6058 42.2341 21.879C42.6184 21.1522 42.8104 20.3293 42.8104 19.4101C42.8104 18.7754 42.7019 18.2159 42.4844 17.7312C42.2674 17.2465 41.9708 16.8206 41.595 16.4531C41.2189 16.0856 40.7761 15.7596 40.2668 15.4755C39.757 15.1915 39.2014 14.9242 38.6 14.6735C37.9985 14.4227 37.5013 14.2057 37.1087 14.0219C36.7161 13.8381 36.4027 13.6626 36.1688 13.4957C35.9348 13.3284 35.7679 13.1572 35.6676 12.9816C35.5673 12.8065 35.5172 12.6016 35.5172 12.3676C35.5172 11.9335 35.7385 11.5284 36.1813 11.1522C36.6241 10.7765 37.2549 10.5884 38.0738 10.5884C38.9256 10.5884 39.6736 10.7471 40.3165 11.0645C40.9599 11.3818 41.6158 11.8497 42.2842 12.4679L44.9407 9.81144C44.1888 9.00939 43.2865 8.37465 42.2341 7.90682C41.1813 7.43899 39.8949 7.20508 38.3743 7.20508C37.4386 7.20508 36.5492 7.33869 35.7052 7.60591C34.8613 7.87312 34.1223 8.2575 33.4872 8.75863C32.8524 9.26015 32.347 9.8659 31.9708 10.5759C31.5951 11.2858 31.407 12.0922 31.407 12.9942C31.407 13.6461 31.5242 14.2139 31.7581 14.6986C31.9916 15.1832 32.3094 15.6134 32.7102 15.9892C33.1114 16.3653 33.5706 16.6909 34.0886 16.9668C34.6066 17.2422 35.1496 17.4973 35.7178 17.7312C36.3024 17.9651 36.787 18.1779 37.1714 18.3703C37.5558 18.5623 37.8606 18.746 38.0863 18.9215C38.3116 19.0971 38.4707 19.2726 38.5624 19.4478C38.6544 19.6233 38.7003 19.8196 38.7003 20.0371C38.7003 20.5883 38.4495 21.0311 37.9484 21.3653C37.4473 21.6991 36.8039 21.8664 36.0187 21.8664C35.016 21.8664 34.1223 21.6701 33.3367 21.2775C32.5515 20.8849 31.8078 20.3125 31.1061 19.5606L28.1992 22.0169C29.8699 24.1723 32.4179 25.2498 35.8432 25.2498Z" fill="#2E1452"/>
<path id="_1" d="M43.1875 24.996H46.9967L48.0997 20.8608L50.0294 19.3069L51.934 24.996H56.1946L53.2623 16.8004L59.7535 11.5622H54.7911L49.3527 16.1739L51.9089 6.7002H48.0997L43.1875 24.996Z" fill="#2E1452"/>
<path id="_2" d="M60.9309 10.0839H64.9408L65.8682 6.7002H61.858L60.9309 10.0839ZM57.021 24.996H60.8306L64.4396 11.5622H60.63L57.021 24.996Z" fill="#2E1452"/>
<path id="_3" d="M63.4624 24.996H67.272L72.1842 6.7002H68.3746L63.4624 24.996Z" fill="#2E1452"/>
<path id="_4" d="M69.9033 24.996H73.7129L78.6251 6.7002H74.8159L69.9033 24.996Z" fill="#2E1452"/>
<path id="_5" d="M81.7082 25.2972C82.5103 25.2972 83.2496 25.1887 83.9263 24.9716C84.6029 24.7541 85.1836 24.4411 85.6679 24.0316C86.1526 23.6222 86.5326 23.125 86.8085 22.5404C87.0839 21.9558 87.2218 21.2956 87.2218 20.5605C87.2218 20.0426 87.1133 19.5873 86.8962 19.1947C86.6788 18.8021 86.3947 18.4553 86.044 18.1544C85.693 17.8539 85.2965 17.5949 84.8533 17.3774C84.411 17.1604 83.9721 16.9515 83.5376 16.7509C82.9695 16.5005 82.531 16.2705 82.2219 16.0617C81.9127 15.8529 81.7584 15.6146 81.7584 15.3474C81.7584 14.9967 81.8877 14.7209 82.1466 14.5203C82.4056 14.3201 82.7692 14.2198 83.2371 14.2198C83.7884 14.2198 84.3479 14.3283 84.916 14.5454C85.4841 14.7628 86.0942 15.1304 86.7458 15.6483L88.8009 13.2422C88.5168 12.9914 88.1869 12.7536 87.8107 12.5279C87.435 12.3022 87.0173 12.0977 86.5577 11.9139C86.0981 11.7302 85.6138 11.584 85.1041 11.4755C84.5947 11.3666 84.0642 11.3125 83.5129 11.3125C82.6772 11.3125 81.9253 11.4336 81.2572 11.6757C80.5888 11.9182 80.025 12.2482 79.5654 12.6658C79.1058 13.0835 78.7508 13.5803 78.5 14.1571C78.2496 14.7334 78.1243 15.356 78.1243 16.0241C78.1243 16.5589 78.2289 17.0224 78.4377 17.415C78.6466 17.8076 78.9306 18.1544 79.2895 18.4553C79.6488 18.7558 80.0626 19.0274 80.5304 19.2699C80.9978 19.512 81.4994 19.7416 82.0338 19.9591C82.502 20.1593 82.8778 20.356 83.1618 20.548C83.4459 20.74 83.5877 20.9614 83.5877 21.2121C83.5877 21.5965 83.4459 21.8888 83.1618 22.0894C82.8778 22.2896 82.4852 22.3899 81.984 22.3899C81.3822 22.3899 80.7224 22.2645 80.0038 22.0142C79.2856 21.7634 78.5752 21.2874 77.8735 20.5856L75.668 22.8664C76.0692 23.284 76.5119 23.6429 76.9966 23.9439C77.4809 24.2448 77.9863 24.4951 78.5126 24.6958C79.0392 24.8964 79.5779 25.0464 80.1292 25.1467C80.6805 25.247 81.2067 25.2972 81.7082 25.2972Z" fill="#2E1452"/>
<path id="_6" d="M87.9731 24.9951H91.8329L93.2615 19.6817H96.5947C97.7975 19.6817 98.917 19.5312 99.9529 19.2307C100.989 18.9298 101.887 18.4871 102.647 17.9025C103.408 17.3175 104.009 16.5989 104.452 15.7471C104.895 14.8949 105.116 13.9259 105.116 12.8398C105.116 11.336 104.665 10.1328 103.763 9.2308C103.128 8.59567 102.363 8.14038 101.469 7.86493C100.576 7.58909 99.5019 7.45117 98.2489 7.45117H92.6851L87.9731 24.9951ZM94.1638 16.2984L95.5924 10.9348H98.0985C98.6831 10.9348 99.1638 10.9975 99.5396 11.1229C99.9153 11.2483 100.237 11.4446 100.505 11.7118C100.889 12.0961 101.081 12.5808 101.081 13.1654C101.081 14.1681 100.688 14.9407 99.9028 15.4838C99.1176 16.0268 98.0816 16.2984 96.7953 16.2984H94.1638Z" fill="#2E1452"/>
<path id="_7" d="M108.174 19.608H117.372C117.589 19.09 117.756 18.5721 117.873 18.0541C117.99 17.5361 118.048 17.035 118.048 16.5503C118.048 15.7984 117.927 15.1053 117.685 14.4701C117.443 13.8354 117.088 13.2841 116.62 12.8163C116.152 12.3485 115.576 11.9809 114.891 11.7133C114.205 11.4461 113.428 11.3125 112.56 11.3125C111.357 11.3125 110.266 11.5464 109.289 12.0142C108.312 12.4821 107.472 13.096 106.77 13.8562C106.069 14.6163 105.53 15.4771 105.154 16.4378C104.778 17.3986 104.59 18.3632 104.59 19.3326C104.59 20.2682 104.732 21.1036 105.016 21.8386C105.3 22.5737 105.709 23.1963 106.244 23.706C106.779 24.2154 107.43 24.608 108.199 24.8838C108.968 25.1593 109.836 25.2972 110.805 25.2972C111.958 25.2972 112.957 25.126 113.8 24.7835C114.644 24.4411 115.367 24.0191 115.968 23.518L114.214 21.162C113.662 21.5463 113.153 21.8218 112.685 21.9891C112.217 22.156 111.733 22.2395 111.232 22.2395C110.229 22.2395 109.486 22.0016 109.001 21.5252C108.516 21.0491 108.241 20.4101 108.174 19.608ZM108.499 17.227C108.817 16.3752 109.306 15.6859 109.966 15.1593C110.626 14.6331 111.39 14.3702 112.259 14.3702C113.044 14.3702 113.608 14.5622 113.951 14.9466C114.293 15.3306 114.464 15.7984 114.464 16.3501C114.464 16.6506 114.423 16.9429 114.339 17.227H108.499Z" fill="#2E1452"/>
<g id="Group">
<g id="Clip path group">
<mask id="mask0_845_38764" style="mask-type:luminance" maskUnits="userSpaceOnUse" x="0" y="0" width="22" height="32">
<g id="id0">
<path id="Vector_2" d="M16.6095 0C18.3789 1.05046 19.8325 2.58207 20.7882 4.41067C18.3013 9.33149 13.1924 12.7262 7.32891 12.7262V12.7266C14.3886 12.7266 20.3537 17.647 21.9664 24.2279C21.848 25.3246 21.5659 26.3743 21.1467 27.3527C19.4059 26.4174 17.4158 25.8865 15.3016 25.8865C10.7526 25.8865 6.77801 28.3424 4.62929 32C3.00091 30.8332 1.69969 29.2346 0.897247 27.3754C3.50596 22.8538 8.39347 19.7942 13.9608 19.7942V19.7934C7.67292 19.7934 2.25371 15.8901 0.00390625 10.387V9.47685C0.00390625 8.37467 0.168861 7.30894 0.473694 6.30275C1.96416 6.93906 3.6043 7.2917 5.32673 7.2917C10.349 7.2917 14.6715 4.29901 16.6095 0Z" fill="white"/>
</g>
</mask>
<g mask="url(#mask0_845_38764)">
<g id="Group_2">
<path id="Vector_3" fill-rule="evenodd" clip-rule="evenodd" d="M18.9145 -0.824219L19.3385 0.361025L-5.57947 9.27876L-6.00342 8.09351L18.9145 -0.824219Z" fill="#FFD374"/>
<path id="_1_0" fill-rule="evenodd" clip-rule="evenodd" d="M19.3232 0.316406L19.371 0.451191L-5.54692 9.36892L-5.59473 9.23453L19.3232 0.316406Z" fill="#FFD374"/>
<path id="_2_1" fill-rule="evenodd" clip-rule="evenodd" d="M19.3548 0.405273L19.4026 0.540058L-5.51528 9.45779L-5.56348 9.3234L19.3548 0.405273Z" fill="#FFD374"/>
<path id="_3_2" fill-rule="evenodd" clip-rule="evenodd" d="M19.3867 0.496094L19.4349 0.630487L-5.48306 9.54822L-5.53125 9.41383L19.3867 0.496094Z" fill="#FFD374"/>
<path id="_4_3" fill-rule="evenodd" clip-rule="evenodd" d="M19.4189 0.584961L19.4671 0.719354L-5.45083 9.63708L-5.49902 9.50269L19.4189 0.584961Z" fill="#FFD374"/>
<path id="_5_4" fill-rule="evenodd" clip-rule="evenodd" d="M19.4506 0.674805L19.4988 0.809198L-5.41909 9.72693L-5.46729 9.59254L19.4506 0.674805Z" fill="#FFD274"/>
<path id="_6_5" fill-rule="evenodd" clip-rule="evenodd" d="M19.4829 0.764648L19.5311 0.899433L-5.38687 9.81716L-5.43506 9.68277L19.4829 0.764648Z" fill="#FFD274"/>
<path id="_7_6" fill-rule="evenodd" clip-rule="evenodd" d="M19.5156 0.854492L19.5638 0.989277L-5.35415 9.90701L-5.40234 9.77261L19.5156 0.854492Z" fill="#FFD274"/>
<path id="_8" fill-rule="evenodd" clip-rule="evenodd" d="M19.5473 0.942383L19.5955 1.07678L-5.32241 9.99451L-5.37061 9.86012L19.5473 0.942383Z" fill="#FFD175"/>
<path id="_9" fill-rule="evenodd" clip-rule="evenodd" d="M19.5795 1.03418L19.6277 1.16857L-5.29058 10.0863L-5.33838 9.95191L19.5795 1.03418Z" fill="#FFD175"/>
<path id="_10" fill-rule="evenodd" clip-rule="evenodd" d="M19.6118 1.12207L19.6596 1.25646L-5.25835 10.1742L-5.30615 10.0398L19.6118 1.12207Z" fill="#FFD175"/>
<path id="_11" fill-rule="evenodd" clip-rule="evenodd" d="M19.6435 1.21191L19.6913 1.34631L-5.22661 10.264L-5.27441 10.1296L19.6435 1.21191Z" fill="#FFD075"/>
<path id="_12" fill-rule="evenodd" clip-rule="evenodd" d="M19.6761 1.30176L19.7239 1.43654L-5.19399 10.3543L-5.24219 10.2199L19.6761 1.30176Z" fill="#FFCF75"/>
<path id="_13" fill-rule="evenodd" clip-rule="evenodd" d="M19.7075 1.39355L19.7557 1.52834L-5.16226 10.4457L-5.21045 10.3113L19.7075 1.39355Z" fill="#FFCF76"/>
<path id="_14" fill-rule="evenodd" clip-rule="evenodd" d="M19.7397 1.48047L19.7879 1.61486L-5.13003 10.5326L-5.17822 10.3982L19.7397 1.48047Z" fill="#FFCE76"/>
<path id="_15" fill-rule="evenodd" clip-rule="evenodd" d="M19.7719 1.57129L19.8201 1.70568L-5.0978 10.6234L-5.146 10.489L19.7719 1.57129Z" fill="#FFCE76"/>
<path id="_16" fill-rule="evenodd" clip-rule="evenodd" d="M19.8037 1.66113L19.8519 1.79553L-5.06606 10.7133L-5.11426 10.5789L19.8037 1.66113Z" fill="#FFCD76"/>
<path id="_17" fill-rule="evenodd" clip-rule="evenodd" d="M19.8359 1.74902L19.8841 1.88381L-5.03384 10.8015L-5.08203 10.6671L19.8359 1.74902Z" fill="#FFCC77"/>
<path id="_18" fill-rule="evenodd" clip-rule="evenodd" d="M19.8676 1.83984L19.9158 1.97463L-5.0021 10.8924L-5.05029 10.7576L19.8676 1.83984Z" fill="#FFCB77"/>
<path id="_19" fill-rule="evenodd" clip-rule="evenodd" d="M19.8998 1.92969L19.9476 2.06408L-4.97036 10.9818L-5.01855 10.8474L19.8998 1.92969Z" fill="#FFCA77"/>
<path id="_20" fill-rule="evenodd" clip-rule="evenodd" d="M19.9321 2.01953L19.9803 2.15392L-4.93765 11.0717L-4.98584 10.9373L19.9321 2.01953Z" fill="#FFCA78"/>
<path id="_21" fill-rule="evenodd" clip-rule="evenodd" d="M19.9648 2.10938L20.013 2.24377L-4.90493 11.1615L-4.95312 11.0271L19.9648 2.10938Z" fill="#FFC978"/>
<path id="_22" fill-rule="evenodd" clip-rule="evenodd" d="M19.9965 2.19824L20.0447 2.33303L-4.87319 11.2508L-4.92139 11.1164L19.9965 2.19824Z" fill="#FFC878"/>
<path id="_23" fill-rule="evenodd" clip-rule="evenodd" d="M20.0283 2.28906L20.0765 2.42385L-4.84146 11.3416L-4.88965 11.2068L20.0283 2.28906Z" fill="#FFC779"/>
<path id="_24" fill-rule="evenodd" clip-rule="evenodd" d="M20.0605 2.37793L20.1087 2.51232L-4.80923 11.4304L-4.85742 11.2957L20.0605 2.37793Z" fill="#FFC679"/>
<path id="_25" fill-rule="evenodd" clip-rule="evenodd" d="M20.0927 2.46777L20.1409 2.60217L-4.777 11.5199L-4.8252 11.3855L20.0927 2.46777Z" fill="#FFC579"/>
<path id="_26" fill-rule="evenodd" clip-rule="evenodd" d="M20.125 2.55762L20.1732 2.69201L-4.74478 11.6097L-4.79297 11.4753L20.125 2.55762Z" fill="#FFC47A"/>
<path id="_27" fill-rule="evenodd" clip-rule="evenodd" d="M20.1567 2.64551L20.2045 2.78029L-4.71304 11.698L-4.76123 11.5636L20.1567 2.64551Z" fill="#FFC27A"/>
<path id="_28" fill-rule="evenodd" clip-rule="evenodd" d="M20.1888 2.7373L20.2366 2.87209L-4.6813 11.7898L-4.72949 11.6554L20.1888 2.7373Z" fill="#FFC17B"/>
<path id="_29" fill-rule="evenodd" clip-rule="evenodd" d="M20.2212 2.82715L20.2693 2.96154L-4.64858 11.8797L-4.69678 11.7449L20.2212 2.82715Z" fill="#FFC07B"/>
<path id="_30" fill-rule="evenodd" clip-rule="evenodd" d="M20.2529 2.91699L20.3011 3.05138L-4.61685 11.9695L-4.66504 11.8347L20.2529 2.91699Z" fill="#FFBF7C"/>
<path id="_31" fill-rule="evenodd" clip-rule="evenodd" d="M20.2851 3.00781L20.3333 3.14221L-4.58462 12.0599L-4.63281 11.9255L20.2851 3.00781Z" fill="#FFBE7C"/>
<path id="_32" fill-rule="evenodd" clip-rule="evenodd" d="M20.3169 3.09668L20.3651 3.23107L-4.55288 12.1488L-4.60107 12.0144L20.3169 3.09668Z" fill="#FFBC7D"/>
<path id="_33" fill-rule="evenodd" clip-rule="evenodd" d="M20.3501 3.18457L20.3983 3.31936L-4.51968 12.2371L-4.56787 12.1027L20.3501 3.18457Z" fill="#FFBB7D"/>
<path id="_34" fill-rule="evenodd" clip-rule="evenodd" d="M20.3813 3.27441L20.4295 3.4092L-4.48843 12.3269L-4.53662 12.1921L20.3813 3.27441Z" fill="#FFBA7E"/>
<path id="_35" fill-rule="evenodd" clip-rule="evenodd" d="M20.413 3.36426L20.4612 3.49865L-4.45708 12.4168L-4.50488 12.282L20.413 3.36426Z" fill="#FFB97E"/>
<path id="_36" fill-rule="evenodd" clip-rule="evenodd" d="M20.4458 3.4541L20.4936 3.58849L-4.42437 12.5062L-4.47217 12.3718L20.4458 3.4541Z" fill="#FFB77F"/>
<path id="_37" fill-rule="evenodd" clip-rule="evenodd" d="M20.478 3.54297L20.5258 3.67736L-4.39214 12.5951L-4.43994 12.4607L20.478 3.54297Z" fill="#FFB67F"/>
<path id="_38" fill-rule="evenodd" clip-rule="evenodd" d="M20.5106 3.63379L20.5584 3.76857L-4.35952 12.6863L-4.40771 12.5519L20.5106 3.63379Z" fill="#FFB480"/>
<path id="_39" fill-rule="evenodd" clip-rule="evenodd" d="M20.542 3.72266L20.5901 3.85744L-4.32778 12.7752L-4.37598 12.6404L20.542 3.72266Z" fill="#FFB380"/>
<path id="_40" fill-rule="evenodd" clip-rule="evenodd" d="M20.5742 3.81152L20.6224 3.94592L-4.29556 12.864L-4.34375 12.7293L20.5742 3.81152Z" fill="#FFB181"/>
<path id="_41" fill-rule="evenodd" clip-rule="evenodd" d="M20.6059 3.90234L20.6541 4.03674L-4.26382 12.9545L-4.31201 12.8201L20.6059 3.90234Z" fill="#FFB081"/>
<path id="_42" fill-rule="evenodd" clip-rule="evenodd" d="M20.6386 3.99219L20.6868 4.12658L-4.2311 13.0443L-4.2793 12.9099L20.6386 3.99219Z" fill="#FFAE82"/>
<path id="_43" fill-rule="evenodd" clip-rule="evenodd" d="M20.6699 4.08203L20.7181 4.21682L-4.19985 13.1345L-4.24805 13.0002L20.6699 4.08203Z" fill="#FFAD83"/>
<path id="_44" fill-rule="evenodd" clip-rule="evenodd" d="M20.7021 4.1709L20.7503 4.30568L-4.16763 13.2234L-4.21582 13.0886L20.7021 4.1709Z" fill="#FFAB83"/>
<path id="_45" fill-rule="evenodd" clip-rule="evenodd" d="M20.7343 4.25977L20.7825 4.39416L-4.13579 13.3123L-4.18359 13.1775L20.7343 4.25977Z" fill="#FFAA84"/>
<path id="_46" fill-rule="evenodd" clip-rule="evenodd" d="M20.7661 4.35156L20.8143 4.48596L-4.10366 13.4037L-4.15186 13.2693L20.7661 4.35156Z" fill="#FFA885"/>
<path id="_47" fill-rule="evenodd" clip-rule="evenodd" d="M20.7983 4.44043L20.8465 4.57482L-4.07144 13.4926L-4.11963 13.3582L20.7983 4.44043Z" fill="#FFA785"/>
<path id="_48" fill-rule="evenodd" clip-rule="evenodd" d="M20.8305 4.53027L20.8787 4.66467L-4.03921 13.5824L-4.0874 13.448L20.8305 4.53027Z" fill="#FFA586"/>
<path id="_49" fill-rule="evenodd" clip-rule="evenodd" d="M20.8623 4.61816L20.9105 4.75295L-4.00747 13.6707L-4.05566 13.5363L20.8623 4.61816Z" fill="#FFA386"/>
<path id="_50" fill-rule="evenodd" clip-rule="evenodd" d="M20.895 4.70996L20.9432 4.84435L-3.97476 13.7625L-4.02295 13.6277L20.895 4.70996Z" fill="#FFA287"/>
<path id="_51" fill-rule="evenodd" clip-rule="evenodd" d="M20.9272 4.7998L20.9754 4.9342L-3.94253 13.8519L-3.99072 13.7175L20.9272 4.7998Z" fill="#FFA088"/>
<path id="_52" fill-rule="evenodd" clip-rule="evenodd" d="M20.9589 4.88965L21.0071 5.02404L-3.91079 13.9418L-3.95898 13.8074L20.9589 4.88965Z" fill="#FF9E88"/>
<path id="_53" fill-rule="evenodd" clip-rule="evenodd" d="M20.9912 4.97949L21.0394 5.11389L-3.87856 14.0316L-3.92676 13.8972L20.9912 4.97949Z" fill="#FF9D89"/>
<path id="_54" fill-rule="evenodd" clip-rule="evenodd" d="M21.0234 5.06738L21.0716 5.20217L-3.84634 14.1199L-3.89453 13.9855L21.0234 5.06738Z" fill="#FF9B8A"/>
<path id="_55" fill-rule="evenodd" clip-rule="evenodd" d="M21.0555 5.15723L21.1037 5.29162L-3.8146 14.2097L-3.86279 14.075L21.0555 5.15723Z" fill="#FF998B"/>
<path id="_56" fill-rule="evenodd" clip-rule="evenodd" d="M21.0869 5.24707L21.1351 5.38146L-3.78286 14.2996L-3.83105 14.1648L21.0869 5.24707Z" fill="#FF988B"/>
<path id="_57" fill-rule="evenodd" clip-rule="evenodd" d="M21.1191 5.33691L21.1673 5.47131L-3.75063 14.389L-3.79883 14.2546L21.1191 5.33691Z" fill="#FF968C"/>
<path id="_58" fill-rule="evenodd" clip-rule="evenodd" d="M21.1513 5.42676L21.1995 5.56115L-3.71841 14.4789L-3.7666 14.3445L21.1513 5.42676Z" fill="#FF948D"/>
<path id="_59" fill-rule="evenodd" clip-rule="evenodd" d="M21.1836 5.5166L21.2318 5.65099L-3.68618 14.5687L-3.73438 14.4343L21.1836 5.5166Z" fill="#FF938D"/>
<path id="_60" fill-rule="evenodd" clip-rule="evenodd" d="M21.2158 5.60547L21.264 5.74025L-3.65396 14.658L-3.70215 14.5232L21.2158 5.60547Z" fill="#FF918E"/>
<path id="_61" fill-rule="evenodd" clip-rule="evenodd" d="M21.247 5.69629L21.2952 5.83068L-3.62271 14.7488L-3.6709 14.614L21.247 5.69629Z" fill="#FF8F8F"/>
<path id="_62" fill-rule="evenodd" clip-rule="evenodd" d="M21.2793 5.78516L21.3275 5.91955L-3.59087 14.8373L-3.63867 14.7029L21.2793 5.78516Z" fill="#FF8D90"/>
<path id="_63" fill-rule="evenodd" clip-rule="evenodd" d="M21.3115 5.87402L21.3593 6.00842L-3.55864 14.9261L-3.60645 14.7918L21.3115 5.87402Z" fill="#FF8C90"/>
<path id="_64" fill-rule="evenodd" clip-rule="evenodd" d="M21.3442 5.96484L21.392 6.09924L-3.52593 15.017L-3.57373 14.8826L21.3442 5.96484Z" fill="#FF8A91"/>
<path id="_65" fill-rule="evenodd" clip-rule="evenodd" d="M21.3763 6.05371L21.4241 6.1881L-3.4938 15.1058L-3.54199 14.9711L21.3763 6.05371Z" fill="#FF8892"/>
<path id="_66" fill-rule="evenodd" clip-rule="evenodd" d="M21.4082 6.14355L21.4564 6.27795L-3.46157 15.1961L-3.50977 15.0613L21.4082 6.14355Z" fill="#FF8693"/>
<path id="_67" fill-rule="evenodd" clip-rule="evenodd" d="M21.4399 6.2334L21.4881 6.36779L-3.42983 15.2855L-3.47803 15.1511L21.4399 6.2334Z" fill="#FF8593"/>
<path id="_68" fill-rule="evenodd" clip-rule="evenodd" d="M21.4721 6.32227L21.5203 6.45666L-3.39761 15.3744L-3.4458 15.24L21.4721 6.32227Z" fill="#FF8394"/>
<path id="_69" fill-rule="evenodd" clip-rule="evenodd" d="M21.5044 6.41406L21.5526 6.54846L-3.36538 15.4662L-3.41357 15.3318L21.5044 6.41406Z" fill="#FF8195"/>
<path id="_70" fill-rule="evenodd" clip-rule="evenodd" d="M21.5366 6.50293L21.5848 6.63732L-3.33315 15.5551L-3.38135 15.4203L21.5366 6.50293Z" fill="#FF7F96"/>
<path id="_71" fill-rule="evenodd" clip-rule="evenodd" d="M21.5688 6.59082L21.617 6.72521L-3.30093 15.6433L-3.34912 15.5086L21.5688 6.59082Z" fill="#FF7D96"/>
<path id="_72" fill-rule="evenodd" clip-rule="evenodd" d="M21.6005 6.68066L21.6487 6.81506L-3.26958 15.7328L-3.31738 15.5984L21.6005 6.68066Z" fill="#FF7C97"/>
<path id="_73" fill-rule="evenodd" clip-rule="evenodd" d="M21.6333 6.77246L21.6811 6.90685L-3.23687 15.8246L-3.28467 15.6902L21.6333 6.77246Z" fill="#FF7A98"/>
<path id="_74" fill-rule="evenodd" clip-rule="evenodd" d="M21.6651 6.8623L21.7133 6.9967L-3.20464 15.9144L-3.25244 15.78L21.6651 6.8623Z" fill="#FF7899"/>
<path id="_75" fill-rule="evenodd" clip-rule="evenodd" d="M21.6967 6.94922L21.7449 7.08361L-3.173 16.0013L-3.22119 15.867L21.6967 6.94922Z" fill="#FF7699"/>
<path id="_76" fill-rule="evenodd" clip-rule="evenodd" d="M21.729 7.04004L21.7772 7.17443L-3.14077 16.0926L-3.18896 15.9578L21.729 7.04004Z" fill="#FF759A"/>
<path id="_77" fill-rule="evenodd" clip-rule="evenodd" d="M21.7617 7.12988L21.8099 7.26428L-3.10806 16.1824L-3.15625 16.0476L21.7617 7.12988Z" fill="#FF739B"/>
<path id="_78" fill-rule="evenodd" clip-rule="evenodd" d="M21.7934 7.21973L21.8416 7.35412L-3.07632 16.2719L-3.12451 16.1375L21.7934 7.21973Z" fill="#FF719C"/>
<path id="_79" fill-rule="evenodd" clip-rule="evenodd" d="M21.8256 7.30859L21.8738 7.44299L-3.04409 16.3607L-3.09229 16.2263L21.8256 7.30859Z" fill="#FF709C"/>
<path id="_80" fill-rule="evenodd" clip-rule="evenodd" d="M21.8574 7.39844L21.9056 7.53283L-3.01235 16.4506L-3.06055 16.3162L21.8574 7.39844Z" fill="#FF6E9D"/>
<path id="_81" fill-rule="evenodd" clip-rule="evenodd" d="M21.8896 7.48828L21.9378 7.62267L-2.98052 16.5408L-3.02832 16.406L21.8896 7.48828Z" fill="#FF6C9E"/>
<path id="_82" fill-rule="evenodd" clip-rule="evenodd" d="M21.9222 7.5791L21.97 7.71349L-2.9479 16.6316L-2.99609 16.4968L21.9222 7.5791Z" fill="#FF6A9F"/>
<path id="_83" fill-rule="evenodd" clip-rule="evenodd" d="M21.9536 7.66797L22.0018 7.80236L-2.91616 16.7201L-2.96436 16.5857L21.9536 7.66797Z" fill="#FF69A0"/>
<path id="_84" fill-rule="evenodd" clip-rule="evenodd" d="M21.9853 7.75879L22.0335 7.89318L-2.88442 16.8109L-2.93262 16.6765L21.9853 7.75879Z" fill="#FF67A0"/>
<path id="_85" fill-rule="evenodd" clip-rule="evenodd" d="M22.0175 7.84668L22.0657 7.98107L-2.8522 16.8988L-2.90039 16.7644L22.0175 7.84668Z" fill="#FF65A1"/>
<path id="_86" fill-rule="evenodd" clip-rule="evenodd" d="M22.0498 7.93652L22.098 8.07131L-2.81997 16.989L-2.86816 16.8546L22.0498 7.93652Z" fill="#FF64A2"/>
<path id="_87" fill-rule="evenodd" clip-rule="evenodd" d="M22.082 8.02637L22.1302 8.16076L-2.78774 17.0789L-2.83594 16.9441L22.082 8.02637Z" fill="#FF62A3"/>
<path id="_88" fill-rule="evenodd" clip-rule="evenodd" d="M22.1142 8.11719L22.1624 8.25158L-2.75552 17.1693L-2.80371 17.0349L22.1142 8.11719Z" fill="#FF61A3"/>
<path id="_89" fill-rule="evenodd" clip-rule="evenodd" d="M22.146 8.20703L22.1938 8.34142L-2.72417 17.2592L-2.77197 17.1248L22.146 8.20703Z" fill="#FF5FA4"/>
<path id="_90" fill-rule="evenodd" clip-rule="evenodd" d="M22.1787 8.29395L22.2265 8.42834L-2.69146 17.3461L-2.73926 17.2117L22.1787 8.29395Z" fill="#FF5DA5"/>
<path id="_91" fill-rule="evenodd" clip-rule="evenodd" d="M22.2103 8.38574L22.2581 8.52013L-2.65981 17.4379L-2.70801 17.3035L22.2103 8.38574Z" fill="#FF5CA6"/>
<path id="_92" fill-rule="evenodd" clip-rule="evenodd" d="M22.2422 8.47656L22.2903 8.61096L-2.62759 17.5291L-2.67578 17.3947L22.2422 8.47656Z" fill="#FF5AA6"/>
<path id="_93" fill-rule="evenodd" clip-rule="evenodd" d="M22.2744 8.56543L22.3226 8.69982L-2.59536 17.6176L-2.64355 17.4832L22.2744 8.56543Z" fill="#FF59A7"/>
<path id="_94" fill-rule="evenodd" clip-rule="evenodd" d="M22.3071 8.65332L22.3553 8.78771L-2.56265 17.7054L-2.61084 17.5711L22.3071 8.65332Z" fill="#FF57A8"/>
<path id="_95" fill-rule="evenodd" clip-rule="evenodd" d="M22.3388 8.74316L22.387 8.87756L-2.53091 17.7953L-2.5791 17.6609L22.3388 8.74316Z" fill="#FF56A9"/>
<path id="_96" fill-rule="evenodd" clip-rule="evenodd" d="M22.3711 8.83301L22.4193 8.9674L-2.49868 17.8851L-2.54688 17.7507L22.3711 8.83301Z" fill="#FF54A9"/>
<path id="_97" fill-rule="evenodd" clip-rule="evenodd" d="M22.4028 8.92285L22.451 9.05724L-2.46694 17.9754L-2.51514 17.841L22.4028 8.92285Z" fill="#FF53AA"/>
<path id="_98" fill-rule="evenodd" clip-rule="evenodd" d="M22.435 9.01172L22.4832 9.14611L-2.43511 18.0638L-2.48291 17.9295L22.435 9.01172Z" fill="#FF51AB"/>
<path id="_99" fill-rule="evenodd" clip-rule="evenodd" d="M22.4673 9.10254L22.5151 9.23693L-2.40288 18.1547L-2.45068 18.0203L22.4673 9.10254Z" fill="#FF50AC"/>
<path id="_100" fill-rule="evenodd" clip-rule="evenodd" d="M22.499 9.19141L22.5468 9.3258L-2.37114 18.2435L-2.41895 18.1091L22.499 9.19141Z" fill="#FF4FAC"/>
<path id="_101" fill-rule="evenodd" clip-rule="evenodd" d="M22.5306 9.28223L22.5784 9.41662L-2.3395 18.3344L-2.3877 18.2L22.5306 9.28223Z" fill="#FF4DAD"/>
<path id="_102" fill-rule="evenodd" clip-rule="evenodd" d="M22.563 9.37109L22.6111 9.50549L-2.30679 18.4236L-2.35498 18.2892L22.563 9.37109Z" fill="#FF4CAE"/>
<path id="_103" fill-rule="evenodd" clip-rule="evenodd" d="M22.5947 9.46094L22.6429 9.59533L-2.27505 18.5135L-2.32324 18.3787L22.5947 9.46094Z" fill="#FF4BAE"/>
<path id="_104" fill-rule="evenodd" clip-rule="evenodd" d="M22.6269 9.55078L22.6751 9.68517L-2.24282 18.6029L-2.29102 18.4685L22.6269 9.55078Z" fill="#FF49AF"/>
<path id="_105" fill-rule="evenodd" clip-rule="evenodd" d="M22.6591 9.6416L22.7073 9.77599L-2.2106 18.6937L-2.25879 18.5593L22.6591 9.6416Z" fill="#FF48B0"/>
<path id="_106" fill-rule="evenodd" clip-rule="evenodd" d="M22.6919 9.72949L22.7401 9.86389L-2.17788 18.7816L-2.22607 18.6472L22.6919 9.72949Z" fill="#FF47B1"/>
<path id="_107" fill-rule="evenodd" clip-rule="evenodd" d="M22.7236 9.82031L22.7718 9.9551L-2.14614 18.8728L-2.19434 18.7384L22.7236 9.82031Z" fill="#FF46B1"/>
<path id="_108" fill-rule="evenodd" clip-rule="evenodd" d="M22.7557 9.90918L22.8039 10.0436L-2.1144 18.9617L-2.1626 18.8273L22.7557 9.90918Z" fill="#FF45B2"/>
<path id="_109" fill-rule="evenodd" clip-rule="evenodd" d="M22.7876 9.99707L22.8358 10.1315L-2.08218 19.0492L-2.13037 18.9148L22.7876 9.99707Z" fill="#FF44B3"/>
<path id="_110" fill-rule="evenodd" clip-rule="evenodd" d="M22.8203 10.0869L22.8685 10.2213L-2.04946 19.139L-2.09766 19.0046L22.8203 10.0869Z" fill="#FF42B3"/>
<path id="_111" fill-rule="evenodd" clip-rule="evenodd" d="M22.852 10.1768L22.9002 10.3112L-2.01772 19.2289L-2.06592 19.0945L22.852 10.1768Z" fill="#FF41B4"/>
<path id="_112" fill-rule="evenodd" clip-rule="evenodd" d="M22.8842 10.2686L22.9324 10.4029L-1.9855 19.3207L-2.03369 19.1863L22.8842 10.2686Z" fill="#FF40B5"/>
<path id="_113" fill-rule="evenodd" clip-rule="evenodd" d="M22.9165 10.3584L22.9647 10.4928L-1.95327 19.4109L-2.00146 19.2765L22.9165 10.3584Z" fill="#FF3FB5"/>
<path id="_114" fill-rule="evenodd" clip-rule="evenodd" d="M22.9482 10.4463L22.9964 10.5807L-1.92153 19.4984L-1.96973 19.364L22.9482 10.4463Z" fill="#FF3EB6"/>
<path id="_115" fill-rule="evenodd" clip-rule="evenodd" d="M22.9804 10.5352L23.0286 10.6695L-1.88931 19.5873L-1.9375 19.4529L22.9804 10.5352Z" fill="#FF3EB6"/>
<path id="_116" fill-rule="evenodd" clip-rule="evenodd" d="M23.0127 10.626L23.0609 10.7604L-1.85708 19.6781L-1.90527 19.5437L23.0127 10.626Z" fill="#FF3DB7"/>
<path id="_117" fill-rule="evenodd" clip-rule="evenodd" d="M23.0454 10.7158L23.0932 10.8502L-1.82437 19.7679L-1.87256 19.6336L23.0454 10.7158Z" fill="#FF3CB8"/>
<path id="_118" fill-rule="evenodd" clip-rule="evenodd" d="M23.077 10.8057L23.1248 10.9404L-1.79312 19.8582L-1.84131 19.7238L23.077 10.8057Z" fill="#FF3BB8"/>
<path id="_119" fill-rule="evenodd" clip-rule="evenodd" d="M23.1084 10.8945L23.1566 11.0289L-1.76138 19.9467L-1.80957 19.8123L23.1084 10.8945Z" fill="#FF3AB9"/>
<path id="_120" fill-rule="evenodd" clip-rule="evenodd" d="M23.1406 10.9854L23.1888 11.1197L-1.72915 20.0375L-1.77734 19.9031L23.1406 10.9854Z" fill="#FF3AB9"/>
<path id="_121" fill-rule="evenodd" clip-rule="evenodd" d="M23.1733 11.0742L23.2215 11.2086L-1.69644 20.1263L-1.74463 19.992L23.1733 11.0742Z" fill="#FF39BA"/>
<path id="_122" fill-rule="evenodd" clip-rule="evenodd" d="M23.2055 11.165L23.2537 11.2994L-1.66421 20.2172L-1.7124 20.0828L23.2055 11.165Z" fill="#FF38BB"/>
<path id="_123" fill-rule="evenodd" clip-rule="evenodd" d="M23.2373 11.2539L23.2855 11.3887L-1.63247 20.3064L-1.68066 20.172L23.2373 11.2539Z" fill="#FF38BB"/>
<path id="_124" fill-rule="evenodd" clip-rule="evenodd" d="M23.2695 11.3428L23.3177 11.4776L-1.60024 20.3953L-1.64844 20.2605L23.2695 11.3428Z" fill="#FF37BC"/>
<path id="_125" fill-rule="evenodd" clip-rule="evenodd" d="M23.3012 11.4336L23.3494 11.568L-1.5689 20.4857L-1.6167 20.3513L23.3012 11.4336Z" fill="#FF37BC"/>
<path id="_126" fill-rule="evenodd" clip-rule="evenodd" d="M23.333 11.5225L23.3808 11.6569L-1.53716 20.5746L-1.58496 20.4402L23.333 11.5225Z" fill="#FF36BD"/>
<path id="_127" fill-rule="evenodd" clip-rule="evenodd" d="M23.3652 11.6133L23.413 11.7477L-1.50493 20.6654L-1.55273 20.531L23.3652 11.6133Z" fill="#FF36BD"/>
<path id="_128" fill-rule="evenodd" clip-rule="evenodd" d="M23.3978 11.7021L23.4456 11.8369L-1.47231 20.7547L-1.52051 20.6203L23.3978 11.7021Z" fill="#FF35BE"/>
<path id="_129" fill-rule="evenodd" clip-rule="evenodd" d="M23.4297 11.792L23.4778 11.9268L-1.44009 20.8445L-1.48828 20.7101L23.4297 11.792Z" fill="#FF35BE"/>
<path id="_130" fill-rule="evenodd" clip-rule="evenodd" d="M23.4614 11.8799L23.5096 12.0143L-1.40835 20.932L-1.45654 20.7976L23.4614 11.8799Z" fill="#FF35BF"/>
<path id="_131" fill-rule="evenodd" clip-rule="evenodd" d="M23.4936 11.9717L23.5418 12.1061L-1.37612 21.0238L-1.42432 20.8894L23.4936 11.9717Z" fill="#FF34BF"/>
<path id="_132" fill-rule="evenodd" clip-rule="evenodd" d="M23.5258 12.0596L23.574 12.194L-1.3439 21.1117L-1.39209 20.9773L23.5258 12.0596Z" fill="#FF34C0"/>
<path id="_133" fill-rule="evenodd" clip-rule="evenodd" d="M23.5576 12.1494L23.6058 12.2842L-1.31216 21.2019L-1.36035 21.0675L23.5576 12.1494Z" fill="#FF34C0"/>
<path id="_134" fill-rule="evenodd" clip-rule="evenodd" d="M23.5903 12.2393L23.6385 12.374L-1.27944 21.2918L-1.32764 21.1574L23.5903 12.2393Z" fill="#FF34C1"/>
<path id="_135" fill-rule="evenodd" clip-rule="evenodd" d="M23.6219 12.3311L23.6701 12.4654L-1.24819 21.3832L-1.29639 21.2488L23.6219 12.3311Z" fill="#FF34C1"/>
<path id="_136" fill-rule="evenodd" clip-rule="evenodd" d="M23.6538 12.418L23.702 12.5524L-1.21597 21.4701L-1.26416 21.3357L23.6538 12.418Z" fill="#FF34C1"/>
<path id="_137" fill-rule="evenodd" clip-rule="evenodd" d="M23.686 12.5088L23.7342 12.6432L-1.18374 21.5609L-1.23193 21.4265L23.686 12.5088Z" fill="#FF34C2"/>
<path id="_138" fill-rule="evenodd" clip-rule="evenodd" d="M23.7187 12.5986L23.7669 12.733L-1.15103 21.6508L-1.19922 21.5164L23.7187 12.5986Z" fill="#FF34C2"/>
<path id="_139" fill-rule="evenodd" clip-rule="evenodd" d="M23.7505 12.6865L23.7986 12.8213L-1.11929 21.739L-1.16748 21.6046L23.7505 12.6865Z" fill="#FF34C3"/>
<path id="_140" fill-rule="evenodd" clip-rule="evenodd" d="M23.7827 12.7773L23.8309 12.9121L-1.08706 21.8295L-1.13525 21.6951L23.7827 12.7773Z" fill="#FE34C3"/>
<path id="_141" fill-rule="evenodd" clip-rule="evenodd" d="M23.8149 12.8672L23.8631 13.0016L-1.05483 21.9193L-1.10303 21.7849L23.8149 12.8672Z" fill="#FE34C4"/>
<path id="_142" fill-rule="evenodd" clip-rule="evenodd" d="M23.8466 12.957L23.8948 13.0914L-1.0231 22.0092L-1.07129 21.8748L23.8466 12.957Z" fill="#FE34C4"/>
<path id="_143" fill-rule="evenodd" clip-rule="evenodd" d="M23.8789 13.0469L23.9271 13.1813L-0.990869 22.099L-1.03906 21.9646L23.8789 13.0469Z" fill="#FD34C5"/>
<path id="_144" fill-rule="evenodd" clip-rule="evenodd" d="M23.9106 13.1348L23.9588 13.2696L-0.959523 22.1873L-1.00732 22.0529L23.9106 13.1348Z" fill="#FD34C5"/>
<path id="_145" fill-rule="evenodd" clip-rule="evenodd" d="M23.9427 13.2266L23.9905 13.3613L-0.927393 22.2791L-0.975586 22.1443L23.9427 13.2266Z" fill="#FC34C5"/>
<path id="_146" fill-rule="evenodd" clip-rule="evenodd" d="M23.9746 13.3154L24.0228 13.4498L-0.895166 22.3676L-0.943359 22.2332L23.9746 13.3154Z" fill="#FC35C6"/>
<path id="_147" fill-rule="evenodd" clip-rule="evenodd" d="M24.0068 13.4053L24.055 13.5397L-0.862939 22.4574L-0.911133 22.323L24.0068 13.4053Z" fill="#FB35C6"/>
<path id="_148" fill-rule="evenodd" clip-rule="evenodd" d="M24.039 13.4951L24.0872 13.6295L-0.830713 22.5472L-0.878906 22.4128L24.039 13.4951Z" fill="#FA35C7"/>
<path id="_149" fill-rule="evenodd" clip-rule="evenodd" d="M24.0713 13.585L24.1194 13.7197L-0.798486 22.6375L-0.84668 22.5031L24.0713 13.585Z" fill="#FA35C7"/>
<path id="_150" fill-rule="evenodd" clip-rule="evenodd" d="M24.1035 13.6748L24.1517 13.8096L-0.76626 22.7273L-0.814453 22.5925L24.1035 13.6748Z" fill="#F935C8"/>
<path id="_151" fill-rule="evenodd" clip-rule="evenodd" d="M24.1357 13.7627L24.1839 13.8971L-0.734425 22.8152L-0.782227 22.6804L24.1357 13.7627Z" fill="#F835C8"/>
<path id="_152" fill-rule="evenodd" clip-rule="evenodd" d="M24.1679 13.8545L24.2157 13.9889L-0.702198 22.9066L-0.75 22.7722L24.1679 13.8545Z" fill="#F735C8"/>
<path id="_153" fill-rule="evenodd" clip-rule="evenodd" d="M24.1997 13.9453L24.2475 14.0797L-0.67046 22.9974L-0.718262 22.863L24.1997 13.9453Z" fill="#F635C9"/>
<path id="_154" fill-rule="evenodd" clip-rule="evenodd" d="M24.2318 14.0322L24.2796 14.167L-0.63833 23.0847L-0.686523 22.9503L24.2318 14.0322Z" fill="#F535C9"/>
<path id="_155" fill-rule="evenodd" clip-rule="evenodd" d="M24.2641 14.1221L24.3123 14.2569L-0.605615 23.1746L-0.653809 23.0402L24.2641 14.1221Z" fill="#F436CA"/>
<path id="_156" fill-rule="evenodd" clip-rule="evenodd" d="M24.2959 14.2119L24.3441 14.3463L-0.573877 23.2644L-0.62207 23.1296L24.2959 14.2119Z" fill="#F336CA"/>
<path id="_157" fill-rule="evenodd" clip-rule="evenodd" d="M24.3271 14.3018L24.3753 14.4362L-0.542627 23.3543L-0.59082 23.2195L24.3271 14.3018Z" fill="#F236CA"/>
<path id="_158" fill-rule="evenodd" clip-rule="evenodd" d="M24.3598 14.3916L24.408 14.526L-0.509912 23.4437L-0.558105 23.3093L24.3598 14.3916Z" fill="#F136CB"/>
<path id="_159" fill-rule="evenodd" clip-rule="evenodd" d="M24.3921 14.4805L24.4402 14.6149L-0.477686 23.5326L-0.525879 23.3982L24.3921 14.4805Z" fill="#F036CB"/>
<path id="_160" fill-rule="evenodd" clip-rule="evenodd" d="M24.4243 14.5713L24.4725 14.7061L-0.445459 23.6238L-0.493652 23.4894L24.4243 14.5713Z" fill="#EF36CC"/>
<path id="_161" fill-rule="evenodd" clip-rule="evenodd" d="M24.456 14.6602L24.5042 14.7949L-0.414112 23.7127L-0.461914 23.5779L24.456 14.6602Z" fill="#EE37CC"/>
<path id="_162" fill-rule="evenodd" clip-rule="evenodd" d="M24.4887 14.75L24.5365 14.8844L-0.381398 23.8025L-0.429199 23.6677L24.4887 14.75Z" fill="#EC37CC"/>
<path id="_163" fill-rule="evenodd" clip-rule="evenodd" d="M24.5206 14.8398L24.5688 14.9742L-0.349171 23.892L-0.396973 23.7576L24.5206 14.8398Z" fill="#EB37CD"/>
<path id="_164" fill-rule="evenodd" clip-rule="evenodd" d="M24.5527 14.9297L24.6009 15.0641L-0.317041 23.9818L-0.365234 23.8474L24.5527 14.9297Z" fill="#EA37CD"/>
<path id="_165" fill-rule="evenodd" clip-rule="evenodd" d="M24.5844 15.0195L24.6326 15.1543L-0.285303 24.072L-0.333496 23.9377L24.5844 15.0195Z" fill="#E837CE"/>
<path id="_166" fill-rule="evenodd" clip-rule="evenodd" d="M24.6162 15.1084L24.6644 15.2432L-0.253564 24.1609L-0.301758 24.0261L24.6162 15.1084Z" fill="#E738CE"/>
<path id="_167" fill-rule="evenodd" clip-rule="evenodd" d="M24.6489 15.1973L24.6971 15.3317L-0.22085 24.2498L-0.269043 24.115L24.6489 15.1973Z" fill="#E638CE"/>
<path id="_168" fill-rule="evenodd" clip-rule="evenodd" d="M24.6806 15.2891L24.7288 15.4235L-0.189111 24.3412L-0.237305 24.2068L24.6806 15.2891Z" fill="#E438CF"/>
<path id="_169" fill-rule="evenodd" clip-rule="evenodd" d="M24.7129 15.3779L24.761 15.5123L-0.156885 24.4301L-0.205078 24.2957L24.7129 15.3779Z" fill="#E338CF"/>
<path id="_170" fill-rule="evenodd" clip-rule="evenodd" d="M24.7451 15.4658L24.7933 15.6006L-0.124658 24.5183L-0.172852 24.3839L24.7451 15.4658Z" fill="#E138D0"/>
<path id="_171" fill-rule="evenodd" clip-rule="evenodd" d="M24.7767 15.5557L24.8249 15.6904L-0.0934082 24.6082L-0.141602 24.4734L24.7767 15.5557Z" fill="#E039D0"/>
<path id="_172" fill-rule="evenodd" clip-rule="evenodd" d="M24.809 15.6475L24.8572 15.7819L-0.0606933 24.7L-0.108887 24.5652L24.809 15.6475Z" fill="#DE39D0"/>
<path id="_173" fill-rule="evenodd" clip-rule="evenodd" d="M24.8413 15.7373L24.8895 15.8717L-0.0284668 24.7894L-0.0766602 24.655L24.8413 15.7373Z" fill="#DD39D1"/>
<path id="_174" fill-rule="evenodd" clip-rule="evenodd" d="M24.8735 15.8271L24.9217 15.9615L0.00375978 24.8793L-0.0444336 24.7449L24.8735 15.8271Z" fill="#DB39D1"/>
<path id="_175" fill-rule="evenodd" clip-rule="evenodd" d="M24.9052 15.917L24.9534 16.0514L0.0354981 24.9691L-0.0126953 24.8347L24.9052 15.917Z" fill="#DA3AD1"/>
<path id="_176" fill-rule="evenodd" clip-rule="evenodd" d="M24.9375 16.0049L24.9857 16.1397L0.0677246 25.0574L0.0195312 24.923L24.9375 16.0049Z" fill="#D83AD2"/>
<path id="_177" fill-rule="evenodd" clip-rule="evenodd" d="M24.9697 16.0947L25.0179 16.2291L0.0999512 25.1472L0.0517578 25.0125L24.9697 16.0947Z" fill="#D63AD2"/>
<path id="_178" fill-rule="evenodd" clip-rule="evenodd" d="M25.0024 16.1846L25.0506 16.319L0.132666 25.2371L0.0844727 25.1023L25.0024 16.1846Z" fill="#D53AD2"/>
<path id="_179" fill-rule="evenodd" clip-rule="evenodd" d="M25.0341 16.2744L25.0819 16.4088L0.164013 25.3265L0.116211 25.1921L25.0341 16.2744Z" fill="#D33BD3"/>
<path id="_180" fill-rule="evenodd" clip-rule="evenodd" d="M25.0664 16.3643L25.1142 16.4987L0.196239 25.4164L0.148438 25.282L25.0664 16.3643Z" fill="#D13BD3"/>
<path id="_181" fill-rule="evenodd" clip-rule="evenodd" d="M25.0985 16.4541L25.1463 16.5889L0.228369 25.5066L0.180176 25.3722L25.0985 16.4541Z" fill="#D03BD3"/>
<path id="_182" fill-rule="evenodd" clip-rule="evenodd" d="M25.1298 16.543L25.178 16.6774L0.260107 25.5955L0.211914 25.4607L25.1298 16.543Z" fill="#CE3BD4"/>
<path id="_183" fill-rule="evenodd" clip-rule="evenodd" d="M25.1626 16.6338L25.2108 16.7682L0.292822 25.6863L0.244629 25.5515L25.1626 16.6338Z" fill="#CC3CD4"/>
<path id="_184" fill-rule="evenodd" clip-rule="evenodd" d="M25.1943 16.7227L25.2425 16.857L0.324561 25.7748L0.276367 25.6404L25.1943 16.7227Z" fill="#CA3CD4"/>
<path id="_185" fill-rule="evenodd" clip-rule="evenodd" d="M25.2265 16.8115L25.2747 16.9459L0.356787 25.8636L0.308594 25.7293L25.2265 16.8115Z" fill="#C93CD5"/>
<path id="_186" fill-rule="evenodd" clip-rule="evenodd" d="M25.2583 16.9023L25.3065 17.0367L0.388525 25.9545L0.340332 25.8201L25.2583 16.9023Z" fill="#C73DD5"/>
<path id="_187" fill-rule="evenodd" clip-rule="evenodd" d="M25.29 16.9922L25.3382 17.127L0.420264 26.0447L0.37207 25.9099L25.29 16.9922Z" fill="#C53DD5"/>
<path id="_188" fill-rule="evenodd" clip-rule="evenodd" d="M25.3222 17.0811L25.3704 17.2154L0.452098 26.1336L0.404297 25.9988L25.3222 17.0811Z" fill="#C33DD6"/>
<path id="_189" fill-rule="evenodd" clip-rule="evenodd" d="M25.3545 17.1709L25.4023 17.3053L0.484325 26.223L0.436523 26.0886L25.3545 17.1709Z" fill="#C13DD6"/>
<path id="_190" fill-rule="evenodd" clip-rule="evenodd" d="M25.3872 17.2607L25.435 17.3951L0.51704 26.3129L0.469238 26.1785L25.3872 17.2607Z" fill="#C03ED6"/>
<path id="_191" fill-rule="evenodd" clip-rule="evenodd" d="M25.4188 17.3516L25.4666 17.486L0.548682 26.4037L0.500488 26.2693L25.4188 17.3516Z" fill="#BE3ED7"/>
<path id="_192" fill-rule="evenodd" clip-rule="evenodd" d="M25.4506 17.4404L25.4988 17.5748L0.580908 26.4926L0.532715 26.3578L25.4506 17.4404Z" fill="#BC3ED7"/>
<path id="_193" fill-rule="evenodd" clip-rule="evenodd" d="M25.4829 17.5283L25.5311 17.6627L0.613135 26.5808L0.564941 26.4461L25.4829 17.5283Z" fill="#BA3ED7"/>
<path id="_194" fill-rule="evenodd" clip-rule="evenodd" d="M25.5156 17.6182L25.5638 17.7526L0.64585 26.6703L0.597656 26.5359L25.5156 17.6182Z" fill="#B83FD8"/>
<path id="_195" fill-rule="evenodd" clip-rule="evenodd" d="M25.5473 17.71L25.5955 17.8444L0.677588 26.7621L0.629395 26.6277L25.5473 17.71Z" fill="#B73FD8"/>
<path id="_196" fill-rule="evenodd" clip-rule="evenodd" d="M25.5796 17.7998L25.6277 17.9342L0.709814 26.8519L0.661621 26.7175L25.5796 17.7998Z" fill="#B53FD8"/>
<path id="_197" fill-rule="evenodd" clip-rule="evenodd" d="M25.6113 17.8867L25.6595 18.0211L0.741553 26.9388L0.693359 26.8041L25.6113 17.8867Z" fill="#B340D8"/>
<path id="_198" fill-rule="evenodd" clip-rule="evenodd" d="M25.6434 17.9775L25.6916 18.1119L0.773291 27.0301L0.725098 26.8953L25.6434 17.9775Z" fill="#B140D9"/>
<path id="_199" fill-rule="evenodd" clip-rule="evenodd" d="M25.6757 18.0674L25.7239 18.2018L0.806006 27.1195L0.757812 26.9851L25.6757 18.0674Z" fill="#AF40D9"/>
<path id="_200" fill-rule="evenodd" clip-rule="evenodd" d="M25.7075 18.1572L25.7557 18.2916L0.837744 27.2093L0.789551 27.075L25.7075 18.1572Z" fill="#AE40D9"/>
<path id="_201" fill-rule="evenodd" clip-rule="evenodd" d="M25.7392 18.2471L25.7874 18.3815L0.869482 27.2992L0.821289 27.1648L25.7392 18.2471Z" fill="#AC41D9"/>
<path id="_202" fill-rule="evenodd" clip-rule="evenodd" d="M25.7714 18.3359L25.8196 18.4703L0.901709 27.3881L0.853516 27.2537L25.7714 18.3359Z" fill="#AA41DA"/>
<path id="_203" fill-rule="evenodd" clip-rule="evenodd" d="M25.8037 18.4258L25.8519 18.5602L0.933936 27.4783L0.885742 27.3435L25.8037 18.4258Z" fill="#A841DA"/>
<path id="_204" fill-rule="evenodd" clip-rule="evenodd" d="M25.8364 18.5166L25.8846 18.651L0.96665 27.5691L0.918457 27.4343L25.8364 18.5166Z" fill="#A641DA"/>
<path id="_205" fill-rule="evenodd" clip-rule="evenodd" d="M25.8681 18.6055L25.9163 18.7399L0.998389 27.6576L0.950195 27.5232L25.8681 18.6055Z" fill="#A542DA"/>
<path id="_206" fill-rule="evenodd" clip-rule="evenodd" d="M25.9008 18.6963L25.9486 18.8307L1.0311 27.7484L0.98291 27.614L25.9008 18.6963Z" fill="#A342DB"/>
<path id="_207" fill-rule="evenodd" clip-rule="evenodd" d="M25.9326 18.7842L25.9804 18.9186L1.06245 27.8363L1.01465 27.7019L25.9326 18.7842Z" fill="#A142DB"/>
<path id="_208" fill-rule="evenodd" clip-rule="evenodd" d="M25.9642 18.875L26.012 19.0098L1.09409 27.9275L1.0459 27.7927L25.9642 18.875Z" fill="#9F43DB"/>
<path id="_209" fill-rule="evenodd" clip-rule="evenodd" d="M25.9965 18.9639L26.0447 19.0983L1.12681 28.0164L1.07861 27.8816L25.9965 18.9639Z" fill="#9E43DB"/>
<path id="_210" fill-rule="evenodd" clip-rule="evenodd" d="M26.0283 19.0537L26.0765 19.1881L1.15854 28.1058L1.11035 27.9714L26.0283 19.0537Z" fill="#9C43DC"/>
<path id="_211" fill-rule="evenodd" clip-rule="evenodd" d="M26.0605 19.1445L26.1087 19.2789L1.19077 28.1967L1.14258 28.0623L26.0605 19.1445Z" fill="#9A43DC"/>
<path id="_212" fill-rule="evenodd" clip-rule="evenodd" d="M26.0927 19.2334L26.1409 19.3678L1.223 28.2855L1.1748 28.1511L26.0927 19.2334Z" fill="#9944DC"/>
<path id="_213" fill-rule="evenodd" clip-rule="evenodd" d="M26.125 19.3232L26.1732 19.4576L1.25522 28.3754L1.20703 28.241L26.125 19.3232Z" fill="#9744DC"/>
<path id="_214" fill-rule="evenodd" clip-rule="evenodd" d="M26.1567 19.4141L26.2049 19.5485L1.28657 28.4666L1.23877 28.3318L26.1567 19.4141Z" fill="#9544DD"/>
<path id="_215" fill-rule="evenodd" clip-rule="evenodd" d="M26.1889 19.5029L26.2367 19.6373L1.3188 28.5551L1.271 28.4207L26.1889 19.5029Z" fill="#9444DD"/>
<path id="_216" fill-rule="evenodd" clip-rule="evenodd" d="M26.2212 19.5908L26.269 19.7252L1.35102 28.6429L1.30322 28.5085L26.2212 19.5908Z" fill="#9245DD"/>
<path id="_217" fill-rule="evenodd" clip-rule="evenodd" d="M26.2533 19.6807L26.3011 19.8151L1.38315 28.7328L1.33496 28.5984L26.2533 19.6807Z" fill="#9045DD"/>
<path id="_218" fill-rule="evenodd" clip-rule="evenodd" d="M26.2851 19.7705L26.3333 19.9049L1.41538 28.8226L1.36719 28.6882L26.2851 19.7705Z" fill="#8F45DD"/>
<path id="_219" fill-rule="evenodd" clip-rule="evenodd" d="M26.3169 19.8604L26.3651 19.9947L1.44712 28.9129L1.39893 28.7785L26.3169 19.8604Z" fill="#8D45DE"/>
<path id="_220" fill-rule="evenodd" clip-rule="evenodd" d="M26.3491 19.9492L26.3973 20.0836L1.47935 29.0013L1.43115 28.867L26.3491 19.9492Z" fill="#8C45DE"/>
<path id="_221" fill-rule="evenodd" clip-rule="evenodd" d="M26.3813 20.04L26.4295 20.1744L1.51157 29.0922L1.46338 28.9578L26.3813 20.04Z" fill="#8A46DE"/>
<path id="_222" fill-rule="evenodd" clip-rule="evenodd" d="M26.414 20.1289L26.4622 20.2633L1.54429 29.181L1.49609 29.0466L26.414 20.1289Z" fill="#8946DE"/>
<path id="_223" fill-rule="evenodd" clip-rule="evenodd" d="M26.4458 20.2197L26.494 20.3541L1.57603 29.2718L1.52783 29.1375L26.4458 20.2197Z" fill="#8746DE"/>
<path id="_224" fill-rule="evenodd" clip-rule="evenodd" d="M26.478 20.3086L26.5262 20.443L1.60786 29.3611L1.56006 29.2267L26.478 20.3086Z" fill="#8646DE"/>
<path id="_225" fill-rule="evenodd" clip-rule="evenodd" d="M26.5102 20.3984L26.5584 20.5328L1.64048 29.451L1.59229 29.3162L26.5102 20.3984Z" fill="#8547DF"/>
<path id="_226" fill-rule="evenodd" clip-rule="evenodd" d="M26.5415 20.4883L26.5897 20.6227L1.67173 29.5404L1.62354 29.406L26.5415 20.4883Z" fill="#8347DF"/>
<path id="_227" fill-rule="evenodd" clip-rule="evenodd" d="M26.5742 20.5771L26.6224 20.7115L1.70444 29.6293L1.65625 29.4949L26.5742 20.5771Z" fill="#8247DF"/>
<path id="_228" fill-rule="evenodd" clip-rule="evenodd" d="M26.6059 20.667L26.6541 20.8014L1.73618 29.7191L1.68799 29.5847L26.6059 20.667Z" fill="#8147DF"/>
<path id="_229" fill-rule="evenodd" clip-rule="evenodd" d="M26.6377 20.7578L26.6859 20.8922L1.76792 29.8103L1.71973 29.6759L26.6377 20.7578Z" fill="#8047DF"/>
<path id="_230" fill-rule="evenodd" clip-rule="evenodd" d="M26.6699 20.8467L26.7181 20.9811L1.80015 29.8992L1.75195 29.7644L26.6699 20.8467Z" fill="#7E48DF"/>
<path id="_231" fill-rule="evenodd" clip-rule="evenodd" d="M26.7021 20.9365L26.7503 21.0709L1.83237 29.9886L1.78418 29.8543L26.7021 20.9365Z" fill="#7D48DF"/>
<path id="_232" fill-rule="evenodd" clip-rule="evenodd" d="M26.7343 21.0244L26.7825 21.1588L1.8646 30.0765L1.81641 29.9421L26.7343 21.0244Z" fill="#7C48E0"/>
<path id="_233" fill-rule="evenodd" clip-rule="evenodd" d="M26.7661 21.1143L26.8143 21.2487L1.89634 30.1664L1.84814 30.032L26.7661 21.1143Z" fill="#7B48E0"/>
<path id="_234" fill-rule="evenodd" clip-rule="evenodd" d="M26.7987 21.2061L26.8469 21.3408L1.92856 30.2586L1.88037 30.1242L26.7987 21.2061Z" fill="#7A48E0"/>
<path id="_235" fill-rule="evenodd" clip-rule="evenodd" d="M26.8305 21.2959L26.8787 21.4303L1.96079 30.3484L1.9126 30.214L26.8305 21.2959Z" fill="#7948E0"/>
<path id="_236" fill-rule="evenodd" clip-rule="evenodd" d="M26.8632 21.3857L26.9114 21.5201L1.99351 30.4379L1.94531 30.3035L26.8632 21.3857Z" fill="#7849E0"/>
<path id="_237" fill-rule="evenodd" clip-rule="evenodd" d="M26.895 21.4736L26.9432 21.608L2.02524 30.5258L1.97705 30.3914L26.895 21.4736Z" fill="#7749E0"/>
<path id="_238" fill-rule="evenodd" clip-rule="evenodd" d="M26.9267 21.5635L26.9749 21.6979L2.05698 30.6156L2.00879 30.4812L26.9267 21.5635Z" fill="#7649E0"/>
<path id="_239" fill-rule="evenodd" clip-rule="evenodd" d="M26.9594 21.6533L27.0076 21.7877L2.0897 30.7054L2.0415 30.5711L26.9594 21.6533Z" fill="#7549E0"/>
<path id="_240" fill-rule="evenodd" clip-rule="evenodd" d="M26.9912 21.7432L27.0394 21.8779L2.12144 30.7957L2.07324 30.6613L26.9912 21.7432Z" fill="#7449E0"/>
<path id="_241" fill-rule="evenodd" clip-rule="evenodd" d="M27.0234 21.833L27.0716 21.9674L2.15327 30.8851L2.10547 30.7507L27.0234 21.833Z" fill="#7349E0"/>
<path id="_242" fill-rule="evenodd" clip-rule="evenodd" d="M27.0551 21.9229L27.1029 22.0572L2.18501 30.975L2.13721 30.8406L27.0551 21.9229Z" fill="#7349E1"/>
<path id="_243" fill-rule="evenodd" clip-rule="evenodd" d="M27.0874 22.0117L27.1352 22.1461L2.21724 31.0638L2.16943 30.9294L27.0874 22.0117Z" fill="#7249E1"/>
<path id="_244" fill-rule="evenodd" clip-rule="evenodd" d="M27.12 22.1025L27.1678 22.2369L2.24985 31.1547L2.20166 31.0203L27.12 22.1025Z" fill="#7149E1"/>
<path id="_245" fill-rule="evenodd" clip-rule="evenodd" d="M27.1513 22.1914L27.1995 22.3262L2.28159 31.2439L2.2334 31.1095L27.1513 22.1914Z" fill="#714AE1"/>
<path id="_246" fill-rule="evenodd" clip-rule="evenodd" d="M27.1836 22.2803L27.2318 22.4147L2.31382 31.3324L2.26562 31.198L27.1836 22.2803Z" fill="#704AE1"/>
<path id="_247" fill-rule="evenodd" clip-rule="evenodd" d="M27.2153 22.3701L27.2635 22.5045L2.34556 31.4222L2.29736 31.2878L27.2153 22.3701Z" fill="#704AE1"/>
<path id="_248" fill-rule="evenodd" clip-rule="evenodd" d="M27.248 22.46L27.2962 22.5944L2.37827 31.5121L2.33008 31.3777L27.248 22.46Z" fill="#6F4AE1"/>
<path id="_249" fill-rule="evenodd" clip-rule="evenodd" d="M27.2797 22.5508L27.3279 22.6852L2.41001 31.6029L2.36182 31.4685L27.2797 22.5508Z" fill="#6F4AE1"/>
<path id="_250" fill-rule="evenodd" clip-rule="evenodd" d="M27.3115 22.6396L27.3597 22.7744L2.44175 31.6922L2.39355 31.5578L27.3115 22.6396Z" fill="#6F4AE1"/>
<path id="_251" fill-rule="evenodd" clip-rule="evenodd" d="M27.3442 22.7285L27.3924 22.8633L2.47407 31.781L2.42627 31.6462L27.3442 22.7285Z" fill="#6E4AE1"/>
<path id="_252" fill-rule="evenodd" clip-rule="evenodd" d="M27.3759 22.8174L27.4237 22.9518L2.50581 31.8695L2.45801 31.7351L27.3759 22.8174Z" fill="#6E4AE1"/>
<path id="_253" fill-rule="evenodd" clip-rule="evenodd" d="M27.4078 22.9092L27.456 23.0436L2.53804 31.9613L2.49023 31.8269L27.4078 22.9092Z" fill="#6E4AE1"/>
<path id="_254" fill-rule="evenodd" clip-rule="evenodd" d="M27.4404 22.9971L27.4886 23.1315L2.57065 32.0492L2.52246 31.9148L27.4404 22.9971Z" fill="#6E4AE1"/>
<path id="_255" fill-rule="evenodd" clip-rule="evenodd" d="M27.4716 23.0869L28.1068 24.8614L3.18885 33.7792L2.55371 32.005L27.4716 23.0869Z" fill="#6E4AE1"/>
</g>
</g>
</g>
</g>
<g id="Clip path group_2">
<mask id="mask1_845_38764" style="mask-type:luminance" maskUnits="userSpaceOnUse" x="0" y="0" width="22" height="32">
<g id="id1">
<path id="Vector_4" d="M16.6095 0C18.3789 1.05046 19.8325 2.58207 20.7882 4.41067C18.3013 9.33149 13.1924 12.7262 7.32891 12.7262V12.7266C14.3886 12.7266 20.3537 17.647 21.9664 24.2279C21.848 25.3246 21.5659 26.3743 21.1467 27.3527C19.4059 26.4174 17.4158 25.8865 15.3016 25.8865C10.7526 25.8865 6.77801 28.3424 4.62929 32C3.00091 30.8332 1.69969 29.2346 0.897247 27.3754C3.50596 22.8538 8.39347 19.7942 13.9608 19.7942V19.7934C7.67292 19.7934 2.25371 15.8901 0.00390625 10.387V9.47685C0.00390625 8.37467 0.168861 7.30894 0.473694 6.30275C1.96416 6.93906 3.6043 7.2917 5.32673 7.2917C10.349 7.2917 14.6715 4.29901 16.6095 0Z" fill="white"/>
</g>
</mask>
<g mask="url(#mask1_845_38764)">
<g id="Group_3">
<g id="Group_4">
<g id="Clip path group_3">
<mask id="mask2_845_38764" style="mask-type:luminance" maskUnits="userSpaceOnUse" x="0" y="0" width="22" height="32">
<g id="id2">
<path id="Vector_5" d="M16.6095 0C18.3789 1.05046 19.8325 2.58207 20.7882 4.41067C18.3013 9.33149 13.1924 12.7262 7.32891 12.7262V12.7266C14.3886 12.7266 20.3537 17.647 21.9664 24.2279C21.848 25.3246 21.5659 26.3743 21.1467 27.3527C19.4059 26.4174 17.4158 25.8865 15.3016 25.8865C10.7526 25.8865 6.77801 28.3424 4.62929 32C3.00091 30.8332 1.69969 29.2346 0.897247 27.3754C3.50596 22.8538 8.39347 19.7942 13.9608 19.7942V19.7934C7.67292 19.7934 2.25371 15.8901 0.00390625 10.387V9.47685C0.00390625 8.37467 0.168861 7.30894 0.473694 6.30275C1.96416 6.93906 3.6043 7.2917 5.32673 7.2917C10.349 7.2917 14.6715 4.29901 16.6095 0Z" fill="white"/>
</g>
</mask>
<g mask="url(#mask2_845_38764)">
<g id="Group_5">
<path id="_256" fill-rule="evenodd" clip-rule="evenodd" d="M22.812 -7.29395L24.6935 -0.537863L-9.76791 9.06006L-11.6494 2.30398L22.812 -7.29395Z" fill="#FFD374"/>
<path id="_257" fill-rule="evenodd" clip-rule="evenodd" d="M24.6802 -0.583984L24.7194 -0.443322L-9.74158 9.1546L-9.78076 9.01355L24.6802 -0.583984Z" fill="#FFD374"/>
<path id="_258" fill-rule="evenodd" clip-rule="evenodd" d="M24.7061 -0.490234L24.7453 -0.349572L-9.7157 9.24835L-9.75488 9.10769L24.7061 -0.490234Z" fill="#FFD374"/>
<path id="_259" fill-rule="evenodd" clip-rule="evenodd" d="M24.7329 -0.397461L24.7721 -0.256407L-9.68933 9.34112L-9.72852 9.20046L24.7329 -0.397461Z" fill="#FFD374"/>
<path id="_260" fill-rule="evenodd" clip-rule="evenodd" d="M24.7588 -0.303711L24.7979 -0.162657L-9.66346 9.43488L-9.70264 9.29421L24.7588 -0.303711Z" fill="#FFD374"/>
<path id="_261" fill-rule="evenodd" clip-rule="evenodd" d="M24.7847 -0.209961L24.8239 -0.069299L-9.63709 9.52863L-9.67627 9.38757L24.7847 -0.209961Z" fill="#FFD274"/>
<path id="_262" fill-rule="evenodd" clip-rule="evenodd" d="M24.8115 -0.115234L24.8507 0.0254276L-9.61072 9.62335L-9.6499 9.48269L24.8115 -0.115234Z" fill="#FFD274"/>
<path id="_263" fill-rule="evenodd" clip-rule="evenodd" d="M24.8369 -0.0224609L24.8761 0.118201L-9.58533 9.71613L-9.62451 9.57507L24.8369 -0.0224609Z" fill="#FFD274"/>
<path id="_264" fill-rule="evenodd" clip-rule="evenodd" d="M24.8629 0.0712891L24.9024 0.212343L-9.55896 9.80988L-9.59814 9.66921L24.8629 0.0712891Z" fill="#FFD175"/>
<path id="_265" fill-rule="evenodd" clip-rule="evenodd" d="M24.8896 0.166016L24.9288 0.306678L-9.5322 9.9046L-9.57178 9.76355L24.8896 0.166016Z" fill="#FFD175"/>
<path id="_266" fill-rule="evenodd" clip-rule="evenodd" d="M24.9155 0.258789L24.9547 0.399843L-9.50672 9.99738L-9.5459 9.85671L24.9155 0.258789Z" fill="#FFD175"/>
<path id="_267" fill-rule="evenodd" clip-rule="evenodd" d="M24.9414 0.352539L24.9806 0.493201L-9.48084 10.0911L-9.52002 9.95007L24.9414 0.352539Z" fill="#FFD075"/>
<path id="_268" fill-rule="evenodd" clip-rule="evenodd" d="M24.9678 0.446289L25.007 0.587343L-9.45398 10.1849L-9.49316 10.0442L24.9678 0.446289Z" fill="#FFCF75"/>
<path id="_269" fill-rule="evenodd" clip-rule="evenodd" d="M24.9941 0.541992L25.0333 0.682654L-9.4281 10.2806L-9.46729 10.1399L24.9941 0.541992Z" fill="#FFCF76"/>
<path id="_270" fill-rule="evenodd" clip-rule="evenodd" d="M25.0195 0.633789L25.0587 0.774843L-9.40271 10.3724L-9.44189 10.2317L25.0195 0.633789Z" fill="#FFCE76"/>
<path id="_271" fill-rule="evenodd" clip-rule="evenodd" d="M25.046 0.729492L25.0855 0.870154L-9.37586 10.4681L-9.41504 10.3274L25.046 0.729492Z" fill="#FFCE76"/>
<path id="_272" fill-rule="evenodd" clip-rule="evenodd" d="M25.0722 0.823242L25.1114 0.963904L-9.34998 10.5618L-9.38916 10.4208L25.0722 0.823242Z" fill="#FFCD76"/>
<path id="_273" fill-rule="evenodd" clip-rule="evenodd" d="M25.0986 0.916992L25.1378 1.05765L-9.32361 10.6556L-9.36279 10.5149L25.0986 0.916992Z" fill="#FFCC77"/>
<path id="_274" fill-rule="evenodd" clip-rule="evenodd" d="M25.125 1.01074L25.1642 1.1514L-9.29724 10.7493L-9.33643 10.6083L25.125 1.01074Z" fill="#FFCB77"/>
<path id="_275" fill-rule="evenodd" clip-rule="evenodd" d="M25.1509 1.10449L25.1901 1.24555L-9.27088 10.8431L-9.31006 10.7024L25.1509 1.10449Z" fill="#FFCA77"/>
<path id="_276" fill-rule="evenodd" clip-rule="evenodd" d="M25.1772 1.19824L25.2164 1.3389L-9.245 10.9368L-9.28418 10.7958L25.1772 1.19824Z" fill="#FFCA78"/>
<path id="_277" fill-rule="evenodd" clip-rule="evenodd" d="M25.2031 1.29199L25.2423 1.43265L-9.21912 11.0306L-9.2583 10.8899L25.2031 1.29199Z" fill="#FFC978"/>
<path id="_278" fill-rule="evenodd" clip-rule="evenodd" d="M25.2295 1.38574L25.2686 1.5264L-9.19275 11.1243L-9.23193 10.9833L25.2295 1.38574Z" fill="#FFC878"/>
<path id="_279" fill-rule="evenodd" clip-rule="evenodd" d="M25.2553 1.47949L25.2945 1.62055L-9.16687 11.2181L-9.20605 11.0774L25.2553 1.47949Z" fill="#FFC779"/>
<path id="_280" fill-rule="evenodd" clip-rule="evenodd" d="M25.2812 1.57324L25.3204 1.7139L-9.14099 11.3118L-9.18018 11.1712L25.2812 1.57324Z" fill="#FFC679"/>
<path id="_281" fill-rule="evenodd" clip-rule="evenodd" d="M25.3076 1.66699L25.3468 1.80805L-9.11463 11.4056L-9.15381 11.2649L25.3076 1.66699Z" fill="#FFC579"/>
<path id="_282" fill-rule="evenodd" clip-rule="evenodd" d="M25.3336 1.76074L25.3727 1.9014L-9.08826 11.4993L-9.12744 11.3587L25.3336 1.76074Z" fill="#FFC47A"/>
<path id="_283" fill-rule="evenodd" clip-rule="evenodd" d="M25.3593 1.85449L25.3985 1.99555L-9.06287 11.5931L-9.10205 11.4524L25.3593 1.85449Z" fill="#FFC27A"/>
<path id="_284" fill-rule="evenodd" clip-rule="evenodd" d="M25.3862 1.94824L25.4254 2.0889L-9.03601 11.6868L-9.0752 11.5462L25.3862 1.94824Z" fill="#FFC17B"/>
<path id="_285" fill-rule="evenodd" clip-rule="evenodd" d="M25.4131 2.04199L25.4522 2.18305L-9.00916 11.7806L-9.04834 11.6399L25.4131 2.04199Z" fill="#FFC07B"/>
<path id="_286" fill-rule="evenodd" clip-rule="evenodd" d="M25.4389 2.13574L25.4781 2.2764L-8.98289 11.8743L-9.02246 11.7337L25.4389 2.13574Z" fill="#FFBF7C"/>
<path id="_287" fill-rule="evenodd" clip-rule="evenodd" d="M25.4643 2.23145L25.5035 2.37211L-8.95789 11.97L-8.99707 11.829L25.4643 2.23145Z" fill="#FFBE7C"/>
<path id="_288" fill-rule="evenodd" clip-rule="evenodd" d="M25.4912 2.3252L25.5304 2.46586L-8.93103 12.0638L-8.97021 11.9231L25.4912 2.3252Z" fill="#FFBC7D"/>
<path id="_289" fill-rule="evenodd" clip-rule="evenodd" d="M25.5172 2.41797L25.5567 2.55863L-8.90467 12.1566L-8.94385 12.0155L25.5172 2.41797Z" fill="#FFBB7D"/>
<path id="_290" fill-rule="evenodd" clip-rule="evenodd" d="M25.5429 2.5127L25.5821 2.65375L-8.87928 12.2513L-8.91846 12.1106L25.5429 2.5127Z" fill="#FFBA7E"/>
<path id="_291" fill-rule="evenodd" clip-rule="evenodd" d="M25.5693 2.60547L25.6085 2.74613L-8.85291 12.3441L-8.89209 12.203L25.5693 2.60547Z" fill="#FFB97E"/>
<path id="_292" fill-rule="evenodd" clip-rule="evenodd" d="M25.5952 2.69922L25.6344 2.84027L-8.82703 12.4378L-8.86621 12.2971L25.5952 2.69922Z" fill="#FFB77F"/>
<path id="_293" fill-rule="evenodd" clip-rule="evenodd" d="M25.6211 2.79395L25.6602 2.93461L-8.80076 12.5325L-8.84033 12.3919L25.6211 2.79395Z" fill="#FFB67F"/>
<path id="_294" fill-rule="evenodd" clip-rule="evenodd" d="M25.6479 2.88672L25.6871 3.02777L-8.77429 12.6253L-8.81348 12.4846L25.6479 2.88672Z" fill="#FFB480"/>
<path id="_295" fill-rule="evenodd" clip-rule="evenodd" d="M25.6738 2.98145L25.713 3.12211L-8.74842 12.72L-8.7876 12.5794L25.6738 2.98145Z" fill="#FFB380"/>
<path id="_296" fill-rule="evenodd" clip-rule="evenodd" d="M25.6998 3.0752L25.7393 3.21625L-8.72205 12.8138L-8.76123 12.6731L25.6998 3.0752Z" fill="#FFB181"/>
<path id="_297" fill-rule="evenodd" clip-rule="evenodd" d="M25.726 3.16895L25.7652 3.30961L-8.69617 12.9075L-8.73535 12.7669L25.726 3.16895Z" fill="#FFB081"/>
<path id="_298" fill-rule="evenodd" clip-rule="evenodd" d="M25.7519 3.2627L25.7911 3.40336L-8.67029 13.0013L-8.70947 12.8602L25.7519 3.2627Z" fill="#FFAE82"/>
<path id="_299" fill-rule="evenodd" clip-rule="evenodd" d="M25.7783 3.35645L25.8175 3.49711L-8.64392 13.095L-8.68311 12.9544L25.7783 3.35645Z" fill="#FFAD83"/>
<path id="_300" fill-rule="evenodd" clip-rule="evenodd" d="M25.8038 3.4502L25.843 3.59086L-8.61804 13.1884L-8.65723 13.0477L25.8038 3.4502Z" fill="#FFAB83"/>
<path id="_301" fill-rule="evenodd" clip-rule="evenodd" d="M25.8301 3.54395L25.8692 3.685L-8.59217 13.2825L-8.63135 13.1419L25.8301 3.54395Z" fill="#FFAA84"/>
<path id="_302" fill-rule="evenodd" clip-rule="evenodd" d="M25.8569 3.6377L25.8961 3.77836L-8.56531 13.3763L-8.60449 13.2352L25.8569 3.6377Z" fill="#FFA885"/>
<path id="_303" fill-rule="evenodd" clip-rule="evenodd" d="M25.8829 3.73145L25.9221 3.87211L-8.53894 13.47L-8.57812 13.3294L25.8829 3.73145Z" fill="#FFA785"/>
<path id="_304" fill-rule="evenodd" clip-rule="evenodd" d="M25.9087 3.8252L25.9478 3.96586L-8.51355 13.5638L-8.55273 13.4231L25.9087 3.8252Z" fill="#FFA586"/>
<path id="_305" fill-rule="evenodd" clip-rule="evenodd" d="M25.935 3.91895L25.9742 4.06L-8.48719 13.6575L-8.52637 13.5169L25.935 3.91895Z" fill="#FFA386"/>
<path id="_306" fill-rule="evenodd" clip-rule="evenodd" d="M25.9614 4.01562L26.0006 4.15629L-8.46082 13.7542L-8.5 13.6132L25.9614 4.01562Z" fill="#FFA287"/>
<path id="_307" fill-rule="evenodd" clip-rule="evenodd" d="M25.9869 4.10645L26.0261 4.2475L-8.43494 13.845L-8.47412 13.7044L25.9869 4.10645Z" fill="#FFA088"/>
<path id="_308" fill-rule="evenodd" clip-rule="evenodd" d="M26.0136 4.20215L26.0528 4.34281L-8.40857 13.9407L-8.44775 13.8001L26.0136 4.20215Z" fill="#FF9E88"/>
<path id="_309" fill-rule="evenodd" clip-rule="evenodd" d="M26.04 4.29688L26.0792 4.43793L-8.38221 14.0355L-8.42139 13.8948L26.04 4.29688Z" fill="#FF9D89"/>
<path id="_310" fill-rule="evenodd" clip-rule="evenodd" d="M26.0655 4.38867L26.1047 4.52933L-8.35633 14.1273L-8.39551 13.9866L26.0655 4.38867Z" fill="#FF9B8A"/>
<path id="_311" fill-rule="evenodd" clip-rule="evenodd" d="M26.0918 4.48438L26.131 4.62504L-8.33006 14.2226L-8.36963 14.0819L26.0918 4.48438Z" fill="#FF998B"/>
<path id="_312" fill-rule="evenodd" clip-rule="evenodd" d="M26.1181 4.57812L26.1573 4.71879L-8.30408 14.3167L-8.34326 14.176L26.1181 4.57812Z" fill="#FF988B"/>
<path id="_313" fill-rule="evenodd" clip-rule="evenodd" d="M26.144 4.67188L26.1832 4.81254L-8.2782 14.4105L-8.31738 14.2694L26.144 4.67188Z" fill="#FF968C"/>
<path id="_314" fill-rule="evenodd" clip-rule="evenodd" d="M26.1705 4.76562L26.2097 4.90629L-8.25135 14.5042L-8.29053 14.3635L26.1705 4.76562Z" fill="#FF948D"/>
<path id="_315" fill-rule="evenodd" clip-rule="evenodd" d="M26.1963 4.85938L26.2354 5.00004L-8.22596 14.598L-8.26514 14.4569L26.1963 4.85938Z" fill="#FF938D"/>
<path id="_316" fill-rule="evenodd" clip-rule="evenodd" d="M26.2231 4.95312L26.2623 5.09418L-8.1991 14.6917L-8.23828 14.551L26.2231 4.95312Z" fill="#FF918E"/>
<path id="_317" fill-rule="evenodd" clip-rule="evenodd" d="M26.2486 5.04688L26.2878 5.18754L-8.17322 14.7855L-8.2124 14.6444L26.2486 5.04688Z" fill="#FF8F8F"/>
<path id="_318" fill-rule="evenodd" clip-rule="evenodd" d="M26.2744 5.14062L26.3136 5.28129L-8.14744 14.8792L-8.18701 14.7386L26.2744 5.14062Z" fill="#FF8D90"/>
<path id="_319" fill-rule="evenodd" clip-rule="evenodd" d="M26.3012 5.23438L26.3404 5.37504L-8.12097 14.973L-8.16016 14.8323L26.3012 5.23438Z" fill="#FF8C90"/>
<path id="_320" fill-rule="evenodd" clip-rule="evenodd" d="M26.3267 5.32812L26.3663 5.46918L-8.0951 15.0667L-8.13428 14.926L26.3267 5.32812Z" fill="#FF8A91"/>
<path id="_321" fill-rule="evenodd" clip-rule="evenodd" d="M26.3531 5.42383L26.3923 5.56449L-8.06873 15.1624L-8.10791 15.0214L26.3531 5.42383Z" fill="#FF8892"/>
<path id="_322" fill-rule="evenodd" clip-rule="evenodd" d="M26.3794 5.51562L26.4185 5.65629L-8.04285 15.2538L-8.08203 15.1132L26.3794 5.51562Z" fill="#FF8693"/>
<path id="_323" fill-rule="evenodd" clip-rule="evenodd" d="M26.4057 5.60938L26.4449 5.75004L-8.01648 15.348L-8.05566 15.2073L26.4057 5.60938Z" fill="#FF8593"/>
<path id="_324" fill-rule="evenodd" clip-rule="evenodd" d="M26.4312 5.70508L26.4704 5.84613L-7.9906 15.4437L-8.02979 15.303L26.4312 5.70508Z" fill="#FF8394"/>
<path id="_325" fill-rule="evenodd" clip-rule="evenodd" d="M26.458 5.79883L26.4972 5.93949L-7.96384 15.5374L-8.00342 15.3968L26.458 5.79883Z" fill="#FF8195"/>
<path id="_326" fill-rule="evenodd" clip-rule="evenodd" d="M26.4839 5.89258L26.523 6.03324L-7.93836 15.6312L-7.97754 15.4901L26.4839 5.89258Z" fill="#FF7F96"/>
<path id="_327" fill-rule="evenodd" clip-rule="evenodd" d="M26.5103 5.98633L26.5499 6.12699L-7.9115 15.7249L-7.95068 15.5843L26.5103 5.98633Z" fill="#FF7D96"/>
<path id="_328" fill-rule="evenodd" clip-rule="evenodd" d="M26.5357 6.08008L26.5749 6.22074L-7.88611 15.8187L-7.92529 15.6776L26.5357 6.08008Z" fill="#FF7C97"/>
<path id="_329" fill-rule="evenodd" clip-rule="evenodd" d="M26.563 6.17383L26.6021 6.31449L-7.85926 15.9124L-7.89844 15.7718L26.563 6.17383Z" fill="#FF7A98"/>
<path id="_330" fill-rule="evenodd" clip-rule="evenodd" d="M26.5888 6.26758L26.628 6.40824L-7.83338 16.0062L-7.87256 15.8651L26.5888 6.26758Z" fill="#FF7899"/>
<path id="_331" fill-rule="evenodd" clip-rule="evenodd" d="M26.6148 6.36133L26.654 6.50238L-7.80701 16.0999L-7.84619 15.9593L26.6148 6.36133Z" fill="#FF7699"/>
<path id="_332" fill-rule="evenodd" clip-rule="evenodd" d="M26.6411 6.45508L26.6803 6.59574L-7.78113 16.1937L-7.82031 16.0526L26.6411 6.45508Z" fill="#FF759A"/>
<path id="_333" fill-rule="evenodd" clip-rule="evenodd" d="M26.6675 6.54883L26.7066 6.68988L-7.75476 16.2874L-7.79395 16.1468L26.6675 6.54883Z" fill="#FF739B"/>
<path id="_334" fill-rule="evenodd" clip-rule="evenodd" d="M26.6929 6.64258L26.7321 6.78324L-7.72888 16.3812L-7.76807 16.2405L26.6929 6.64258Z" fill="#FF719C"/>
<path id="_335" fill-rule="evenodd" clip-rule="evenodd" d="M26.7193 6.73633L26.7585 6.87738L-7.70252 16.4749L-7.7417 16.3343L26.7193 6.73633Z" fill="#FF709C"/>
<path id="_336" fill-rule="evenodd" clip-rule="evenodd" d="M26.7451 6.83008L26.7843 6.97074L-7.67713 16.5687L-7.71631 16.4276L26.7451 6.83008Z" fill="#FF6E9D"/>
<path id="_337" fill-rule="evenodd" clip-rule="evenodd" d="M26.7715 6.92383L26.8106 7.06449L-7.65076 16.6624L-7.68994 16.5214L26.7715 6.92383Z" fill="#FF6C9E"/>
<path id="_338" fill-rule="evenodd" clip-rule="evenodd" d="M26.7974 7.01758L26.8366 7.15824L-7.62439 16.7562L-7.66357 16.6155L26.7974 7.01758Z" fill="#FF6A9F"/>
<path id="_339" fill-rule="evenodd" clip-rule="evenodd" d="M26.8237 7.11133L26.8629 7.25238L-7.59851 16.8499L-7.6377 16.7093L26.8237 7.11133Z" fill="#FF69A0"/>
<path id="_340" fill-rule="evenodd" clip-rule="evenodd" d="M26.8506 7.20605L26.8897 7.34672L-7.57166 16.9446L-7.61084 16.804L26.8506 7.20605Z" fill="#FF67A0"/>
<path id="_341" fill-rule="evenodd" clip-rule="evenodd" d="M26.8756 7.29883L26.9147 7.43949L-7.54627 17.0374L-7.58545 16.8964L26.8756 7.29883Z" fill="#FF65A1"/>
<path id="_342" fill-rule="evenodd" clip-rule="evenodd" d="M26.9024 7.39258L26.9416 7.53324L-7.51941 17.1312L-7.55859 16.9905L26.9024 7.39258Z" fill="#FF64A2"/>
<path id="_343" fill-rule="evenodd" clip-rule="evenodd" d="M26.9287 7.4873L26.9679 7.62797L-7.49353 17.2259L-7.53271 17.0848L26.9287 7.4873Z" fill="#FF62A3"/>
<path id="_344" fill-rule="evenodd" clip-rule="evenodd" d="M26.9547 7.58008L26.9942 7.72113L-7.46717 17.3187L-7.50635 17.178L26.9547 7.58008Z" fill="#FF61A3"/>
<path id="_345" fill-rule="evenodd" clip-rule="evenodd" d="M26.98 7.6748L27.0192 7.81547L-7.44178 17.4134L-7.48096 17.2723L26.98 7.6748Z" fill="#FF5FA4"/>
<path id="_346" fill-rule="evenodd" clip-rule="evenodd" d="M27.0068 7.76855L27.046 7.90961L-7.41541 17.5071L-7.45459 17.3665L27.0068 7.76855Z" fill="#FF5DA5"/>
<path id="_347" fill-rule="evenodd" clip-rule="evenodd" d="M27.0332 7.8623L27.0724 8.00297L-7.38904 17.6009L-7.42822 17.4598L27.0332 7.8623Z" fill="#FF5CA6"/>
<path id="_348" fill-rule="evenodd" clip-rule="evenodd" d="M27.0596 7.95605L27.0988 8.09711L-7.36219 17.6946L-7.40137 17.554L27.0596 7.95605Z" fill="#FF5AA6"/>
<path id="_349" fill-rule="evenodd" clip-rule="evenodd" d="M27.0854 8.0498L27.1246 8.19047L-7.3364 17.7884L-7.37598 17.6477L27.0854 8.0498Z" fill="#FF59A7"/>
<path id="_350" fill-rule="evenodd" clip-rule="evenodd" d="M27.1113 8.14355L27.1505 8.28461L-7.31092 17.8821L-7.3501 17.7415L27.1113 8.14355Z" fill="#FF57A8"/>
<path id="_351" fill-rule="evenodd" clip-rule="evenodd" d="M27.1373 8.2373L27.1768 8.37797L-7.28455 17.9759L-7.32373 17.8348L27.1373 8.2373Z" fill="#FF56A9"/>
<path id="_352" fill-rule="evenodd" clip-rule="evenodd" d="M27.1632 8.33203L27.2023 8.47269L-7.25867 18.0706L-7.29785 17.9296L27.1632 8.33203Z" fill="#FF54A9"/>
<path id="_353" fill-rule="evenodd" clip-rule="evenodd" d="M27.1894 8.42578L27.2286 8.56644L-7.23279 18.1644L-7.27197 18.0237L27.1894 8.42578Z" fill="#FF53AA"/>
<path id="_354" fill-rule="evenodd" clip-rule="evenodd" d="M27.2158 8.51855L27.255 8.65961L-7.20642 18.2571L-7.24561 18.1165L27.2158 8.51855Z" fill="#FF51AB"/>
<path id="_355" fill-rule="evenodd" clip-rule="evenodd" d="M27.2413 8.61328L27.2805 8.75434L-7.18054 18.3519L-7.21973 18.2112L27.2413 8.61328Z" fill="#FF50AC"/>
<path id="_356" fill-rule="evenodd" clip-rule="evenodd" d="M27.2685 8.70703L27.3077 8.84769L-7.1533 18.4456L-7.19287 18.3046L27.2685 8.70703Z" fill="#FF4FAC"/>
<path id="_357" fill-rule="evenodd" clip-rule="evenodd" d="M27.2944 8.7998L27.3336 8.94047L-7.12781 18.5384L-7.16699 18.3977L27.2944 8.7998Z" fill="#FF4DAD"/>
<path id="_358" fill-rule="evenodd" clip-rule="evenodd" d="M27.3199 8.89453L27.3595 9.03519L-7.10193 18.6331L-7.14111 18.4921L27.3199 8.89453Z" fill="#FF4CAE"/>
<path id="_359" fill-rule="evenodd" clip-rule="evenodd" d="M27.3463 8.98828L27.3854 9.12934L-7.07556 18.7269L-7.11475 18.5862L27.3463 8.98828Z" fill="#FF4BAE"/>
<path id="_360" fill-rule="evenodd" clip-rule="evenodd" d="M27.3725 9.08203L27.4117 9.22269L-7.04969 18.8206L-7.08887 18.6796L27.3725 9.08203Z" fill="#FF49AF"/>
<path id="_361" fill-rule="evenodd" clip-rule="evenodd" d="M27.3984 9.17578L27.4376 9.31684L-7.02381 18.9144L-7.06299 18.7737L27.3984 9.17578Z" fill="#FF48B0"/>
<path id="_362" fill-rule="evenodd" clip-rule="evenodd" d="M27.4249 9.27051L27.4641 9.41117L-6.99695 19.0091L-7.03613 18.868L27.4249 9.27051Z" fill="#FF47B1"/>
<path id="_363" fill-rule="evenodd" clip-rule="evenodd" d="M27.4511 9.36328L27.4903 9.50434L-6.97107 19.1019L-7.01025 18.9612L27.4511 9.36328Z" fill="#FF46B1"/>
<path id="_364" fill-rule="evenodd" clip-rule="evenodd" d="M27.4775 9.45801L27.5167 9.59867L-6.94471 19.1966L-6.98389 19.0559L27.4775 9.45801Z" fill="#FF45B2"/>
<path id="_365" fill-rule="evenodd" clip-rule="evenodd" d="M27.503 9.55176L27.5426 9.69281L-6.91883 19.2903L-6.95801 19.1497L27.503 9.55176Z" fill="#FF44B3"/>
<path id="_366" fill-rule="evenodd" clip-rule="evenodd" d="M27.5299 9.64453L27.569 9.78519L-6.89197 19.3831L-6.93115 19.2425L27.5299 9.64453Z" fill="#FF42B3"/>
<path id="_367" fill-rule="evenodd" clip-rule="evenodd" d="M27.5561 9.73828L27.5953 9.87894L-6.86609 19.4769L-6.90527 19.3358L27.5561 9.73828Z" fill="#FF41B4"/>
<path id="_368" fill-rule="evenodd" clip-rule="evenodd" d="M27.582 9.83203L27.6212 9.97269L-6.84021 19.5706L-6.87939 19.43L27.582 9.83203Z" fill="#FF40B5"/>
<path id="_369" fill-rule="evenodd" clip-rule="evenodd" d="M27.608 9.92676L27.6472 10.0674L-6.81385 19.6653L-6.85303 19.5243L27.608 9.92676Z" fill="#FF3FB5"/>
<path id="_370" fill-rule="evenodd" clip-rule="evenodd" d="M27.6343 10.0205L27.6734 10.1616L-6.78797 19.7591L-6.82715 19.6184L27.6343 10.0205Z" fill="#FF3EB6"/>
<path id="_371" fill-rule="evenodd" clip-rule="evenodd" d="M27.6601 10.1162L27.6993 10.2569L-6.76209 19.8548L-6.80127 19.7137L27.6601 10.1162Z" fill="#FF3EB6"/>
<path id="_372" fill-rule="evenodd" clip-rule="evenodd" d="M27.6861 10.208L27.7257 10.3487L-6.73572 19.9466L-6.7749 19.8059L27.6861 10.208Z" fill="#FF3DB7"/>
<path id="_373" fill-rule="evenodd" clip-rule="evenodd" d="M27.7124 10.3008L27.7516 10.4414L-6.70945 20.0394L-6.74902 19.8987L27.7124 10.3008Z" fill="#FF3CB8"/>
<path id="_374" fill-rule="evenodd" clip-rule="evenodd" d="M27.7383 10.3975L27.7774 10.5385L-6.68396 20.136L-6.72314 19.9954L27.7383 10.3975Z" fill="#FF3BB8"/>
<path id="_375" fill-rule="evenodd" clip-rule="evenodd" d="M27.7651 10.4912L27.8043 10.6319L-6.65711 20.2298L-6.69629 20.0887L27.7651 10.4912Z" fill="#FF3AB9"/>
<path id="_376" fill-rule="evenodd" clip-rule="evenodd" d="M27.7906 10.585L27.8298 10.726L-6.63123 20.3235L-6.67041 20.1829L27.7906 10.585Z" fill="#FF3AB9"/>
<path id="_377" fill-rule="evenodd" clip-rule="evenodd" d="M27.8164 10.6787L27.8556 10.8194L-6.60584 20.4173L-6.64502 20.2766L27.8164 10.6787Z" fill="#FF39BA"/>
<path id="_378" fill-rule="evenodd" clip-rule="evenodd" d="M27.8432 10.7725L27.8824 10.9135L-6.57898 20.511L-6.61816 20.3704L27.8432 10.7725Z" fill="#FF38BB"/>
<path id="_379" fill-rule="evenodd" clip-rule="evenodd" d="M27.8691 10.8662L27.9083 11.0069L-6.5531 20.6048L-6.59229 20.4641L27.8691 10.8662Z" fill="#FF38BB"/>
<path id="_380" fill-rule="evenodd" clip-rule="evenodd" d="M27.8955 10.9609L27.9347 11.1016L-6.52634 20.6991L-6.56592 20.5585L27.8955 10.9609Z" fill="#FF37BC"/>
<path id="_381" fill-rule="evenodd" clip-rule="evenodd" d="M27.9214 11.0547L27.9605 11.1953L-6.50086 20.7933L-6.54004 20.6526L27.9214 11.0547Z" fill="#FF37BC"/>
<path id="_382" fill-rule="evenodd" clip-rule="evenodd" d="M27.9477 11.1475L27.9869 11.2881L-6.47449 20.886L-6.51367 20.745L27.9477 11.1475Z" fill="#FF36BD"/>
<path id="_383" fill-rule="evenodd" clip-rule="evenodd" d="M27.9742 11.2422L28.0134 11.3828L-6.44763 20.9808L-6.48682 20.8401L27.9742 11.2422Z" fill="#FF36BD"/>
<path id="_384" fill-rule="evenodd" clip-rule="evenodd" d="M28.0005 11.334L28.0396 11.4746L-6.42176 21.0726L-6.46094 20.9315L28.0005 11.334Z" fill="#FF35BE"/>
<path id="_385" fill-rule="evenodd" clip-rule="evenodd" d="M28.0263 11.4277L28.0655 11.5688L-6.39588 21.1663L-6.43506 21.0257L28.0263 11.4277Z" fill="#FF35BE"/>
<path id="_386" fill-rule="evenodd" clip-rule="evenodd" d="M28.0522 11.5225L28.0914 11.6631L-6.37 21.261L-6.40918 21.12L28.0522 11.5225Z" fill="#FF35BF"/>
<path id="_387" fill-rule="evenodd" clip-rule="evenodd" d="M28.0786 11.6172L28.1178 11.7582L-6.34324 21.3558L-6.38281 21.2151L28.0786 11.6172Z" fill="#FF34BF"/>
<path id="_388" fill-rule="evenodd" clip-rule="evenodd" d="M28.105 11.7109L28.1441 11.8516L-6.31726 21.4495L-6.35645 21.3089L28.105 11.7109Z" fill="#FF34C0"/>
<path id="_389" fill-rule="evenodd" clip-rule="evenodd" d="M28.1308 11.8037L28.17 11.9448L-6.29138 21.5423L-6.33057 21.4016L28.1308 11.8037Z" fill="#FF34C0"/>
<path id="_390" fill-rule="evenodd" clip-rule="evenodd" d="M28.1568 11.8984L28.1964 12.0391L-6.26502 21.637L-6.3042 21.4964L28.1568 11.8984Z" fill="#FF34C1"/>
<path id="_391" fill-rule="evenodd" clip-rule="evenodd" d="M28.1826 11.9922L28.2218 12.1329L-6.23963 21.7304L-6.27881 21.5897L28.1826 11.9922Z" fill="#FF34C1"/>
<path id="_392" fill-rule="evenodd" clip-rule="evenodd" d="M28.2099 12.0859L28.2491 12.2266L-6.21228 21.8245L-6.25146 21.6839L28.2099 12.0859Z" fill="#FF34C1"/>
<path id="_393" fill-rule="evenodd" clip-rule="evenodd" d="M28.2353 12.1797L28.2745 12.3207L-6.18689 21.9187L-6.22607 21.7776L28.2353 12.1797Z" fill="#FF34C2"/>
<path id="_394" fill-rule="evenodd" clip-rule="evenodd" d="M28.2618 12.2734L28.301 12.4141L-6.16004 22.012L-6.19922 21.8714L28.2618 12.2734Z" fill="#FF34C2"/>
<path id="_395" fill-rule="evenodd" clip-rule="evenodd" d="M28.2876 12.3672L28.3267 12.5078L-6.13465 22.1054L-6.17383 21.9647L28.2876 12.3672Z" fill="#FF34C3"/>
<path id="_396" fill-rule="evenodd" clip-rule="evenodd" d="M28.3139 12.4609L28.3531 12.6016L-6.10828 22.1995L-6.14746 22.0589L28.3139 12.4609Z" fill="#FE34C3"/>
<path id="_397" fill-rule="evenodd" clip-rule="evenodd" d="M28.3399 12.5547L28.3795 12.6953L-6.08191 22.2933L-6.12109 22.1522L28.3399 12.5547Z" fill="#FE34C4"/>
<path id="_398" fill-rule="evenodd" clip-rule="evenodd" d="M28.3662 12.6484L28.4054 12.7891L-6.05603 22.387L-6.09521 22.2464L28.3662 12.6484Z" fill="#FE34C4"/>
<path id="_399" fill-rule="evenodd" clip-rule="evenodd" d="M28.3926 12.7422L28.4317 12.8828L-6.02967 22.4808L-6.06885 22.3397L28.3926 12.7422Z" fill="#FD34C5"/>
<path id="_400" fill-rule="evenodd" clip-rule="evenodd" d="M28.4184 12.8359L28.4576 12.977L-6.00379 22.5745L-6.04297 22.4339L28.4184 12.8359Z" fill="#FD34C5"/>
<path id="_401" fill-rule="evenodd" clip-rule="evenodd" d="M28.4444 12.9297L28.4836 13.0703L-5.97742 22.6683L-6.0166 22.5272L28.4444 12.9297Z" fill="#FC34C5"/>
<path id="_402" fill-rule="evenodd" clip-rule="evenodd" d="M28.4707 13.0234L28.5099 13.1645L-5.95154 22.762L-5.99072 22.6214L28.4707 13.0234Z" fill="#FC35C6"/>
<path id="_403" fill-rule="evenodd" clip-rule="evenodd" d="M28.497 13.1191L28.5362 13.2598L-5.92517 22.8577L-5.96436 22.7171L28.497 13.1191Z" fill="#FB35C6"/>
<path id="_404" fill-rule="evenodd" clip-rule="evenodd" d="M28.5225 13.2129L28.5621 13.3539L-5.89929 22.9515L-5.93848 22.8108L28.5225 13.2129Z" fill="#FA35C7"/>
<path id="_405" fill-rule="evenodd" clip-rule="evenodd" d="M28.5488 13.3047L28.588 13.4454L-5.87302 23.0433L-5.9126 22.9026L28.5488 13.3047Z" fill="#FA35C7"/>
<path id="_406" fill-rule="evenodd" clip-rule="evenodd" d="M28.5752 13.3984L28.6143 13.5391L-5.84705 23.1366L-5.88623 22.996L28.5752 13.3984Z" fill="#F935C8"/>
<path id="_407" fill-rule="evenodd" clip-rule="evenodd" d="M28.601 13.4922L28.6402 13.6328L-5.82117 23.2308L-5.86035 23.0901L28.601 13.4922Z" fill="#F835C8"/>
<path id="_408" fill-rule="evenodd" clip-rule="evenodd" d="M28.6275 13.5879L28.6667 13.7286L-5.79431 23.3265L-5.8335 23.1854L28.6275 13.5879Z" fill="#F735C8"/>
<path id="_409" fill-rule="evenodd" clip-rule="evenodd" d="M28.6533 13.6797L28.6925 13.8203L-5.76892 23.4183L-5.80811 23.2776L28.6533 13.6797Z" fill="#F635C9"/>
<path id="_410" fill-rule="evenodd" clip-rule="evenodd" d="M28.6792 13.7764L28.7184 13.917L-5.74304 23.515L-5.78223 23.3739L28.6792 13.7764Z" fill="#F535C9"/>
<path id="_411" fill-rule="evenodd" clip-rule="evenodd" d="M28.7056 13.8691L28.7452 14.0102L-5.71619 23.6077L-5.75537 23.4671L28.7056 13.8691Z" fill="#F436CA"/>
<path id="_412" fill-rule="evenodd" clip-rule="evenodd" d="M28.7324 13.9629L28.7716 14.1036L-5.68943 23.7015L-5.729 23.5604L28.7324 13.9629Z" fill="#F336CA"/>
<path id="_413" fill-rule="evenodd" clip-rule="evenodd" d="M28.7578 14.0576L28.797 14.1987L-5.66443 23.7962L-5.70361 23.6555L28.7578 14.0576Z" fill="#F236CA"/>
<path id="_414" fill-rule="evenodd" clip-rule="evenodd" d="M28.7846 14.1504L28.8238 14.2911L-5.63758 23.889L-5.67676 23.7483L28.7846 14.1504Z" fill="#F136CB"/>
<path id="_415" fill-rule="evenodd" clip-rule="evenodd" d="M28.8101 14.2441L28.8493 14.3852L-5.6117 23.9827L-5.65088 23.8421L28.8101 14.2441Z" fill="#F036CB"/>
<path id="_416" fill-rule="evenodd" clip-rule="evenodd" d="M28.8364 14.3379L28.8756 14.4786L-5.58582 24.0765L-5.625 23.9354L28.8364 14.3379Z" fill="#EF36CC"/>
<path id="_417" fill-rule="evenodd" clip-rule="evenodd" d="M28.8628 14.4326L28.9019 14.5733L-5.55945 24.1712L-5.59863 24.0302L28.8628 14.4326Z" fill="#EE37CC"/>
<path id="_418" fill-rule="evenodd" clip-rule="evenodd" d="M28.8892 14.5264L28.9284 14.667L-5.5326 24.265L-5.57178 24.1243L28.8892 14.5264Z" fill="#EC37CC"/>
<path id="_419" fill-rule="evenodd" clip-rule="evenodd" d="M28.9146 14.6191L28.9538 14.7602L-5.50721 24.3577L-5.54639 24.2171L28.9146 14.6191Z" fill="#EB37CD"/>
<path id="_420" fill-rule="evenodd" clip-rule="evenodd" d="M28.9409 14.7139L28.9801 14.8545L-5.48133 24.4525L-5.52051 24.3118L28.9409 14.7139Z" fill="#EA37CD"/>
<path id="_421" fill-rule="evenodd" clip-rule="evenodd" d="M28.9677 14.8076L29.0069 14.9483L-5.45447 24.5462L-5.49365 24.4051L28.9677 14.8076Z" fill="#E837CE"/>
<path id="_422" fill-rule="evenodd" clip-rule="evenodd" d="M28.9932 14.9014L29.0324 15.042L-5.42859 24.64L-5.46777 24.4993L28.9932 14.9014Z" fill="#E738CE"/>
<path id="_423" fill-rule="evenodd" clip-rule="evenodd" d="M29.0195 14.9951L29.0587 15.1358L-5.40271 24.7337L-5.44189 24.5927L29.0195 14.9951Z" fill="#E638CE"/>
<path id="_424" fill-rule="evenodd" clip-rule="evenodd" d="M29.0459 15.0889L29.0851 15.2299L-5.37635 24.8275L-5.41553 24.6868L29.0459 15.0889Z" fill="#E438CF"/>
<path id="_425" fill-rule="evenodd" clip-rule="evenodd" d="M29.0718 15.1826L29.111 15.3233L-5.34998 24.9212L-5.38916 24.7802L29.0718 15.1826Z" fill="#E338CF"/>
<path id="_426" fill-rule="evenodd" clip-rule="evenodd" d="M29.0972 15.2764L29.1364 15.4174L-5.32459 25.015L-5.36377 24.8743L29.0972 15.2764Z" fill="#E138D0"/>
<path id="_427" fill-rule="evenodd" clip-rule="evenodd" d="M29.1245 15.3711L29.1637 15.5118L-5.29773 25.1097L-5.33691 24.9686L29.1245 15.3711Z" fill="#E039D0"/>
<path id="_428" fill-rule="evenodd" clip-rule="evenodd" d="M29.15 15.4639L29.1895 15.6049L-5.27185 25.2025L-5.31104 25.0618L29.15 15.4639Z" fill="#DE39D0"/>
<path id="_429" fill-rule="evenodd" clip-rule="evenodd" d="M29.1768 15.5586L29.216 15.6993L-5.245 25.2972L-5.28418 25.1565L29.1768 15.5586Z" fill="#DD39D1"/>
<path id="_430" fill-rule="evenodd" clip-rule="evenodd" d="M29.2026 15.6523L29.2418 15.7934L-5.21961 25.3909L-5.25879 25.2503L29.2026 15.6523Z" fill="#DB39D1"/>
<path id="_431" fill-rule="evenodd" clip-rule="evenodd" d="M29.2285 15.7461L29.2677 15.8868L-5.19373 25.4847L-5.23291 25.3436L29.2285 15.7461Z" fill="#DA3AD1"/>
<path id="_432" fill-rule="evenodd" clip-rule="evenodd" d="M29.255 15.8398L29.2941 15.9805L-5.16687 25.5784L-5.20605 25.4374L29.255 15.8398Z" fill="#D83AD2"/>
<path id="_433" fill-rule="evenodd" clip-rule="evenodd" d="M29.2807 15.9336L29.3199 16.0743L-5.14109 25.6722L-5.18066 25.5315L29.2807 15.9336Z" fill="#D63AD2"/>
<path id="_434" fill-rule="evenodd" clip-rule="evenodd" d="M29.3076 16.0273L29.3468 16.1684L-5.11463 25.7659L-5.15381 25.6253L29.3076 16.0273Z" fill="#D53AD2"/>
<path id="_435" fill-rule="evenodd" clip-rule="evenodd" d="M29.3331 16.1211L29.3726 16.2621L-5.08875 25.8597L-5.12793 25.719L29.3331 16.1211Z" fill="#D33BD3"/>
<path id="_436" fill-rule="evenodd" clip-rule="evenodd" d="M29.359 16.2148L29.3981 16.3555L-5.06287 25.9534L-5.10205 25.8124L29.359 16.2148Z" fill="#D13BD3"/>
<path id="_437" fill-rule="evenodd" clip-rule="evenodd" d="M29.3857 16.3086L29.4249 16.4493L-5.0365 26.0472L-5.07568 25.9065L29.3857 16.3086Z" fill="#D03BD3"/>
<path id="_438" fill-rule="evenodd" clip-rule="evenodd" d="M29.4116 16.4023L29.4508 16.543L-5.01062 26.1409L-5.0498 25.9999L29.4116 16.4023Z" fill="#CE3BD4"/>
<path id="_439" fill-rule="evenodd" clip-rule="evenodd" d="M29.4371 16.4961L29.4763 16.6371L-4.98474 26.2347L-5.02393 26.094L29.4371 16.4961Z" fill="#CC3CD4"/>
<path id="_440" fill-rule="evenodd" clip-rule="evenodd" d="M29.4638 16.5898L29.503 16.7305L-4.95799 26.3284L-4.99756 26.1874L29.4638 16.5898Z" fill="#CA3CD4"/>
<path id="_441" fill-rule="evenodd" clip-rule="evenodd" d="M29.4902 16.6836L29.5294 16.8246L-4.93201 26.4222L-4.97119 26.2815L29.4902 16.6836Z" fill="#C93CD5"/>
<path id="_442" fill-rule="evenodd" clip-rule="evenodd" d="M29.5167 16.7773L29.5559 16.918L-4.90515 26.5159L-4.94434 26.3749L29.5167 16.7773Z" fill="#C73DD5"/>
<path id="_443" fill-rule="evenodd" clip-rule="evenodd" d="M29.5421 16.8711L29.5812 17.0121L-4.87976 26.6097L-4.91895 26.469L29.5421 16.8711Z" fill="#C53DD5"/>
<path id="_444" fill-rule="evenodd" clip-rule="evenodd" d="M29.5683 16.9648L29.6075 17.1055L-4.85388 26.7034L-4.89307 26.5628L29.5683 16.9648Z" fill="#C33DD6"/>
<path id="_445" fill-rule="evenodd" clip-rule="evenodd" d="M29.5952 17.0586L29.6344 17.1996L-4.82703 26.7972L-4.86621 26.6565L29.5952 17.0586Z" fill="#C13DD6"/>
<path id="_446" fill-rule="evenodd" clip-rule="evenodd" d="M29.6202 17.1523L29.6594 17.293L-4.80164 26.8909L-4.84082 26.7503L29.6202 17.1523Z" fill="#C03ED6"/>
<path id="_447" fill-rule="evenodd" clip-rule="evenodd" d="M29.6474 17.248L29.6866 17.3887L-4.77478 26.9866L-4.81396 26.8456L29.6474 17.248Z" fill="#BE3ED7"/>
<path id="_448" fill-rule="evenodd" clip-rule="evenodd" d="M29.6728 17.3418L29.712 17.4825L-4.74939 27.0804L-4.78857 26.9397L29.6728 17.3418Z" fill="#BC3ED7"/>
<path id="_449" fill-rule="evenodd" clip-rule="evenodd" d="M29.6993 17.4355L29.7385 17.5766L-4.72254 27.1741L-4.76172 27.0335L29.6993 17.4355Z" fill="#BA3ED7"/>
<path id="_450" fill-rule="evenodd" clip-rule="evenodd" d="M29.7252 17.5293L29.7643 17.6704L-4.69666 27.2679L-4.73584 27.1272L29.7252 17.5293Z" fill="#B83FD8"/>
<path id="_451" fill-rule="evenodd" clip-rule="evenodd" d="M29.7519 17.623L29.7911 17.7637L-4.67029 27.3616L-4.70947 27.2206L29.7519 17.623Z" fill="#B73FD8"/>
<path id="_452" fill-rule="evenodd" clip-rule="evenodd" d="M29.7769 17.7158L29.8165 17.8565L-4.6449 27.4544L-4.68408 27.3137L29.7769 17.7158Z" fill="#B53FD8"/>
<path id="_453" fill-rule="evenodd" clip-rule="evenodd" d="M29.8038 17.8105L29.843 17.9512L-4.61804 27.5491L-4.65723 27.4081L29.8038 17.8105Z" fill="#B340D8"/>
<path id="_454" fill-rule="evenodd" clip-rule="evenodd" d="M29.8296 17.9033L29.8687 18.0444L-4.59265 27.6419L-4.63184 27.5012L29.8296 17.9033Z" fill="#B140D9"/>
<path id="_455" fill-rule="evenodd" clip-rule="evenodd" d="M29.8564 17.9971L29.8956 18.1377L-4.5658 27.7357L-4.60498 27.5946L29.8564 17.9971Z" fill="#AF40D9"/>
<path id="_456" fill-rule="evenodd" clip-rule="evenodd" d="M29.8819 18.0918L29.9211 18.2329L-4.53992 27.8304L-4.5791 27.6897L29.8819 18.0918Z" fill="#AE40D9"/>
<path id="_457" fill-rule="evenodd" clip-rule="evenodd" d="M29.9077 18.1846L29.9469 18.3252L-4.51414 27.9232L-4.55371 27.7825L29.9077 18.1846Z" fill="#AC41D9"/>
<path id="_458" fill-rule="evenodd" clip-rule="evenodd" d="M29.9345 18.2783L29.9737 18.4194L-4.48767 28.0169L-4.52686 27.8762L29.9345 18.2783Z" fill="#AA41DA"/>
<path id="_459" fill-rule="evenodd" clip-rule="evenodd" d="M29.96 18.3721L29.9996 18.5127L-4.46179 28.1107L-4.50098 27.97L29.96 18.3721Z" fill="#A841DA"/>
<path id="_460" fill-rule="evenodd" clip-rule="evenodd" d="M29.9869 18.4658L30.0261 18.6065L-4.43494 28.204L-4.47412 28.0634L29.9869 18.4658Z" fill="#A641DA"/>
<path id="_461" fill-rule="evenodd" clip-rule="evenodd" d="M30.0127 18.5596L30.0518 18.7002L-4.40955 28.2982L-4.44873 28.1575L30.0127 18.5596Z" fill="#A542DA"/>
<path id="_462" fill-rule="evenodd" clip-rule="evenodd" d="M30.0385 18.6533L30.0777 18.794L-4.38367 28.3919L-4.42285 28.2509L30.0385 18.6533Z" fill="#A342DB"/>
<path id="_463" fill-rule="evenodd" clip-rule="evenodd" d="M30.0645 18.75L30.1037 18.8907L-4.3573 28.4886L-4.39648 28.3479L30.0645 18.75Z" fill="#A142DB"/>
<path id="_464" fill-rule="evenodd" clip-rule="evenodd" d="M30.0913 18.8438L30.1305 18.9844L-4.33054 28.5819L-4.37012 28.4413L30.0913 18.8438Z" fill="#9F43DB"/>
<path id="_465" fill-rule="evenodd" clip-rule="evenodd" d="M30.1172 18.9346L30.1563 19.0756L-4.30506 28.6732L-4.34424 28.5325L30.1172 18.9346Z" fill="#9E43DB"/>
<path id="_466" fill-rule="evenodd" clip-rule="evenodd" d="M30.1436 19.0312L30.1832 19.1719L-4.2782 28.7698L-4.31738 28.6288L30.1436 19.0312Z" fill="#9C43DC"/>
<path id="_467" fill-rule="evenodd" clip-rule="evenodd" d="M30.1695 19.125L30.2087 19.2657L-4.25232 28.8636L-4.2915 28.7229L30.1695 19.125Z" fill="#9A43DC"/>
<path id="_468" fill-rule="evenodd" clip-rule="evenodd" d="M30.1958 19.2188L30.235 19.3594L-4.22644 28.9573L-4.26562 28.8167L30.1958 19.2188Z" fill="#9944DC"/>
<path id="_469" fill-rule="evenodd" clip-rule="evenodd" d="M30.2221 19.3125L30.2613 19.4536L-4.20008 29.0511L-4.23926 28.9104L30.2221 19.3125Z" fill="#9744DC"/>
<path id="_470" fill-rule="evenodd" clip-rule="evenodd" d="M30.2481 19.4062L30.2873 19.5469L-4.17371 29.1448L-4.21289 29.0038L30.2481 19.4062Z" fill="#9544DD"/>
<path id="_471" fill-rule="evenodd" clip-rule="evenodd" d="M30.2744 19.5L30.3136 19.6407L-4.14783 29.2382L-4.18701 29.0975L30.2744 19.5Z" fill="#9444DD"/>
<path id="_472" fill-rule="evenodd" clip-rule="evenodd" d="M30.3003 19.5938L30.3394 19.7344L-4.12195 29.3323L-4.16113 29.1917L30.3003 19.5938Z" fill="#9245DD"/>
<path id="_473" fill-rule="evenodd" clip-rule="evenodd" d="M30.3266 19.6875L30.3658 19.8286L-4.09558 29.4261L-4.13477 29.2854L30.3266 19.6875Z" fill="#9045DD"/>
<path id="_474" fill-rule="evenodd" clip-rule="evenodd" d="M30.3526 19.7812L30.3918 19.9219L-4.06922 29.5198L-4.1084 29.3792L30.3526 19.7812Z" fill="#8F45DD"/>
<path id="_475" fill-rule="evenodd" clip-rule="evenodd" d="M30.3784 19.875L30.4176 20.0157L-4.04383 29.6132L-4.08301 29.4725L30.3784 19.875Z" fill="#8D45DE"/>
<path id="_476" fill-rule="evenodd" clip-rule="evenodd" d="M30.4052 19.9688L30.4444 20.1094L-4.01697 29.7073L-4.05615 29.5667L30.4052 19.9688Z" fill="#8C45DE"/>
<path id="_477" fill-rule="evenodd" clip-rule="evenodd" d="M30.4302 20.0625L30.4694 20.2032L-3.99158 29.8011L-4.03076 29.66L30.4302 20.0625Z" fill="#8A46DE"/>
<path id="_478" fill-rule="evenodd" clip-rule="evenodd" d="M30.457 20.1562L30.4962 20.2969L-3.96521 29.8948L-4.00439 29.7542L30.457 20.1562Z" fill="#8946DE"/>
<path id="_479" fill-rule="evenodd" clip-rule="evenodd" d="M30.4834 20.251L30.5226 20.3916L-3.93885 29.9896L-3.97803 29.8485L30.4834 20.251Z" fill="#8746DE"/>
<path id="_480" fill-rule="evenodd" clip-rule="evenodd" d="M30.5093 20.3438L30.5484 20.4848L-3.91297 30.0823L-3.95215 29.9417L30.5093 20.3438Z" fill="#8646DE"/>
<path id="_481" fill-rule="evenodd" clip-rule="evenodd" d="M30.5351 20.4375L30.5743 20.5782L-3.8867 30.1761L-3.92627 30.035L30.5351 20.4375Z" fill="#8547DF"/>
<path id="_482" fill-rule="evenodd" clip-rule="evenodd" d="M30.5615 20.5322L30.6007 20.6729L-3.86072 30.2708L-3.8999 30.1301L30.5615 20.5322Z" fill="#8347DF"/>
<path id="_483" fill-rule="evenodd" clip-rule="evenodd" d="M30.5879 20.625L30.627 20.7657L-3.83435 30.3636L-3.87354 30.2229L30.5879 20.625Z" fill="#8247DF"/>
<path id="_484" fill-rule="evenodd" clip-rule="evenodd" d="M30.6138 20.7188L30.6534 20.8598L-3.80799 30.4573L-3.84717 30.3167L30.6138 20.7188Z" fill="#8147DF"/>
<path id="_485" fill-rule="evenodd" clip-rule="evenodd" d="M30.6401 20.8145L30.6793 20.9551L-3.78211 30.553L-3.82129 30.4124L30.6401 20.8145Z" fill="#8047DF"/>
<path id="_486" fill-rule="evenodd" clip-rule="evenodd" d="M30.667 20.9082L30.7061 21.0489L-3.75525 30.6464L-3.79443 30.5057L30.667 20.9082Z" fill="#7E48DF"/>
<path id="_487" fill-rule="evenodd" clip-rule="evenodd" d="M30.6928 21.001L30.732 21.1416L-3.72937 30.7396L-3.76855 30.5989L30.6928 21.001Z" fill="#7D48DF"/>
<path id="_488" fill-rule="evenodd" clip-rule="evenodd" d="M30.7183 21.0947L30.7575 21.2358L-3.70349 30.8333L-3.74268 30.6926L30.7183 21.0947Z" fill="#7C48E0"/>
<path id="_489" fill-rule="evenodd" clip-rule="evenodd" d="M30.7451 21.1895L30.7843 21.3301L-3.67713 30.928L-3.71631 30.7874L30.7451 21.1895Z" fill="#7B48E0"/>
<path id="_490" fill-rule="evenodd" clip-rule="evenodd" d="M30.7715 21.2832L30.8106 21.4239L-3.65076 31.0218L-3.68994 30.8807L30.7715 21.2832Z" fill="#7A48E0"/>
<path id="_491" fill-rule="evenodd" clip-rule="evenodd" d="M30.7965 21.3779L30.836 21.5186L-3.62537 31.1165L-3.66455 30.9759L30.7965 21.3779Z" fill="#7948E0"/>
<path id="_492" fill-rule="evenodd" clip-rule="evenodd" d="M30.8232 21.4717L30.8624 21.6123L-3.599 31.2103L-3.63818 31.0692L30.8232 21.4717Z" fill="#7849E0"/>
<path id="_493" fill-rule="evenodd" clip-rule="evenodd" d="M30.8496 21.5645L30.8888 21.7051L-3.57263 31.303L-3.61182 31.1624L30.8496 21.5645Z" fill="#7749E0"/>
<path id="_494" fill-rule="evenodd" clip-rule="evenodd" d="M30.875 21.6592L30.9142 21.7998L-3.54724 31.3978L-3.58643 31.2567L30.875 21.6592Z" fill="#7649E0"/>
<path id="_495" fill-rule="evenodd" clip-rule="evenodd" d="M30.9014 21.7529L30.9406 21.894L-3.52039 31.4915L-3.55957 31.3509L30.9014 21.7529Z" fill="#7549E0"/>
<path id="_496" fill-rule="evenodd" clip-rule="evenodd" d="M30.9277 21.8447L30.9669 21.9854L-3.49451 31.5833L-3.53369 31.4423L30.9277 21.8447Z" fill="#7449E0"/>
<path id="_497" fill-rule="evenodd" clip-rule="evenodd" d="M30.9541 21.9395L30.9933 22.0805L-3.46814 31.678L-3.50732 31.5374L30.9541 21.9395Z" fill="#7349E0"/>
<path id="_498" fill-rule="evenodd" clip-rule="evenodd" d="M30.98 22.0342L31.0191 22.1748L-3.44226 31.7728L-3.48145 31.6321L30.98 22.0342Z" fill="#7349E1"/>
<path id="_499" fill-rule="evenodd" clip-rule="evenodd" d="M31.0058 22.126L31.045 22.267L-3.41599 31.8646L-3.45557 31.7239L31.0058 22.126Z" fill="#7249E1"/>
<path id="_500" fill-rule="evenodd" clip-rule="evenodd" d="M31.0327 22.2217L31.0719 22.3623L-3.38953 31.9603L-3.42871 31.8196L31.0327 22.2217Z" fill="#7149E1"/>
<path id="_501" fill-rule="evenodd" clip-rule="evenodd" d="M31.0586 22.3164L31.0977 22.4571L-3.36365 32.055L-3.40283 31.9139L31.0586 22.3164Z" fill="#714AE1"/>
<path id="_502" fill-rule="evenodd" clip-rule="evenodd" d="M31.0845 22.4092L31.1237 22.5498L-3.33728 32.1478L-3.37646 32.0071L31.0845 22.4092Z" fill="#704AE1"/>
<path id="_503" fill-rule="evenodd" clip-rule="evenodd" d="M31.1108 22.5039L31.15 22.6446L-3.3114 32.2425L-3.35059 32.1014L31.1108 22.5039Z" fill="#704AE1"/>
<path id="_504" fill-rule="evenodd" clip-rule="evenodd" d="M31.1367 22.5977L31.1759 22.7387L-3.28553 32.3362L-3.32471 32.1956L31.1367 22.5977Z" fill="#6F4AE1"/>
<path id="_505" fill-rule="evenodd" clip-rule="evenodd" d="M31.1635 22.6914L31.2027 22.8321L-3.25867 32.43L-3.29785 32.2889L31.1635 22.6914Z" fill="#6F4AE1"/>
<path id="_506" fill-rule="evenodd" clip-rule="evenodd" d="M31.1894 22.7852L31.2286 22.9258L-3.2324 32.5237L-3.27197 32.3831L31.1894 22.7852Z" fill="#6F4AE1"/>
<path id="_507" fill-rule="evenodd" clip-rule="evenodd" d="M31.2148 22.8789L31.254 23.0196L-3.2074 32.6175L-3.24658 32.4764L31.2148 22.8789Z" fill="#6E4AE1"/>
<path id="_508" fill-rule="evenodd" clip-rule="evenodd" d="M31.2417 22.9727L31.2809 23.1137L-3.18054 32.7112L-3.21973 32.5706L31.2417 22.9727Z" fill="#6E4AE1"/>
<path id="_509" fill-rule="evenodd" clip-rule="evenodd" d="M31.2672 23.0664L31.3063 23.2071L-3.15467 32.805L-3.19385 32.6643L31.2672 23.0664Z" fill="#6E4AE1"/>
<path id="_510" fill-rule="evenodd" clip-rule="evenodd" d="M31.2944 23.1602L31.3336 23.3012L-3.12781 32.8987L-3.16699 32.7581L31.2944 23.1602Z" fill="#6E4AE1"/>
<path id="_511" fill-rule="evenodd" clip-rule="evenodd" d="M31.3198 23.2539L33.1139 29.6965L-1.34708 39.2945L-3.1416 32.8514L31.3198 23.2539Z" fill="#6E4AE1"/>
</g>
</g>
</g>
</g>
</g>
</g>
</g>
</g>
</g>
<defs>
<clipPath id="clip0_845_38764">
<rect width="118.051" height="32" fill="white"/>
</clipPath>
</defs>
</svg>
