<svg width="20" height="20" viewBox="0 0 20 20" fill="none" xmlns="http://www.w3.org/2000/svg">
<g id="chart-bar">
<g id="vuesax/bold/chart">
<g id="chart">
<path id="Vector" d="M17.5 18.959H2.5C2.15833 18.959 1.875 18.6757 1.875 18.334C1.875 17.9923 2.15833 17.709 2.5 17.709H17.5C17.8417 17.709 18.125 17.9923 18.125 18.334C18.125 18.6757 17.8417 18.959 17.5 18.959Z" fill="#7E56DA"/>
<path id="Vector_2" d="M4.66667 6.98438H3.33333C2.875 6.98438 2.5 7.35938 2.5 7.81771V15.001C2.5 15.4594 2.875 15.8344 3.33333 15.8344H4.66667C5.125 15.8344 5.5 15.4594 5.5 15.001V7.81771C5.5 7.35104 5.125 6.98438 4.66667 6.98438Z" fill="#7E56DA"/>
<path id="Vector_3" d="M10.6667 4.32422H9.33333C8.875 4.32422 8.5 4.69922 8.5 5.15755V14.9992C8.5 15.4576 8.875 15.8326 9.33333 15.8326H10.6667C11.125 15.8326 11.5 15.4576 11.5 14.9992V5.15755C11.5 4.69922 11.125 4.32422 10.6667 4.32422Z" fill="#7E56DA"/>
<path id="Vector_4" d="M16.6667 1.66602H15.3333C14.875 1.66602 14.5 2.04102 14.5 2.49935V14.9993C14.5 15.4577 14.875 15.8327 15.3333 15.8327H16.6667C17.125 15.8327 17.5 15.4577 17.5 14.9993V2.49935C17.5 2.04102 17.125 1.66602 16.6667 1.66602Z" fill="#7E56DA"/>
</g>
</g>
</g>
</svg>
