<svg width="20" height="20" viewBox="0 0 20 20" fill="none" xmlns="http://www.w3.org/2000/svg">
<g id="vuesax/bold/flag">
<g id="flag">
<path id="Vector" d="M15.0165 10.2743L13.9998 9.25768C13.7582 9.04935 13.6165 8.74102 13.6082 8.39935C13.5915 8.02435 13.7415 7.64935 14.0165 7.37435L15.0165 6.37435C15.8832 5.50768 16.2082 4.67435 15.9332 4.01602C15.6665 3.36602 14.8415 3.00768 13.6248 3.00768H4.9165V2.29102C4.9165 1.94935 4.63317 1.66602 4.2915 1.66602C3.94984 1.66602 3.6665 1.94935 3.6665 2.29102V17.7077C3.6665 18.0493 3.94984 18.3327 4.2915 18.3327C4.63317 18.3327 4.9165 18.0493 4.9165 17.7077V13.641H13.6248C14.8248 13.641 15.6332 13.2743 15.9082 12.616C16.1832 11.9577 15.8665 11.1327 15.0165 10.2743Z" fill="#7E56DA"/>
</g>
</g>
</svg>
