<svg width="20" height="20" viewBox="0 0 20 20" fill="none" xmlns="http://www.w3.org/2000/svg">
<path d="M9.99992 18.334C14.5916 18.334 18.3333 14.5923 18.3333 10.0007C18.3333 5.40898 14.5916 1.66732 9.99992 1.66732C5.40825 1.66732 1.66659 5.40898 1.66659 10.0006C1.66659 14.5923 5.40825 18.334 9.99992 18.334ZM10.6249 13.334C10.6249 13.6757 10.3416 13.959 9.99992 13.959C9.65825 13.959 9.37492 13.6757 9.37492 13.334L9.37492 9.16732C9.37492 8.82565 9.65825 8.54232 9.99992 8.54232C10.3416 8.54232 10.6249 8.82565 10.6249 9.16732L10.6249 13.334ZM9.23325 6.35065C9.27492 6.24232 9.33325 6.15898 9.40825 6.07565C9.49159 6.00065 9.58325 5.94232 9.68325 5.90065C9.78325 5.85898 9.89159 5.83398 9.99992 5.83398C10.1083 5.83398 10.2166 5.85898 10.3166 5.90065C10.4166 5.94232 10.5083 6.00065 10.5916 6.07565C10.6666 6.15898 10.7249 6.24232 10.7666 6.35065C10.8083 6.45065 10.8333 6.55898 10.8333 6.66732C10.8333 6.77565 10.8083 6.88398 10.7666 6.98398C10.7249 7.08398 10.6666 7.17565 10.5916 7.25898C10.5083 7.33398 10.4166 7.39232 10.3166 7.43398C10.1166 7.51732 9.88325 7.51732 9.68325 7.43398C9.58325 7.39232 9.49159 7.33398 9.40825 7.25898C9.33325 7.17565 9.27492 7.08398 9.23325 6.98398C9.19159 6.88398 9.16659 6.77565 9.16659 6.66732C9.16659 6.55898 9.19159 6.45065 9.23325 6.35065Z" fill="#7E56DA"/>
</svg>
