<svg width="20" height="20" viewBox="0 0 20 20" fill="none" xmlns="http://www.w3.org/2000/svg">
<g id="ph:t-shirt-fill">
<path id="Vector" d="M19.3431 4.78281L15.2994 2.57812C15.2078 2.52743 15.1049 2.50057 15.0002 2.5H12.5002C12.3344 2.5 12.1754 2.56585 12.0582 2.68306C11.941 2.80027 11.8752 2.95924 11.8752 3.125C11.8752 3.62228 11.6776 4.09919 11.326 4.45083C10.9743 4.80246 10.4974 5 10.0002 5C9.50287 5 9.02596 4.80246 8.67433 4.45083C8.3227 4.09919 8.12515 3.62228 8.12515 3.125C8.12515 2.95924 8.0593 2.80027 7.94209 2.68306C7.82488 2.56585 7.66591 2.5 7.50015 2.5H5.00015C4.89518 2.50043 4.792 2.5273 4.70015 2.57812L0.657183 4.78281C0.368981 4.93512 0.152938 5.1955 0.0564256 5.50686C-0.0400865 5.81821 -0.00919034 6.15514 0.142339 6.44375L1.64781 9.31953C1.75727 9.52629 1.92135 9.69906 2.12219 9.81904C2.32303 9.93902 2.55293 10.0016 2.78687 10H4.37515V16.25C4.37515 16.5815 4.50685 16.8995 4.74127 17.1339C4.97569 17.3683 5.29363 17.5 5.62515 17.5H14.3752C14.7067 17.5 15.0246 17.3683 15.259 17.1339C15.4935 16.8995 15.6252 16.5815 15.6252 16.25V10H17.2142C17.4482 10.0016 17.6781 9.93902 17.8789 9.81904C18.0797 9.69906 18.2438 9.52629 18.3533 9.31953L19.8587 6.44375C20.0102 6.15504 20.041 5.81805 19.9443 5.50668C19.8477 5.19531 19.6315 4.93498 19.3431 4.78281ZM2.78687 8.75C2.77532 8.75055 2.76396 8.74694 2.75484 8.73984L1.25718 5.87969L4.37515 4.17812V8.75H2.78687ZM17.2455 8.73906C17.2411 8.74296 17.2361 8.74594 17.2306 8.74782C17.2251 8.7497 17.2192 8.75044 17.2134 8.75H15.6252V4.17812L18.7439 5.87969L17.2455 8.73906Z" fill="#7E56DA"/>
</g>
</svg>
