<svg width="20" height="20" viewBox="0 0 20 20" fill="none" xmlns="http://www.w3.org/2000/svg">
<g id="setting">
<g id="vuesax/bold/setting-2">
<g id="setting-2">
<path id="Vector" d="M16.7498 7.6819C15.2415 7.6819 14.6248 6.61523 15.3748 5.3069C15.8082 4.54856 15.5498 3.5819 14.7915 3.14856L13.3498 2.32356C12.6915 1.9319 11.8415 2.16523 11.4498 2.82356L11.3582 2.9819C10.6082 4.29023 9.37484 4.29023 8.6165 2.9819L8.52484 2.82356C8.14984 2.16523 7.29984 1.9319 6.6415 2.32356L5.19984 3.14856C4.4415 3.5819 4.18317 4.5569 4.6165 5.31523C5.37484 6.61523 4.75817 7.6819 3.24984 7.6819C2.38317 7.6819 1.6665 8.39023 1.6665 9.26523V10.7319C1.6665 11.5986 2.37484 12.3152 3.24984 12.3152C4.75817 12.3152 5.37484 13.3819 4.6165 14.6902C4.18317 15.4486 4.4415 16.4152 5.19984 16.8486L6.6415 17.6736C7.29984 18.0652 8.14984 17.8319 8.5415 17.1736L8.63317 17.0152C9.38317 15.7069 10.6165 15.7069 11.3748 17.0152L11.4665 17.1736C11.8582 17.8319 12.7082 18.0652 13.3665 17.6736L14.8082 16.8486C15.5665 16.4152 15.8248 15.4402 15.3915 14.6902C14.6332 13.3819 15.2498 12.3152 16.7582 12.3152C17.6248 12.3152 18.3415 11.6069 18.3415 10.7319V9.26523C18.3332 8.39856 17.6248 7.6819 16.7498 7.6819ZM9.99984 12.7069C8.50817 12.7069 7.2915 11.4902 7.2915 9.99856C7.2915 8.5069 8.50817 7.29023 9.99984 7.29023C11.4915 7.29023 12.7082 8.5069 12.7082 9.99856C12.7082 11.4902 11.4915 12.7069 9.99984 12.7069Z" fill="#7E56DA"/>
</g>
</g>
</g>
</svg>
