<svg width="16" height="16" viewBox="0 0 16 16" fill="none" xmlns="http://www.w3.org/2000/svg">
<g id="document-copy">
<g id="vuesax/linear/document-copy">
<path id="Vector" d="M11.333 8.93366V10.9337C11.333 13.6003 10.2663 14.667 7.59967 14.667H5.06634C2.39967 14.667 1.33301 13.6003 1.33301 10.9337V8.40033C1.33301 5.73366 2.39967 4.66699 5.06634 4.66699H7.06634" stroke="#0A121A" stroke-linecap="round" stroke-linejoin="round"/>
<path id="Vector_2" d="M11.3336 8.93366H9.20023C7.60023 8.93366 7.06689 8.40033 7.06689 6.80033V4.66699L11.3336 8.93366Z" stroke="#0A121A" stroke-linecap="round" stroke-linejoin="round"/>
<path id="Vector_3" d="M7.7334 1.33496H10.4001" stroke="#0A121A" stroke-linecap="round" stroke-linejoin="round"/>
<path id="Vector_4" d="M4.66699 3.33496C4.66699 2.22829 5.56033 1.33496 6.66699 1.33496H8.41366" stroke="#0A121A" stroke-linecap="round" stroke-linejoin="round"/>
<path id="Vector_5" d="M14.6668 5.33496V9.46163C14.6668 10.495 13.8268 11.335 12.7935 11.335" stroke="#0A121A" stroke-linecap="round" stroke-linejoin="round"/>
<path id="Vector_6" d="M14.667 5.33496H12.667C11.167 5.33496 10.667 4.83496 10.667 3.33496V1.33496L14.667 5.33496Z" stroke="#0A121A" stroke-linecap="round" stroke-linejoin="round"/>
</g>
</g>
</svg>
