<svg width="20" height="21" viewBox="0 0 20 21" fill="none" xmlns="http://www.w3.org/2000/svg">
<g id="vuesax/linear/maximize-4">
<g id="maximize-4">
<path id="Union" fill-rule="evenodd" clip-rule="evenodd" d="M8.25 14.5C7.83579 14.5 7.5 14.1642 7.5 13.75C7.5 13.3358 7.83579 13 8.25 13H12.4393L6.21967 6.78033C5.92678 6.48744 5.92678 6.01256 6.21967 5.71967C6.51256 5.42678 6.98744 5.42678 7.28033 5.71967L13.5 11.9393V7.75C13.5 7.33579 13.8358 7 14.25 7C14.6642 7 15 7.33579 15 7.75V13.75C15 13.9563 14.9167 14.1431 14.7819 14.2787C14.7814 14.2793 14.7809 14.2798 14.7803 14.2803C14.7798 14.2809 14.7793 14.2814 14.7787 14.2819C14.7072 14.353 14.6249 14.4068 14.5371 14.4431C14.4487 14.4798 14.3517 14.5 14.25 14.5H8.25Z" fill="#462B9C"/>
</g>
</g>
</svg>
