<svg width="24" height="25" viewBox="0 0 24 25" fill="none" xmlns="http://www.w3.org/2000/svg">
<path d="M12.1499 17V19.1" stroke="#C9B3EF" stroke-width="1.5" stroke-linecap="round" stroke-linejoin="round"/>
<path d="M7.1499 22.5H17.1499V21.5C17.1499 20.4 16.2499 19.5 15.1499 19.5H9.1499C8.0499 19.5 7.1499 20.4 7.1499 21.5V22.5Z" fill="white" stroke="#462B9C" stroke-width="1.5" stroke-miterlimit="10"/>
<path d="M6.1499 22.5H18.1499" stroke="#462B9C" stroke-width="1.5" stroke-linecap="round" stroke-linejoin="round"/>
<path d="M5.47004 12.1496C4.72004 11.9096 4.06004 11.4696 3.54004 10.9496C2.64004 9.94961 2.04004 8.74961 2.04004 7.34961C2.04004 5.94961 3.14004 4.84961 4.54004 4.84961H5.19004C4.99004 5.30961 4.89004 5.81961 4.89004 6.34961V9.34961C4.89004 10.3496 5.10004 11.2896 5.47004 12.1496Z" stroke="#C9B3EF" stroke-width="1.5" stroke-linecap="round" stroke-linejoin="round"/>
<path d="M18.53 12.1496C19.28 11.9096 19.94 11.4696 20.46 10.9496C21.36 9.94961 21.96 8.74961 21.96 7.34961C21.96 5.94961 20.86 4.84961 19.46 4.84961H18.81C19.01 5.30961 19.11 5.81961 19.11 6.34961V9.34961C19.11 10.3496 18.9 11.2896 18.53 12.1496Z" stroke="#C9B3EF" stroke-width="1.5" stroke-linecap="round" stroke-linejoin="round"/>
<path d="M12 16.5C8.13 16.5 5 13.37 5 9.5V6.5C5 4.29 6.79 2.5 9 2.5H15C17.21 2.5 19 4.29 19 6.5V9.5C19 13.37 15.87 16.5 12 16.5Z" fill="white" stroke="#462B9C" stroke-width="1.5" stroke-linecap="round" stroke-linejoin="round"/>
</svg>
