<svg width="20" height="21" viewBox="0 0 20 21" fill="none" xmlns="http://www.w3.org/2000/svg">
<g id="vuesax/linear/maximize-4">
<g id="maximize-4">
<path id="Union" fill-rule="evenodd" clip-rule="evenodd" d="M11.75 6.5C12.1642 6.5 12.5 6.83579 12.5 7.25C12.5 7.66421 12.1642 8 11.75 8H7.56066L13.7803 14.2197C14.0732 14.5126 14.0732 14.9874 13.7803 15.2803C13.4874 15.5732 13.0126 15.5732 12.7197 15.2803L6.5 9.06066V13.25C6.5 13.6642 6.16421 14 5.75 14C5.33579 14 5 13.6642 5 13.25V7.25C5 7.0437 5.08329 6.85686 5.21808 6.72126C5.21861 6.72073 5.21914 6.7202 5.21967 6.71967C5.2202 6.71914 5.22073 6.71861 5.22126 6.71808C5.2928 6.64696 5.37511 6.59324 5.46291 6.55691C5.55134 6.52024 5.64831 6.5 5.75 6.5H11.75Z" fill="#462B9C"/>
</g>
</g>
</svg>
