<svg width="12" height="13" viewBox="0 0 12 13" fill="none" xmlns="http://www.w3.org/2000/svg">
<mask id="mask0_1198_1448" style="mask-type:alpha" maskUnits="userSpaceOnUse" x="0" y="0" width="12" height="13">
<rect y="0.627136" width="12" height="12" fill="#D9D9D9"/>
</mask>
<g mask="url(#mask0_1198_1448)">
<path d="M1 12.6271V10.6271H11V12.6271H1ZM3 8.62714H3.7L7.6 4.73964L6.8875 4.02714L3 7.92714V8.62714ZM2 9.62714V7.50214L7.6 1.91464C7.69167 1.82297 7.79792 1.75214 7.91875 1.70214C8.03958 1.65214 8.16667 1.62714 8.3 1.62714C8.43333 1.62714 8.5625 1.65214 8.6875 1.70214C8.8125 1.75214 8.925 1.82714 9.025 1.92714L9.7125 2.62714C9.8125 2.7188 9.88542 2.82714 9.93125 2.95214C9.97708 3.07714 10 3.2063 10 3.33964C10 3.46464 9.97708 3.58755 9.93125 3.70839C9.88542 3.82922 9.8125 3.93964 9.7125 4.03964L4.125 9.62714H2Z" fill="#FF34C1"/>
</g>
</svg>
