<svg width="20" height="20" viewBox="0 0 20 20" fill="none" xmlns="http://www.w3.org/2000/svg">
<path d="M7.47493 18.3337H12.4749C16.6416 18.3337 18.3083 16.667 18.3083 12.5003V7.50033C18.3083 3.33366 16.6416 1.66699 12.4749 1.66699H7.47493C3.30827 1.66699 1.6416 3.33366 1.6416 7.50033V12.5003C1.6416 16.667 3.30827 18.3337 7.47493 18.3337Z" stroke="#462B9C" stroke-width="1.25" stroke-linecap="round" stroke-linejoin="round"/>
<path d="M1.6416 10.5831L6.6416 10.5664C7.2666 10.5664 7.9666 11.0414 8.19993 11.6248L9.14993 14.0248C9.3666 14.5664 9.70827 14.5664 9.92493 14.0248L11.8333 9.1831C12.0166 8.71643 12.3583 8.69977 12.5916 9.14143L13.4583 10.7831C13.7166 11.2748 14.3833 11.6748 14.9333 11.6748H18.3166" stroke="#462B9C" stroke-width="1.25" stroke-linecap="round" stroke-linejoin="round"/>
</svg>
