<svg width="20" height="20" viewBox="0 0 20 20" fill="none" xmlns="http://www.w3.org/2000/svg">
<path d="M14.1665 17.499H5.83317C2.49984 17.499 1.6665 16.6657 1.6665 13.3324V6.66569C1.6665 3.33236 2.49984 2.49902 5.83317 2.49902H14.1665C17.4998 2.49902 18.3332 3.33236 18.3332 6.66569V13.3324C18.3332 16.6657 17.4998 17.499 14.1665 17.499Z" stroke="#462B9C" stroke-width="1.25" stroke-linecap="round" stroke-linejoin="round"/>
<path d="M11.6665 6.66602H15.8332" stroke="#462B9C" stroke-width="1.25" stroke-linecap="round" stroke-linejoin="round"/>
<path d="M12.5 9.99902H15.8333" stroke="#462B9C" stroke-width="1.25" stroke-linecap="round" stroke-linejoin="round"/>
<path d="M14.1665 13.332H15.8332" stroke="#462B9C" stroke-width="1.25" stroke-linecap="round" stroke-linejoin="round"/>
<path d="M7.08353 9.40729C7.91656 9.40729 8.59186 8.73199 8.59186 7.89896C8.59186 7.06593 7.91656 6.39062 7.08353 6.39062C6.2505 6.39062 5.5752 7.06593 5.5752 7.89896C5.5752 8.73199 6.2505 9.40729 7.08353 9.40729Z" stroke="#462B9C" stroke-width="1.25" stroke-linecap="round" stroke-linejoin="round"/>
<path d="M9.99984 13.6075C9.88317 12.3992 8.92484 11.4492 7.7165 11.3408C7.29984 11.2992 6.87484 11.2992 6.44984 11.3408C5.2415 11.4575 4.28317 12.3992 4.1665 13.6075" stroke="#462B9C" stroke-width="1.25" stroke-linecap="round" stroke-linejoin="round"/>
</svg>
