<svg width="16" height="16" viewBox="0 0 16 16" fill="none" xmlns="http://www.w3.org/2000/svg">
<path d="M7.99996 14.666C11.6733 14.666 14.6666 11.6727 14.6666 7.99935C14.6666 4.32602 11.6733 1.33268 7.99996 1.33268C4.32663 1.33268 1.33329 4.32602 1.33329 7.99935C1.33329 11.6727 4.32663 14.666 7.99996 14.666ZM8.49996 10.666C8.49996 10.9393 8.27329 11.166 7.99996 11.166C7.72663 11.166 7.49996 10.9393 7.49996 10.666L7.49996 7.33268C7.49996 7.05935 7.72663 6.83268 7.99996 6.83268C8.27329 6.83268 8.49996 7.05935 8.49996 7.33268L8.49996 10.666ZM7.38663 5.07935C7.41996 4.99268 7.46663 4.92602 7.52663 4.85935C7.59329 4.79935 7.66663 4.75268 7.74663 4.71935C7.82663 4.68602 7.91329 4.66602 7.99996 4.66602C8.08663 4.66602 8.17329 4.68602 8.25329 4.71935C8.33329 4.75268 8.40663 4.79935 8.47329 4.85935C8.53329 4.92602 8.57996 4.99268 8.61329 5.07935C8.64663 5.15935 8.66663 5.24602 8.66663 5.33268C8.66663 5.41935 8.64663 5.50602 8.61329 5.58602C8.57996 5.66602 8.53329 5.73935 8.47329 5.80602C8.40663 5.86602 8.33329 5.91268 8.25329 5.94602C8.09329 6.01268 7.90663 6.01268 7.74663 5.94602C7.66663 5.91268 7.59329 5.86602 7.52663 5.80602C7.46663 5.73935 7.41996 5.66602 7.38663 5.58602C7.35329 5.50602 7.33329 5.41935 7.33329 5.33268C7.33329 5.24602 7.35329 5.15935 7.38663 5.07935Z" fill="#4B61DD"/>
</svg>
