<svg width="20" height="20" viewBox="0 0 20 20" fill="none" xmlns="http://www.w3.org/2000/svg">
<path d="M10.0002 18.334C14.5918 18.334 18.3335 14.5923 18.3335 10.0007C18.3335 5.40898 14.5918 1.66732 10.0002 1.66732C5.4085 1.66732 1.66683 5.40898 1.66683 10.0006C1.66683 14.5923 5.4085 18.334 10.0002 18.334ZM10.6252 13.334C10.6252 13.6757 10.3418 13.959 10.0002 13.959C9.6585 13.959 9.37516 13.6757 9.37516 13.334L9.37516 9.16732C9.37516 8.82565 9.6585 8.54232 10.0002 8.54232C10.3418 8.54232 10.6252 8.82565 10.6252 9.16732L10.6252 13.334ZM9.2335 6.35065C9.27516 6.24232 9.3335 6.15898 9.4085 6.07565C9.49183 6.00065 9.5835 5.94232 9.6835 5.90065C9.7835 5.85898 9.89183 5.83398 10.0002 5.83398C10.1085 5.83398 10.2168 5.85898 10.3168 5.90065C10.4168 5.94232 10.5085 6.00065 10.5918 6.07565C10.6668 6.15898 10.7252 6.24232 10.7668 6.35065C10.8085 6.45065 10.8335 6.55898 10.8335 6.66732C10.8335 6.77565 10.8085 6.88398 10.7668 6.98398C10.7252 7.08398 10.6668 7.17565 10.5918 7.25898C10.5085 7.33398 10.4168 7.39232 10.3168 7.43398C10.1168 7.51732 9.8835 7.51732 9.6835 7.43398C9.5835 7.39232 9.49183 7.33398 9.4085 7.25898C9.3335 7.17565 9.27516 7.08398 9.2335 6.98398C9.19183 6.88398 9.16683 6.77565 9.16683 6.66732C9.16683 6.55898 9.19183 6.45065 9.2335 6.35065Z" fill="#7E56DA"/>
</svg>
