<svg width="30" height="30" viewBox="0 0 30 30" fill="none" xmlns="http://www.w3.org/2000/svg">
<rect x="0.5" y="0.5" width="29" height="29" rx="14.5" stroke="#7E56DA"/>
<path d="M9.66732 14.3333C9.66732 12.8556 10.1868 11.5972 11.2257 10.5583C12.2645 9.51944 13.5229 9 15.0007 9C16.4784 9 17.7368 9.51944 18.7757 10.5583C19.8145 11.5972 20.334 12.8556 20.334 14.3333C20.334 15.0667 20.1951 15.7556 19.9173 16.4C19.6395 17.0444 19.2562 17.6111 18.7673 18.1L17.834 17.1667C18.2007 16.8 18.4868 16.375 18.6923 15.8917C18.8979 15.4083 19.0007 14.8889 19.0007 14.3333C19.0007 13.2222 18.6118 12.2778 17.834 11.5C17.0562 10.7222 16.1118 10.3333 15.0007 10.3333C13.8895 10.3333 12.9451 10.7222 12.1673 11.5C11.3895 12.2778 11.0007 13.2222 11.0007 14.3333C11.0007 14.8889 11.1034 15.4083 11.309 15.8917C11.5145 16.375 11.8007 16.8 12.1673 17.1667L11.234 18.1C10.7451 17.6111 10.3618 17.0444 10.084 16.4C9.80621 15.7556 9.66732 15.0667 9.66732 14.3333ZM12.334 18.3333L13.2673 17.4L14.334 18.4667V13.6667H15.6673V18.4667L16.734 17.4L17.6673 18.3333L15.0007 21L12.334 18.3333Z" fill="#7E56DA"/>
</svg>
