<svg width="19" height="18" viewBox="0 0 19 18" fill="none" xmlns="http://www.w3.org/2000/svg">
<mask id="mask0_2792_2257" style="mask-type:alpha" maskUnits="userSpaceOnUse" x="0" y="0" width="19" height="18">
<rect x="0.5" width="18" height="18" fill="#D9D9D9"/>
</mask>
<g mask="url(#mask0_2792_2257)">
<path d="M15.6125 9.75H6.5V8.25H15.6125L14.45 7.0875L15.5 6L18.5 9L15.5 12L14.45 10.9125L15.6125 9.75ZM11.75 6.75V3.75H4.25V14.25H11.75V11.25H13.25V14.25C13.25 14.6625 13.1031 15.0156 12.8094 15.3094C12.5156 15.6031 12.1625 15.75 11.75 15.75H4.25C3.8375 15.75 3.48438 15.6031 3.19063 15.3094C2.89688 15.0156 2.75 14.6625 2.75 14.25V3.75C2.75 3.3375 2.89688 2.98438 3.19063 2.69063C3.48438 2.39688 3.8375 2.25 4.25 2.25H11.75C12.1625 2.25 12.5156 2.39688 12.8094 2.69063C13.1031 2.98438 13.25 3.3375 13.25 3.75V6.75H11.75Z" fill="white"/>
</g>
</svg>
