<svg width="21" height="20" viewBox="0 0 21 20" fill="none" xmlns="http://www.w3.org/2000/svg">
<path d="M10.8563 13.235L17.1375 6.95371L16.1625 5.97871L9.88125 12.26L10.8563 13.235ZM5.9625 14.8662C4.7125 14.8037 3.78125 14.5412 3.16875 14.0787C2.55625 13.6162 2.25 12.9475 2.25 12.0725C2.25 11.26 2.58437 10.6006 3.25312 10.0943C3.92188 9.58809 4.85 9.28496 6.0375 9.18496C6.525 9.14746 6.89062 9.06934 7.13438 8.95059C7.37813 8.83184 7.5 8.66621 7.5 8.45371C7.5 8.12871 7.31563 7.88496 6.94688 7.72246C6.57812 7.55996 5.96875 7.44121 5.11875 7.36621L5.25 5.86621C6.5375 5.96621 7.48438 6.22559 8.09062 6.64434C8.69688 7.06309 9 7.66621 9 8.45371C9 9.11621 8.75938 9.63496 8.27813 10.01C7.79688 10.385 7.0875 10.61 6.15 10.685C5.35 10.7475 4.75 10.8943 4.35 11.1256C3.95 11.3568 3.75 11.6725 3.75 12.0725C3.75 12.51 3.925 12.8256 4.275 13.0193C4.625 13.2131 5.2125 13.3287 6.0375 13.3662L5.9625 14.8662ZM11.2125 14.9975L8.11875 11.9037L15.2812 4.74121C15.5312 4.49121 15.8281 4.36621 16.1719 4.36621C16.5156 4.36621 16.8125 4.49121 17.0625 4.74121L18.375 6.05371C18.625 6.30371 18.75 6.60059 18.75 6.94434C18.75 7.28809 18.625 7.58496 18.375 7.83496L11.2125 14.9975ZM8.23125 15.6162C8.01875 15.6662 7.83125 15.61 7.66875 15.4475C7.50625 15.285 7.45 15.0975 7.5 14.885L8.11875 11.9037L11.2125 14.9975L8.23125 15.6162Z" fill="#7E56DA"/>
</svg>
