<svg width="15" height="16" viewBox="0 0 15 16" fill="none" xmlns="http://www.w3.org/2000/svg">
<path d="M1.5 13.25V11.75H3V6.50003C3 5.46253 3.3125 4.54065 3.9375 3.7344C4.5625 2.92815 5.375 2.40002 6.375 2.15002V1.62502C6.375 1.31252 6.48437 1.0469 6.70312 0.828149C6.92187 0.609399 7.1875 0.500024 7.5 0.500024C7.8125 0.500024 8.07812 0.609399 8.29687 0.828149C8.51562 1.0469 8.625 1.31252 8.625 1.62502V2.15002C9.625 2.40002 10.4375 2.92815 11.0625 3.7344C11.6875 4.54065 12 5.46253 12 6.50003V11.75H13.5V13.25H1.5ZM7.5 15.5C7.0875 15.5 6.73438 15.3532 6.44062 15.0594C6.14687 14.7657 6 14.4125 6 14H9C9 14.4125 8.85312 14.7657 8.55937 15.0594C8.26562 15.3532 7.9125 15.5 7.5 15.5ZM0 6.50003C0 5.25003 0.278125 4.10315 0.834375 3.0594C1.39062 2.01565 2.1375 1.15002 3.075 0.462524L3.95625 1.66252C3.20625 2.21252 2.60937 2.90627 2.16562 3.74377C1.72187 4.58127 1.5 5.50003 1.5 6.50003H0ZM13.5 6.50003C13.5 5.50003 13.2781 4.58127 12.8344 3.74377C12.3906 2.90627 11.7937 2.21252 11.0437 1.66252L11.925 0.462524C12.8625 1.15002 13.6094 2.01565 14.1656 3.0594C14.7219 4.10315 15 5.25003 15 6.50003H13.5Z" fill="white"/>
</svg>
