<svg width="20" height="21" viewBox="0 0 20 21" fill="none" xmlns="http://www.w3.org/2000/svg">
<g id="vuesax/linear/notification">
<g id="vuesax/twotone/notification">
<g id="notification">
<path id="Vector" d="M12.5166 16.3838C12.5166 17.7588 11.3916 18.8838 10.0166 18.8838C9.33327 18.8838 8.69993 18.6005 8.24993 18.1505C7.79993 17.7005 7.5166 17.0671 7.5166 16.3838" stroke="#C9B3EF" stroke-width="1.25" stroke-miterlimit="10"/>
<path id="Vector_2" d="M10.0165 2.9248C7.25816 2.9248 5.0165 5.16647 5.0165 7.9248V10.3331C5.0165 10.8415 4.79983 11.6165 4.5415 12.0498L3.58316 13.6415C2.9915 14.6248 3.39983 15.7165 4.48316 16.0831C8.07483 17.2831 11.9498 17.2831 15.5415 16.0831C16.5498 15.7498 16.9915 14.5581 16.4415 13.6415L15.4832 12.0498C15.2332 11.6165 15.0165 10.8415 15.0165 10.3331V7.9248C15.0165 5.1748 12.7665 2.9248 10.0165 2.9248Z" fill="white" stroke="#462B9C" stroke-width="1.25" stroke-miterlimit="10" stroke-linecap="round"/>
<path id="Vector_3" d="M11.5584 3.16621C11.3001 3.09121 11.0334 3.03288 10.7584 2.99954C9.95843 2.89954 9.19176 2.95788 8.4751 3.16621C8.71676 2.54954 9.31676 2.11621 10.0168 2.11621C10.7168 2.11621 11.3168 2.54954 11.5584 3.16621Z" stroke="#462B9C" stroke-width="1.25" stroke-miterlimit="10" stroke-linecap="round" stroke-linejoin="round"/>
</g>
</g>
</g>
</svg>
