<svg width="20" height="20" viewBox="0 0 20 20" fill="none" xmlns="http://www.w3.org/2000/svg">
<path d="M10.0166 2.4248C7.25828 2.4248 5.01662 4.66647 5.01662 7.4248V9.83314C5.01662 10.3415 4.79995 11.1165 4.54162 11.5498L3.58328 13.1415C2.99162 14.1248 3.39995 15.2165 4.48328 15.5831C8.07495 16.7831 11.95 16.7831 15.5416 15.5831C16.55 15.2498 16.9916 14.0581 16.4416 13.1415L15.4833 11.5498C15.2333 11.1165 15.0166 10.3415 15.0166 9.83314V7.4248C15.0166 4.6748 12.7666 2.4248 10.0166 2.4248Z" stroke="#0A121A" stroke-width="1.25" stroke-miterlimit="10" stroke-linecap="round"/>
<path d="M11.5583 2.66621C11.3 2.59121 11.0333 2.53288 10.7583 2.49954C9.95831 2.39954 9.19164 2.45788 8.47498 2.66621C8.71664 2.04954 9.31664 1.61621 10.0166 1.61621C10.7166 1.61621 11.3166 2.04954 11.5583 2.66621Z" stroke="#0A121A" stroke-width="1.25" stroke-miterlimit="10" stroke-linecap="round" stroke-linejoin="round"/>
<path d="M12.5167 15.8838C12.5167 17.2588 11.3917 18.3838 10.0167 18.3838C9.33339 18.3838 8.70006 18.1005 8.25006 17.6505C7.80006 17.2005 7.51672 16.5671 7.51672 15.8838" stroke="#0A121A" stroke-width="1.25" stroke-miterlimit="10"/>
</svg>
