<svg width="14" height="14" viewBox="0 0 14 14" fill="none" xmlns="http://www.w3.org/2000/svg">
<mask id="mask0_1198_2504" style="mask-type:alpha" maskUnits="userSpaceOnUse" x="0" y="0" width="14" height="14">
<rect width="14" height="14" fill="#D9D9D9"/>
</mask>
<g mask="url(#mask0_1198_2504)">
<path d="M10.2372 7.00001L8.16634 4.92918L8.99759 4.11251L10.2372 5.35209L12.7163 2.87293L13.533 3.70418L10.2372 7.00001ZM5.24967 7.00001C4.60801 7.00001 4.0587 6.77154 3.60176 6.31459C3.14481 5.85765 2.91634 5.30834 2.91634 4.66668C2.91634 4.02501 3.14481 3.4757 3.60176 3.01876C4.0587 2.56182 4.60801 2.33334 5.24967 2.33334C5.89134 2.33334 6.44065 2.56182 6.89759 3.01876C7.35454 3.4757 7.58301 4.02501 7.58301 4.66668C7.58301 5.30834 7.35454 5.85765 6.89759 6.31459C6.44065 6.77154 5.89134 7.00001 5.24967 7.00001ZM0.583008 11.6667V10.0333C0.583008 9.70279 0.668077 9.39897 0.838216 9.12188C1.00836 8.8448 1.2344 8.63334 1.51634 8.48751C2.11912 8.18612 2.73162 7.96008 3.35384 7.80938C3.97606 7.65869 4.60801 7.58334 5.24967 7.58334C5.89134 7.58334 6.52329 7.65869 7.14551 7.80938C7.76773 7.96008 8.38023 8.18612 8.98301 8.48751C9.26495 8.63334 9.49099 8.8448 9.66113 9.12188C9.83127 9.39897 9.91634 9.70279 9.91634 10.0333V11.6667H0.583008ZM1.74967 10.5H8.74967V10.0333C8.74967 9.9264 8.72294 9.82918 8.66947 9.74168C8.61599 9.65418 8.54551 9.58612 8.45801 9.53751C7.93301 9.27501 7.40315 9.07814 6.86843 8.94689C6.3337 8.81564 5.79412 8.75001 5.24967 8.75001C4.70523 8.75001 4.16565 8.81564 3.63092 8.94689C3.0962 9.07814 2.56634 9.27501 2.04134 9.53751C1.95384 9.58612 1.88336 9.65418 1.82988 9.74168C1.77641 9.82918 1.74967 9.9264 1.74967 10.0333V10.5ZM5.24967 5.83334C5.57051 5.83334 5.84516 5.71911 6.07363 5.49063C6.30211 5.26216 6.41634 4.98751 6.41634 4.66668C6.41634 4.34584 6.30211 4.07119 6.07363 3.84272C5.84516 3.61425 5.57051 3.50001 5.24967 3.50001C4.92884 3.50001 4.65419 3.61425 4.42572 3.84272C4.19724 4.07119 4.08301 4.34584 4.08301 4.66668C4.08301 4.98751 4.19724 5.26216 4.42572 5.49063C4.65419 5.71911 4.92884 5.83334 5.24967 5.83334Z" fill="white" fill-opacity="0.5"/>
</g>
</svg>
