<svg width="30" height="30" viewBox="0 0 30 30" fill="none" xmlns="http://www.w3.org/2000/svg">
<rect width="30" height="30" rx="15" fill="white"/>
<mask id="mask0_2809_1132" style="mask-type:alpha" maskUnits="userSpaceOnUse" x="7" y="7" width="16" height="16">
<rect x="7" y="7" width="16" height="16" fill="#D9D9D9"/>
</mask>
<g mask="url(#mask0_2809_1132)">
<path d="M16.9993 20.3334C15.5105 20.3334 14.2493 19.8167 13.216 18.7834C12.1827 17.7501 11.666 16.489 11.666 15.0001C11.666 13.5112 12.1827 12.2501 13.216 11.2167C14.2493 10.1834 15.5105 9.66675 16.9993 9.66675C18.4882 9.66675 19.7493 10.1834 20.7827 11.2167C21.816 12.2501 22.3327 13.5112 22.3327 15.0001C22.3327 16.489 21.816 17.7501 20.7827 18.7834C19.7493 19.8167 18.4882 20.3334 16.9993 20.3334ZM11.666 20.1667C10.4882 19.8556 9.52713 19.2223 8.78268 18.2667C8.03824 17.3112 7.66602 16.2223 7.66602 15.0001C7.66602 13.7779 8.03824 12.689 8.78268 11.7334C9.52713 10.7779 10.4882 10.1445 11.666 9.83341V11.2334C10.866 11.5112 10.2216 11.9945 9.73268 12.6834C9.24379 13.3723 8.99935 14.1445 8.99935 15.0001C8.99935 15.8556 9.24379 16.6279 9.73268 17.3167C10.2216 18.0056 10.866 18.489 11.666 18.7667V20.1667ZM16.9993 19.0001C18.1105 19.0001 19.0549 18.6112 19.8327 17.8334C20.6105 17.0556 20.9993 16.1112 20.9993 15.0001C20.9993 13.889 20.6105 12.9445 19.8327 12.1667C19.0549 11.389 18.1105 11.0001 16.9993 11.0001C15.8882 11.0001 14.9438 11.389 14.166 12.1667C13.3882 12.9445 12.9993 13.889 12.9993 15.0001C12.9993 16.1112 13.3882 17.0556 14.166 17.8334C14.9438 18.6112 15.8882 19.0001 16.9993 19.0001Z" fill="#FB34BE"/>
</g>
</svg>
