<svg width="8" height="10" viewBox="0 0 8 10" fill="none" xmlns="http://www.w3.org/2000/svg">
<path d="M4.23529 9.41176L4.11765 8H4C2.88627 8 1.94118 7.61176 1.16471 6.83529C0.388235 6.05882 0 5.11373 0 4C0 2.88627 0.388235 1.94118 1.16471 1.16471C1.94118 0.388235 2.88627 0 4 0C4.55686 0 5.07647 0.103922 5.55882 0.311765C6.04118 0.519608 6.46471 0.805882 6.82941 1.17059C7.19412 1.53529 7.48039 1.95882 7.68824 2.44118C7.89608 2.92353 8 3.44314 8 4C8 4.58823 7.90392 5.15294 7.71177 5.69412C7.51961 6.23529 7.25686 6.73725 6.92353 7.2C6.5902 7.66274 6.19412 8.08235 5.73529 8.45882C5.27647 8.83529 4.77647 9.15294 4.23529 9.41176ZM3.98824 6.57647C4.12157 6.57647 4.23529 6.52941 4.32941 6.43529C4.42353 6.34118 4.47059 6.22745 4.47059 6.09412C4.47059 5.96078 4.42353 5.84706 4.32941 5.75294C4.23529 5.65882 4.12157 5.61176 3.98824 5.61176C3.8549 5.61176 3.74118 5.65882 3.64706 5.75294C3.55294 5.84706 3.50588 5.96078 3.50588 6.09412C3.50588 6.22745 3.55294 6.34118 3.64706 6.43529C3.74118 6.52941 3.8549 6.57647 3.98824 6.57647ZM3.64706 5.08235H4.35294C4.35294 4.84706 4.37647 4.68235 4.42353 4.58823C4.47059 4.49412 4.61961 4.32157 4.87059 4.07059C5.01177 3.92941 5.12941 3.77647 5.22353 3.61176C5.31765 3.44706 5.36471 3.27059 5.36471 3.08235C5.36471 2.68235 5.22941 2.38235 4.95882 2.18235C4.68824 1.98235 4.36863 1.88235 4 1.88235C3.6549 1.88235 3.36471 1.97843 3.12941 2.17059C2.89412 2.36275 2.72941 2.59608 2.63529 2.87059L3.29412 3.12941C3.33333 2.99608 3.40784 2.86471 3.51765 2.73529C3.62745 2.60588 3.78824 2.54118 4 2.54118C4.21176 2.54118 4.37059 2.6 4.47647 2.71765C4.58235 2.83529 4.63529 2.96471 4.63529 3.10588C4.63529 3.23922 4.59608 3.35882 4.51765 3.46471C4.43922 3.57059 4.3451 3.67843 4.23529 3.78824C3.96078 4.02353 3.79412 4.2098 3.73529 4.34706C3.67647 4.48431 3.64706 4.72941 3.64706 5.08235Z" fill="white"/>
</svg>
