<svg width="24" height="25" viewBox="0 0 24 25" fill="none" xmlns="http://www.w3.org/2000/svg">
<path d="M8.67 14.5H4C2.9 14.5 2 15.4 2 16.5V22.5H8.67V14.5Z" stroke="#462B9C" stroke-width="1.5" stroke-miterlimit="10" stroke-linecap="round" stroke-linejoin="round"/>
<path d="M13.3299 10.5H10.6599C9.55991 10.5 8.65991 11.4 8.65991 12.5V22.5H15.3299V12.5C15.3299 11.4 14.4399 10.5 13.3299 10.5Z" fill="white" stroke="#462B9C" stroke-width="1.5" stroke-miterlimit="10" stroke-linecap="round" stroke-linejoin="round"/>
<path d="M20.0001 17.5H15.3301V22.5H22.0001V19.5C22.0001 18.4 21.1001 17.5 20.0001 17.5Z" stroke="#462B9C" stroke-width="1.5" stroke-miterlimit="10" stroke-linecap="round" stroke-linejoin="round"/>
<path d="M12.52 2.5708L13.05 3.6308C13.12 3.7808 13.31 3.92079 13.47 3.94079L14.43 4.1008C15.04 4.2008 15.19 4.65078 14.75 5.08078L14 5.83078C13.87 5.96078 13.8 6.20079 13.84 6.37079L14.05 7.2908C14.22 8.0208 13.83 8.30081 13.19 7.92081L12.29 7.39081C12.13 7.29081 11.86 7.29081 11.7 7.39081L10.8 7.92081C10.16 8.30081 9.76998 8.0208 9.93998 7.2908L10.15 6.37079C10.19 6.20079 10.12 5.95078 9.98999 5.83078L9.24999 5.09079C8.80999 4.65079 8.94999 4.21078 9.56999 4.11078L10.53 3.9508C10.69 3.9208 10.88 3.78081 10.95 3.64081L11.48 2.58078C11.77 2.00078 12.23 2.0008 12.52 2.5708Z" stroke="#C9B3EF" stroke-width="1.5" stroke-linecap="round" stroke-linejoin="round"/>
</svg>
