<svg width="30" height="30" viewBox="0 0 30 30" fill="none" xmlns="http://www.w3.org/2000/svg">
<rect width="30" height="30" rx="15" fill="white"/>
<path d="M18.4949 12.1426L18.1404 13.4692H11.5L11.8546 12.1426H18.4949ZM15.2634 20.5L11.6368 15.8325L11.6266 14.7852H13.4247C13.8739 14.7852 14.2537 14.7118 14.5644 14.5649C14.8751 14.4181 15.1114 14.2051 15.2735 13.9258C15.4356 13.6429 15.5166 13.2992 15.5166 12.8945C15.5166 12.293 15.3478 11.8149 15.0101 11.4604C14.6725 11.106 14.144 10.9287 13.4247 10.9287H11.5L11.8698 9.5H13.4247C14.2622 9.5 14.9527 9.64144 15.4964 9.92432C16.04 10.2072 16.4452 10.5993 16.712 11.1006C16.9788 11.6019 17.1122 12.1802 17.1122 12.8354C17.1122 13.4191 17.0024 13.9473 16.7829 14.4199C16.5634 14.8926 16.2139 15.2775 15.7344 15.5747C15.2549 15.8719 14.6252 16.0456 13.8452 16.0957L13.7996 16.1064L17.1122 20.4087V20.5H15.2634ZM18.5 9.5L18.1404 10.8374L12.8321 10.8052L13.1918 9.5H18.5Z" fill="#8247DF"/>
</svg>
