<svg width="8" height="10" viewBox="0 0 8 10" fill="none" xmlns="http://www.w3.org/2000/svg">
<path d="M6.66667 9.15036C6.2963 9.15036 5.98148 9.02073 5.72222 8.76147C5.46296 8.50221 5.33333 8.1874 5.33333 7.81703C5.33333 7.76518 5.33704 7.71147 5.34444 7.65592C5.35185 7.60036 5.36296 7.55036 5.37778 7.50592L2.24444 5.6837C2.11852 5.79481 1.97778 5.88184 1.82222 5.94481C1.66667 6.00777 1.5037 6.03925 1.33333 6.03925C0.962963 6.03925 0.648148 5.90962 0.388889 5.65036C0.12963 5.3911 0 5.07629 0 4.70592C0 4.33555 0.12963 4.02073 0.388889 3.76147C0.648148 3.50222 0.962963 3.37259 1.33333 3.37259C1.5037 3.37259 1.66667 3.40407 1.82222 3.46703C1.97778 3.52999 2.11852 3.61703 2.24444 3.72814L5.37778 1.90592C5.36296 1.86147 5.35185 1.81147 5.34444 1.75592C5.33704 1.70036 5.33333 1.64666 5.33333 1.59481C5.33333 1.22444 5.46296 0.909623 5.72222 0.650363C5.98148 0.391104 6.2963 0.261475 6.66667 0.261475C7.03704 0.261475 7.35185 0.391104 7.61111 0.650363C7.87037 0.909623 8 1.22444 8 1.59481C8 1.96518 7.87037 2.27999 7.61111 2.53925C7.35185 2.79851 7.03704 2.92814 6.66667 2.92814C6.4963 2.92814 6.33333 2.89666 6.17778 2.8337C6.02222 2.77073 5.88148 2.6837 5.75556 2.57259L2.62222 4.39481C2.63704 4.43925 2.64815 4.48925 2.65556 4.54481C2.66296 4.60036 2.66667 4.65407 2.66667 4.70592C2.66667 4.75777 2.66296 4.81147 2.65556 4.86703C2.64815 4.92259 2.63704 4.97259 2.62222 5.01703L5.75556 6.83925C5.88148 6.72814 6.02222 6.6411 6.17778 6.57814C6.33333 6.51518 6.4963 6.4837 6.66667 6.4837C7.03704 6.4837 7.35185 6.61333 7.61111 6.87259C7.87037 7.13184 8 7.44666 8 7.81703C8 8.1874 7.87037 8.50221 7.61111 8.76147C7.35185 9.02073 7.03704 9.15036 6.66667 9.15036ZM6.66667 2.03925C6.79259 2.03925 6.89815 1.99666 6.98333 1.91147C7.06852 1.82629 7.11111 1.72073 7.11111 1.59481C7.11111 1.46888 7.06852 1.36333 6.98333 1.27814C6.89815 1.19296 6.79259 1.15036 6.66667 1.15036C6.54074 1.15036 6.43519 1.19296 6.35 1.27814C6.26481 1.36333 6.22222 1.46888 6.22222 1.59481C6.22222 1.72073 6.26481 1.82629 6.35 1.91147C6.43519 1.99666 6.54074 2.03925 6.66667 2.03925ZM1.33333 5.15036C1.45926 5.15036 1.56481 5.10777 1.65 5.02259C1.73519 4.9374 1.77778 4.83184 1.77778 4.70592C1.77778 4.57999 1.73519 4.47444 1.65 4.38925C1.56481 4.30407 1.45926 4.26147 1.33333 4.26147C1.20741 4.26147 1.10185 4.30407 1.01667 4.38925C0.931482 4.47444 0.888889 4.57999 0.888889 4.70592C0.888889 4.83184 0.931482 4.9374 1.01667 5.02259C1.10185 5.10777 1.20741 5.15036 1.33333 5.15036ZM6.66667 8.26147C6.79259 8.26147 6.89815 8.21888 6.98333 8.1337C7.06852 8.04851 7.11111 7.94296 7.11111 7.81703C7.11111 7.6911 7.06852 7.58555 6.98333 7.50036C6.89815 7.41518 6.79259 7.37259 6.66667 7.37259C6.54074 7.37259 6.43519 7.41518 6.35 7.50036C6.26481 7.58555 6.22222 7.6911 6.22222 7.81703C6.22222 7.94296 6.26481 8.04851 6.35 8.1337C6.43519 8.21888 6.54074 8.26147 6.66667 8.26147Z" fill="#8247DF"/>
</svg>
