<svg width="18" height="18" viewBox="0 0 18 18" fill="none" xmlns="http://www.w3.org/2000/svg">
<path d="M9.11996 9.83268C9.04488 9.82517 8.95479 9.82517 8.87221 9.83268C7.08542 9.77255 5.6665 8.30694 5.6665 6.50311C5.6665 4.66169 7.15299 3.16602 8.99984 3.16602C10.8392 3.16602 12.3332 4.66169 12.3332 6.50311C12.3257 8.30694 10.9067 9.77255 9.11996 9.83268Z" stroke="#462B9C" stroke-width="1.25" stroke-linecap="round" stroke-linejoin="round"/>
<path d="M4.71892 12.4276C2.64903 13.5235 2.64903 15.3095 4.71892 16.3988C7.07107 17.6436 10.9286 17.6436 13.2808 16.3988C15.3506 15.3028 15.3506 13.5168 13.2808 12.4276C10.9372 11.1895 7.07963 11.1895 4.71892 12.4276Z" stroke="#462B9C" stroke-width="1.25" stroke-linecap="round" stroke-linejoin="round"/>
<path d="M3.1665 7.74935V3.16602" stroke="#462B9C" stroke-width="1.25" stroke-linecap="round"/>
<path d="M1.5 6.49902V3.99902M16.5 6.49902V3.99902" stroke="#462B9C" stroke-width="1.25" stroke-linecap="round"/>
<path d="M14.8335 7.33268V3.16602" stroke="#462B9C" stroke-width="1.25" stroke-linecap="round"/>
<path d="M3.1665 6.49935C3.1665 3.27769 5.77818 0.666016 8.99984 0.666016C12.2215 0.666016 14.8332 3.27769 14.8332 6.49935V7.54715C14.8332 8.21019 14.5698 8.84607 14.1009 9.31492L13.5832 9.83268" stroke="#462B9C" stroke-width="1.25" stroke-linecap="round"/>
</svg>
