<svg width="16" height="16" viewBox="0 0 16 16" fill="none" xmlns="http://www.w3.org/2000/svg">
<g id="ph:t-shirt-fill">
<path id="Vector" d="M15.4745 3.82625L12.2395 2.0625C12.1662 2.02194 12.0839 2.00045 12.0001 2H10.0001C9.86751 2 9.74034 2.05268 9.64657 2.14645C9.5528 2.24021 9.50012 2.36739 9.50012 2.5C9.50012 2.89782 9.34209 3.27936 9.06078 3.56066C8.77948 3.84196 8.39795 4 8.00012 4C7.6023 4 7.22077 3.84196 6.93946 3.56066C6.65816 3.27936 6.50012 2.89782 6.50012 2.5C6.50012 2.36739 6.44744 2.24021 6.35367 2.14645C6.25991 2.05268 6.13273 2 6.00012 2H4.00012C3.91614 2.00035 3.8336 2.02184 3.76012 2.0625L0.525747 3.82625C0.295185 3.9481 0.12235 4.1564 0.0451405 4.40549C-0.0320692 4.65457 -0.00735227 4.92411 0.113872 5.155L1.31825 7.45563C1.40582 7.62103 1.53708 7.75925 1.69775 7.85523C1.85842 7.95121 2.04234 8.00129 2.2295 8H3.50012V13C3.50012 13.2652 3.60548 13.5196 3.79301 13.7071C3.98055 13.8946 4.23491 14 4.50012 14H11.5001C11.7653 14 12.0197 13.8946 12.2072 13.7071C12.3948 13.5196 12.5001 13.2652 12.5001 13V8H13.7714C13.9585 8.00129 14.1424 7.95121 14.3031 7.85523C14.4638 7.75925 14.595 7.62103 14.6826 7.45563L15.887 5.155C16.0082 4.92403 16.0328 4.65444 15.9555 4.40534C15.8781 4.15624 15.7052 3.94799 15.4745 3.82625ZM2.2295 7C2.22026 7.00044 2.21117 6.99755 2.20387 6.99188L1.00575 4.70375L3.50012 3.3425V7H2.2295ZM13.7964 6.99125C13.7929 6.99437 13.7889 6.99675 13.7845 6.99825C13.7801 6.99976 13.7754 7.00035 13.7707 7H12.5001V3.3425L14.9951 4.70375L13.7964 6.99125Z" fill="white"/>
</g>
</svg>
