<svg width="20" height="20" viewBox="0 0 20 20" fill="none" xmlns="http://www.w3.org/2000/svg">
<g id="Frame 183">
<path id="Vector" d="M12.675 10.875V10.825H12.625H10.05V7.375V7.325H10H9.125H9.075V7.375V11.75V11.8H9.125H12.625H12.675V11.75V10.875ZM7.325 3.875V3.925H7.375H9.075V4.76842C8.58531 4.84298 8.1171 4.9718 7.67049 5.15491C7.21114 5.34324 6.78605 5.57989 6.39534 5.86488C6.00498 6.14961 5.65132 6.47342 5.33441 6.83625C5.0174 7.19921 4.74631 7.59435 4.52119 8.02162C4.29595 8.44912 4.12363 8.9041 4.0042 9.38642C3.88471 9.86897 3.825 10.3652 3.825 10.875C3.825 11.4445 3.89849 11.9936 4.04558 12.5222C4.19256 13.0504 4.40164 13.5422 4.67287 13.9973C4.94382 14.4519 5.2653 14.8676 5.63728 15.2441C6.00955 15.621 6.42551 15.9427 6.88507 16.2093C7.34452 16.4758 7.83605 16.6824 8.35953 16.8294C8.88367 16.9765 9.43054 17.05 10 17.05C10.5695 17.05 11.1186 16.9765 11.6472 16.8294C12.1754 16.6824 12.6672 16.4734 13.1223 16.2021C13.5769 15.9312 13.9926 15.6097 14.3691 15.2377C14.746 14.8655 15.0677 14.4495 15.3343 13.9899C15.6008 13.5305 15.8074 13.0389 15.9544 12.5155C16.1015 11.9913 16.175 11.4445 16.175 10.875C16.175 9.98446 16.0074 9.16841 15.6715 8.42759C15.3425 7.70197 14.8766 7.03215 14.2745 6.41812L15.5931 5.09288L15.6282 5.05753L15.593 5.02226L14.9777 4.40703L14.9424 4.37167L14.907 4.40703L13.5149 5.79913C13.001 5.43911 12.4495 5.16687 11.8606 4.98256C11.2745 4.7991 10.6709 4.70498 10.05 4.70019V3.925H11.75H11.8V3.875V3V2.95H11.75H7.375H7.325V3V3.875ZM12.0173 15.6689C11.3904 15.9395 10.7182 16.075 10.0002 16.075C9.27737 16.0705 8.60278 15.9327 7.97587 15.6621C7.34809 15.3911 6.7974 15.0187 6.32344 14.5447C5.84948 14.0708 5.47705 13.5201 5.20606 12.8923C4.93548 12.2654 4.80002 11.5932 4.8 10.8752C4.80454 10.1524 4.94229 9.47778 5.2129 8.85087C5.48388 8.22309 5.85632 7.6724 6.33028 7.19844C6.80424 6.72448 7.35493 6.35205 7.98271 6.08106C8.60955 5.81048 9.28176 5.67502 9.99984 5.675C10.7226 5.67954 11.3972 5.81729 12.0241 6.0879C12.6519 6.35888 13.2026 6.73132 13.6766 7.20528C14.1505 7.67924 14.523 8.22993 14.7939 8.85771C15.0645 9.48455 15.2 10.1568 15.2 10.8748C15.1955 11.5976 15.0577 12.2722 14.7871 12.8991C14.5161 13.5269 14.1437 14.0776 13.6697 14.5516C13.1958 15.0255 12.6451 15.398 12.0173 15.6689Z" fill="#0A121A" stroke="black" stroke-width="0.1"/>
</g>
</svg>
