<?xml version="1.0" standalone="no"?>
<!DOCTYPE svg PUBLIC "-//W3C//DTD SVG 20010904//EN"
 "http://www.w3.org/TR/2001/REC-SVG-20010904/DTD/svg10.dtd">
<svg version="1.0" xmlns="http://www.w3.org/2000/svg"
 width="250.000000pt" height="268.000000pt" viewBox="0 0 250.000000 268.000000"
 preserveAspectRatio="xMidYMid meet">

<g transform="translate(0.000000,268.000000) scale(0.100000,-0.100000)"
fill="#000000" stroke="none">
<path d="M1591 2139 l-73 -219 -204 0 c-202 0 -205 0 -214 -22 -6 -13 -37
-129 -70 -258 -70 -274 -80 -313 -84 -308 -2 1 -36 132 -77 291 l-73 287 -208
0 c-114 0 -208 -3 -208 -6 0 -10 373 -1199 381 -1216 8 -14 31 -16 181 -18 95
0 174 -2 175 -4 2 -2 -23 -96 -57 -209 -33 -113 -60 -209 -59 -214 2 -19 356
1052 428 1297 190 637 241 813 239 816 -2 1 -37 -96 -77 -217z"/>
<path d="M1523 1674 c-12 -3 -24 -13 -27 -22 -53 -186 -88 -299 -137 -450 -34
-100 -59 -189 -56 -196 8 -21 102 -71 218 -117 129 -50 149 -63 149 -93 0 -36
-24 -49 -75 -43 -53 5 -83 28 -87 66 l-3 26 -132 3 -131 3 -35 -105 c-34 -102
-35 -105 -17 -133 28 -46 111 -117 170 -146 82 -39 163 -57 265 -57 197 0 333
68 406 202 33 61 34 67 34 173 0 100 -3 115 -29 168 -54 112 -156 191 -331
255 -149 55 -180 77 -154 108 14 17 100 19 117 2 7 -7 12 -20 12 -30 0 -17 14
-18 196 -18 l197 0 -6 55 c-6 62 -44 151 -83 198 -44 52 -119 103 -186 127
-62 21 -224 35 -275 24z"/>
</g>
</svg>
