<svg width="20" height="20" viewBox="0 0 20 20" fill="none" xmlns="http://www.w3.org/2000/svg">
<g id="vuesax/linear/wallet-2">
<path id="Vector" d="M10.833 7.5H5.83301" stroke="#181201" stroke-width="1.25" stroke-linecap="round" stroke-linejoin="round"/>
<path id="Vector_2" d="M18.3329 9.14293V10.8596C18.3329 11.318 17.9662 11.6929 17.4995 11.7096H15.8662C14.9662 11.7096 14.1412 11.0513 14.0662 10.1513C14.0162 9.62629 14.2162 9.13462 14.5662 8.79295C14.8745 8.47628 15.2995 8.29297 15.7662 8.29297H17.4995C17.9662 8.30964 18.3329 8.6846 18.3329 9.14293Z" stroke="#181201" stroke-width="1.25" stroke-linecap="round" stroke-linejoin="round"/>
<path id="Vector_3" d="M14.567 8.79101C14.217 9.13267 14.017 9.62434 14.067 10.1493C14.142 11.0493 14.967 11.7077 15.867 11.7077H17.5003V12.916C17.5003 15.416 15.8337 17.0827 13.3337 17.0827H5.83366C3.33366 17.0827 1.66699 15.416 1.66699 12.916V7.08268C1.66699 4.81602 3.03366 3.23268 5.15866 2.96601C5.37533 2.93268 5.60033 2.91602 5.83366 2.91602H13.3337C13.5503 2.91602 13.7587 2.92434 13.9587 2.95767C16.1087 3.20767 17.5003 4.79935 17.5003 7.08268V8.29103H15.767C15.3003 8.29103 14.8753 8.47434 14.567 8.79101Z" stroke="#181201" stroke-width="1.25" stroke-linecap="round" stroke-linejoin="round"/>
</g>
</svg>
