<svg width="63" height="17" viewBox="0 0 63 17" fill="none" xmlns="http://www.w3.org/2000/svg">
<g id="Logo_RGB-Wordmark+Brandmark(Blue)" clip-path="url(#clip0_707_19690)">
<g id="Layer_x0020_1">
<path id="Vector" d="M19.0416 13.4124C19.5297 13.4124 19.998 13.3437 20.4462 13.2061C20.8943 13.0685 21.2873 12.8666 21.6245 12.6002C21.9617 12.334 22.2325 12.0078 22.4367 11.6217C22.6409 11.2356 22.7429 10.7984 22.7429 10.3101C22.7429 9.97291 22.6853 9.67567 22.5697 9.41818C22.4544 9.1607 22.2968 8.93443 22.0972 8.73919C21.8974 8.54394 21.6622 8.37076 21.3916 8.21985C21.1208 8.06894 20.8256 7.92698 20.5061 7.79376C20.1866 7.66054 19.9225 7.54523 19.7139 7.4476C19.5053 7.34998 19.3388 7.25673 19.2145 7.16806C19.0903 7.07917 19.0016 6.98821 18.9483 6.89496C18.895 6.80192 18.8684 6.69305 18.8684 6.56879C18.8684 6.33815 18.986 6.12292 19.2212 5.9231C19.4564 5.72348 19.7915 5.62357 20.2266 5.62357C20.6791 5.62357 21.0765 5.70787 21.418 5.87647C21.7598 6.04507 22.1083 6.29361 22.4634 6.62207L23.8746 5.2108C23.4752 4.78471 22.9958 4.44751 22.4367 4.19897C21.8774 3.95044 21.1941 3.82617 20.3862 3.82617C19.8892 3.82617 19.4166 3.89715 18.9683 4.03911C18.5199 4.18107 18.1274 4.38527 17.7899 4.6515C17.4527 4.91793 17.1842 5.23973 16.9844 5.61691C16.7848 5.99408 16.6849 6.42245 16.6849 6.90162C16.6849 7.24799 16.7471 7.5496 16.8714 7.80708C16.9954 8.06457 17.1642 8.29312 17.3772 8.49274C17.5903 8.69256 17.8343 8.86554 18.1094 9.01208C18.3846 9.15841 18.6731 9.29391 18.9749 9.41818C19.2855 9.54245 19.543 9.65548 19.7472 9.75768C19.9514 9.85967 20.1133 9.95729 20.2332 10.0505C20.3529 10.1438 20.4374 10.2371 20.4861 10.3301C20.535 10.4233 20.5594 10.5276 20.5594 10.6432C20.5594 10.936 20.4262 11.1712 20.16 11.3488C19.8937 11.5261 19.5519 11.615 19.1348 11.615C18.6021 11.615 18.1273 11.5107 17.71 11.3022C17.2929 11.0936 16.8978 10.7895 16.525 10.39L14.9807 11.6949C15.8683 12.84 17.2219 13.4124 19.0416 13.4124Z" fill="white"/>
<path id="_1" d="M22.9429 13.2802H24.9665L25.5525 11.0834L26.5776 10.2578L27.5895 13.2802H29.8529L28.2951 8.92629L31.7435 6.14351H29.1073L26.2181 8.59346L27.5761 3.56055H25.5525L22.9429 13.2802Z" fill="white"/>
<path id="_2" d="M32.3694 5.35815H34.4996L34.9923 3.56055H32.8619L32.3694 5.35815ZM30.2922 13.2802H32.3161L34.2334 6.14351H32.2095L30.2922 13.2802Z" fill="white"/>
<path id="_3" d="M33.7141 13.2802H35.738L38.3476 3.56055H36.3237L33.7141 13.2802Z" fill="white"/>
<path id="_4" d="M37.1357 13.2802H39.1596L41.7692 3.56055H39.7456L37.1357 13.2802Z" fill="white"/>
<path id="_5" d="M43.4071 13.4391C43.8332 13.4391 44.226 13.3815 44.5855 13.2662C44.9449 13.1506 45.2534 12.9843 45.5107 12.7668C45.7682 12.5493 45.9701 12.2851 46.1166 11.9746C46.263 11.664 46.3362 11.3133 46.3362 10.9228C46.3362 10.6476 46.2786 10.4057 46.1633 10.1972C46.0477 9.98859 45.8968 9.80438 45.7105 9.64452C45.524 9.48487 45.3134 9.34728 45.078 9.23175C44.843 9.11644 44.6098 9.00549 44.379 8.89892C44.0772 8.76591 43.8442 8.64372 43.68 8.53278C43.5158 8.42183 43.4338 8.29528 43.4338 8.15332C43.4338 7.96702 43.5024 7.82048 43.64 7.71391C43.7776 7.60754 43.9708 7.55425 44.2193 7.55425C44.5122 7.55425 44.8094 7.61191 45.1113 7.72723C45.4131 7.84275 45.7372 8.038 46.0833 8.31318L47.1751 7.03492C47.0242 6.9017 46.8489 6.77535 46.6491 6.65545C46.4495 6.53556 46.2276 6.4269 45.9834 6.32928C45.7393 6.23166 45.482 6.15402 45.2112 6.09636C44.9406 6.03849 44.6587 6.00977 44.3659 6.00977C43.9219 6.00977 43.5224 6.07408 43.1675 6.20272C42.8124 6.33157 42.5129 6.50683 42.2687 6.72872C42.0246 6.95061 41.836 7.21455 41.7028 7.52095C41.5698 7.82714 41.5031 8.1579 41.5031 8.5128C41.5031 8.79692 41.5587 9.04317 41.6697 9.25174C41.7806 9.4603 41.9315 9.64452 42.1222 9.80438C42.3131 9.96403 42.5329 10.1083 42.7814 10.2371C43.0297 10.3658 43.2962 10.4877 43.5801 10.6033C43.8288 10.7096 44.0285 10.8141 44.1794 10.9161C44.3303 11.0181 44.4056 11.1357 44.4056 11.2689C44.4056 11.4731 44.3303 11.6284 44.1794 11.735C44.0285 11.8414 43.8199 11.8946 43.5537 11.8946C43.2339 11.8946 42.8834 11.828 42.5017 11.695C42.1201 11.5618 41.7427 11.3089 41.3699 10.9361L40.1982 12.1478C40.4114 12.3696 40.6466 12.5603 40.9041 12.7202C41.1614 12.88 41.4299 13.013 41.7094 13.1196C41.9892 13.2262 42.2754 13.3059 42.5683 13.3592C42.8611 13.4125 43.1407 13.4391 43.4071 13.4391Z" fill="white"/>
<path id="_6" d="M46.7356 13.2792H48.7861L49.545 10.4565H51.3158C51.9548 10.4565 52.5495 10.3765 53.0998 10.2169C53.6502 10.057 54.1273 9.8218 54.5313 9.51124C54.9351 9.20047 55.2546 8.81871 55.4899 8.36619C55.7251 7.91346 55.8427 7.3987 55.8427 6.8217C55.8427 6.02281 55.6031 5.38358 55.1237 4.90441C54.7865 4.567 54.3804 4.32512 53.9054 4.17879C53.4306 4.03225 52.8603 3.95898 52.1946 3.95898H49.2388L46.7356 13.2792ZM50.0244 8.65906L50.7833 5.80967H52.1147C52.4252 5.80967 52.6806 5.84297 52.8802 5.90958C53.0799 5.97619 53.2508 6.08047 53.3929 6.22243C53.5969 6.42663 53.6991 6.68411 53.6991 6.99468C53.6991 7.52734 53.4906 7.93781 53.0732 8.22631C52.6561 8.51481 52.1057 8.65906 51.4224 8.65906H50.0244Z" fill="white"/>
<path id="_7" d="M57.4672 10.4168H62.3536C62.4691 10.1416 62.5578 9.86641 62.6198 9.59123C62.682 9.31606 62.7131 9.04983 62.7131 8.79234C62.7131 8.3929 62.6487 8.02468 62.5201 7.68726C62.3912 7.35006 62.2027 7.05719 61.9541 6.80865C61.7056 6.56012 61.3994 6.36487 61.0356 6.2227C60.6715 6.08075 60.2587 6.00977 59.7973 6.00977C59.158 6.00977 58.5789 6.13403 58.0598 6.38257C57.5405 6.6311 57.0944 6.95727 56.7216 7.36109C56.3488 7.7649 56.0626 8.22222 55.8628 8.7326C55.6631 9.24299 55.5632 9.75546 55.5632 10.2704C55.5632 10.7675 55.6388 11.2113 55.7897 11.6018C55.9404 11.9923 56.1579 12.323 56.4421 12.5938C56.726 12.8644 57.0721 13.073 57.4805 13.2195C57.8889 13.3659 58.3504 13.4391 58.8651 13.4391C59.4777 13.4391 60.0081 13.3482 60.4563 13.1662C60.9046 12.9843 61.2885 12.7601 61.608 12.4939L60.6761 11.2423C60.383 11.4465 60.1124 11.5928 59.8639 11.6817C59.6153 11.7704 59.3578 11.8147 59.0916 11.8147C58.559 11.8147 58.1641 11.6884 57.9066 11.4353C57.6491 11.1823 57.5028 10.8429 57.4672 10.4168ZM57.6402 9.15182C57.809 8.6993 58.0686 8.33316 58.4193 8.0534C58.7698 7.77386 59.1759 7.63419 59.6374 7.63419C60.0547 7.63419 60.3543 7.73618 60.5362 7.94038C60.7181 8.14437 60.8091 8.3929 60.8091 8.68598C60.8091 8.84563 60.787 9.00091 60.7425 9.15182H57.6402Z" fill="white"/>
<g id="Group">
<g id="Clip path group">
<mask id="mask0_707_19690" style="mask-type:luminance" maskUnits="userSpaceOnUse" x="0" y="0" width="12" height="17">
<g id="id0">
<path id="Vector_2" d="M8.82341 0C9.76342 0.558056 10.5357 1.37172 11.0434 2.34317C9.72221 4.95735 7.00811 6.76078 3.89311 6.76078V6.76099C7.6436 6.76099 10.8125 9.37497 11.6693 12.8711C11.6064 13.4537 11.4565 14.0114 11.2338 14.5311C10.309 14.0342 9.25178 13.7522 8.12859 13.7522C5.71195 13.7522 3.60045 15.0569 2.45895 17C1.59387 16.3801 0.902592 15.5309 0.476296 14.5432C1.86217 12.1411 4.45866 10.5156 7.4163 10.5156V10.5152C4.07587 10.5152 1.19692 8.44161 0.00170898 5.51812V5.03458C0.00170898 4.44905 0.089341 3.88287 0.251283 3.34834C1.04309 3.68638 1.91442 3.87371 2.82946 3.87371C5.49755 3.87371 7.79389 2.28385 8.82341 0Z" fill="white"/>
</g>
</mask>
<g mask="url(#mask0_707_19690)">
<g id="Group_2">
<path id="Vector_3" fill-rule="evenodd" clip-rule="evenodd" d="M10.048 -0.4375L10.2732 0.19216L-2.96448 4.92971L-3.1897 4.30005L10.048 -0.4375Z" fill="#FFD374"/>
<path id="_1_0" fill-rule="evenodd" clip-rule="evenodd" d="M10.265 0.167969L10.2904 0.239573L-2.94726 4.97712L-2.97266 4.90572L10.265 0.167969Z" fill="#FFD374"/>
<path id="_2_1" fill-rule="evenodd" clip-rule="evenodd" d="M10.282 0.214844L10.3074 0.286448L-2.93021 5.02399L-2.95581 4.9526L10.282 0.214844Z" fill="#FFD374"/>
<path id="_3_2" fill-rule="evenodd" clip-rule="evenodd" d="M10.2987 0.263672L10.3243 0.335068L-2.91336 5.07261L-2.93896 5.00122L10.2987 0.263672Z" fill="#FFD374"/>
<path id="_4_3" fill-rule="evenodd" clip-rule="evenodd" d="M10.3158 0.310547L10.3414 0.381943L-2.89627 5.11949L-2.92188 5.04809L10.3158 0.310547Z" fill="#FFD374"/>
<path id="_5_4" fill-rule="evenodd" clip-rule="evenodd" d="M10.3329 0.359375L10.3585 0.430771L-2.87918 5.16832L-2.90479 5.09692L10.3329 0.359375Z" fill="#FFD274"/>
<path id="_6_5" fill-rule="evenodd" clip-rule="evenodd" d="M10.35 0.40625L10.3756 0.477854L-2.86209 5.2154L-2.8877 5.144L10.35 0.40625Z" fill="#FFD274"/>
<path id="_7_6" fill-rule="evenodd" clip-rule="evenodd" d="M10.367 0.453125L10.3926 0.524729L-2.845 5.26227L-2.87061 5.19088L10.367 0.453125Z" fill="#FFD274"/>
<path id="_8" fill-rule="evenodd" clip-rule="evenodd" d="M10.3841 0.501953L10.4097 0.573349L-2.82791 5.31089L-2.85352 5.2395L10.3841 0.501953Z" fill="#FFD175"/>
<path id="_9" fill-rule="evenodd" clip-rule="evenodd" d="M10.4012 0.548828L10.4268 0.620224L-2.81103 5.35777L-2.83643 5.28637L10.4012 0.548828Z" fill="#FFD175"/>
<path id="_10" fill-rule="evenodd" clip-rule="evenodd" d="M10.4183 0.597656L10.4437 0.669053L-2.79394 5.4066L-2.81934 5.3352L10.4183 0.597656Z" fill="#FFD175"/>
<path id="_11" fill-rule="evenodd" clip-rule="evenodd" d="M10.4354 0.644531L10.4608 0.715927L-2.77685 5.45347L-2.80225 5.38208L10.4354 0.644531Z" fill="#FFD075"/>
<path id="_12" fill-rule="evenodd" clip-rule="evenodd" d="M10.4525 0.691406L10.4778 0.763011L-2.7598 5.50056L-2.7854 5.42916L10.4525 0.691406Z" fill="#FFCF75"/>
<path id="_13" fill-rule="evenodd" clip-rule="evenodd" d="M10.4693 0.740234L10.4949 0.811839L-2.74271 5.54918L-2.76831 5.47778L10.4693 0.740234Z" fill="#FFCF76"/>
<path id="_14" fill-rule="evenodd" clip-rule="evenodd" d="M10.4864 0.787109L10.512 0.858506L-2.72562 5.59605L-2.75122 5.52465L10.4864 0.787109Z" fill="#FFCE76"/>
<path id="_15" fill-rule="evenodd" clip-rule="evenodd" d="M10.5033 0.835938L10.5289 0.907334L-2.70877 5.64488L-2.73438 5.57348L10.5033 0.835938Z" fill="#FFCE76"/>
<path id="_16" fill-rule="evenodd" clip-rule="evenodd" d="M10.5204 0.882812L10.546 0.954209L-2.69168 5.69175L-2.71729 5.62036L10.5204 0.882812Z" fill="#FFCD76"/>
<path id="_17" fill-rule="evenodd" clip-rule="evenodd" d="M10.5375 0.929688L10.5631 1.00129L-2.67459 5.73884L-2.7002 5.66744L10.5375 0.929688Z" fill="#FFCC77"/>
<path id="_18" fill-rule="evenodd" clip-rule="evenodd" d="M10.5545 0.978516L10.5801 1.05012L-2.6575 5.78766L-2.68311 5.71606L10.5545 0.978516Z" fill="#FFCB77"/>
<path id="_19" fill-rule="evenodd" clip-rule="evenodd" d="M10.5716 1.02539L10.597 1.09679L-2.64066 5.83433L-2.66626 5.76294L10.5716 1.02539Z" fill="#FFCA77"/>
<path id="_20" fill-rule="evenodd" clip-rule="evenodd" d="M10.5885 1.07422L10.6141 1.14561L-2.62357 5.88316L-2.64917 5.81176L10.5885 1.07422Z" fill="#FFCA78"/>
<path id="_21" fill-rule="evenodd" clip-rule="evenodd" d="M10.6056 1.12109L10.6312 1.19249L-2.60648 5.93003L-2.63208 5.85864L10.6056 1.12109Z" fill="#FFC978"/>
<path id="_22" fill-rule="evenodd" clip-rule="evenodd" d="M10.6227 1.16797L10.6483 1.23957L-2.58939 5.97712L-2.61499 5.90572L10.6227 1.16797Z" fill="#FFC878"/>
<path id="_23" fill-rule="evenodd" clip-rule="evenodd" d="M10.6397 1.2168L10.6653 1.2884L-2.5723 6.02595L-2.5979 5.95434L10.6397 1.2168Z" fill="#FFC779"/>
<path id="_24" fill-rule="evenodd" clip-rule="evenodd" d="M10.6568 1.26367L10.6824 1.33507L-2.55521 6.07282L-2.58081 6.00122L10.6568 1.26367Z" fill="#FFC679"/>
<path id="_25" fill-rule="evenodd" clip-rule="evenodd" d="M10.6739 1.31055L10.6995 1.38194L-2.53812 6.11949L-2.56372 6.04809L10.6739 1.31055Z" fill="#FFC579"/>
<path id="_26" fill-rule="evenodd" clip-rule="evenodd" d="M10.691 1.35938L10.7166 1.43077L-2.52103 6.16832L-2.54663 6.09692L10.691 1.35938Z" fill="#FFC47A"/>
<path id="_27" fill-rule="evenodd" clip-rule="evenodd" d="M10.7081 1.40625L10.7335 1.47785L-2.50394 6.2154L-2.52954 6.144L10.7081 1.40625Z" fill="#FFC27A"/>
<path id="_28" fill-rule="evenodd" clip-rule="evenodd" d="M10.7252 1.45508L10.7506 1.52668L-2.48709 6.26423L-2.5127 6.19283L10.7252 1.45508Z" fill="#FFC17B"/>
<path id="_29" fill-rule="evenodd" clip-rule="evenodd" d="M10.742 1.50195L10.7676 1.57335L-2.47 6.3111L-2.49561 6.2395L10.742 1.50195Z" fill="#FFC07B"/>
<path id="_30" fill-rule="evenodd" clip-rule="evenodd" d="M10.7589 1.54883L10.7845 1.62022L-2.45316 6.35798L-2.47876 6.28637L10.7589 1.54883Z" fill="#FFBF7C"/>
<path id="_31" fill-rule="evenodd" clip-rule="evenodd" d="M10.776 1.59766L10.8016 1.66905L-2.43607 6.4066L-2.46167 6.3352L10.776 1.59766Z" fill="#FFBE7C"/>
<path id="_32" fill-rule="evenodd" clip-rule="evenodd" d="M10.7931 1.64453L10.8187 1.71593L-2.41898 6.45347L-2.44458 6.38208L10.7931 1.64453Z" fill="#FFBC7D"/>
<path id="_33" fill-rule="evenodd" clip-rule="evenodd" d="M10.8102 1.69141L10.8358 1.76301L-2.40189 6.50056L-2.42749 6.42916L10.8102 1.69141Z" fill="#FFBB7D"/>
<path id="_34" fill-rule="evenodd" clip-rule="evenodd" d="M10.8272 1.74023L10.8528 1.81184L-2.3848 6.54938L-2.4104 6.47778L10.8272 1.74023Z" fill="#FFBA7E"/>
<path id="_35" fill-rule="evenodd" clip-rule="evenodd" d="M10.8443 1.78711L10.8699 1.85851L-2.36792 6.59626L-2.39331 6.52465L10.8443 1.78711Z" fill="#FFB97E"/>
<path id="_36" fill-rule="evenodd" clip-rule="evenodd" d="M10.8614 1.83594L10.8868 1.90733L-2.35083 6.64488L-2.37622 6.57348L10.8614 1.83594Z" fill="#FFB77F"/>
<path id="_37" fill-rule="evenodd" clip-rule="evenodd" d="M10.8785 1.88281L10.9039 1.95421L-2.33374 6.69175L-2.35913 6.62036L10.8785 1.88281Z" fill="#FFB67F"/>
<path id="_38" fill-rule="evenodd" clip-rule="evenodd" d="M10.8956 1.92969L10.921 2.00129L-2.31668 6.73884L-2.34229 6.66744L10.8956 1.92969Z" fill="#FFB480"/>
<path id="_39" fill-rule="evenodd" clip-rule="evenodd" d="M10.9125 1.97852L10.9381 2.05012L-2.29959 6.78766L-2.3252 6.71606L10.9125 1.97852Z" fill="#FFB380"/>
<path id="_40" fill-rule="evenodd" clip-rule="evenodd" d="M10.9295 2.02539L10.9551 2.09679L-2.2825 6.83454L-2.30811 6.76294L10.9295 2.02539Z" fill="#FFB181"/>
<path id="_41" fill-rule="evenodd" clip-rule="evenodd" d="M10.9466 2.07422L10.9722 2.14561L-2.26541 6.88316L-2.29102 6.81176L10.9466 2.07422Z" fill="#FFB081"/>
<path id="_42" fill-rule="evenodd" clip-rule="evenodd" d="M10.9637 2.12109L10.9893 2.19249L-2.24832 6.93003L-2.27393 6.85864L10.9637 2.12109Z" fill="#FFAE82"/>
<path id="_43" fill-rule="evenodd" clip-rule="evenodd" d="M10.9806 2.16797L11.0062 2.23957L-2.23148 6.97712L-2.25708 6.90572L10.9806 2.16797Z" fill="#FFAD83"/>
<path id="_44" fill-rule="evenodd" clip-rule="evenodd" d="M10.9977 2.2168L11.0233 2.2884L-2.21439 7.02595L-2.23999 6.95434L10.9977 2.2168Z" fill="#FFAB83"/>
<path id="_45" fill-rule="evenodd" clip-rule="evenodd" d="M11.0147 2.26367L11.0403 2.33507L-2.19751 7.07282L-2.2229 7.00122L11.0147 2.26367Z" fill="#FFAA84"/>
<path id="_46" fill-rule="evenodd" clip-rule="evenodd" d="M11.0316 2.3125L11.0572 2.3839L-2.18045 7.12144L-2.20605 7.05005L11.0316 2.3125Z" fill="#FFA885"/>
<path id="_47" fill-rule="evenodd" clip-rule="evenodd" d="M11.0487 2.35938L11.0743 2.43077L-2.16336 7.16832L-2.18896 7.09692L11.0487 2.35938Z" fill="#FFA785"/>
<path id="_48" fill-rule="evenodd" clip-rule="evenodd" d="M11.0658 2.40625L11.0914 2.47765L-2.14627 7.21519L-2.17188 7.1438L11.0658 2.40625Z" fill="#FFA586"/>
<path id="_49" fill-rule="evenodd" clip-rule="evenodd" d="M11.0829 2.45508L11.1085 2.52668L-2.12918 7.26423L-2.15479 7.19283L11.0829 2.45508Z" fill="#FFA386"/>
<path id="_50" fill-rule="evenodd" clip-rule="evenodd" d="M11.1 2.50195L11.1256 2.57335L-2.11209 7.3111L-2.1377 7.2395L11.1 2.50195Z" fill="#FFA287"/>
<path id="_51" fill-rule="evenodd" clip-rule="evenodd" d="M11.117 2.55078L11.1426 2.62218L-2.095 7.35972L-2.12061 7.28833L11.117 2.55078Z" fill="#FFA088"/>
<path id="_52" fill-rule="evenodd" clip-rule="evenodd" d="M11.1341 2.59766L11.1597 2.66905L-2.07791 7.4066L-2.10352 7.3352L11.1341 2.59766Z" fill="#FF9E88"/>
<path id="_53" fill-rule="evenodd" clip-rule="evenodd" d="M11.1512 2.64453L11.1768 2.71593L-2.06082 7.45347L-2.08643 7.38208L11.1512 2.64453Z" fill="#FF9D89"/>
<path id="_54" fill-rule="evenodd" clip-rule="evenodd" d="M11.1683 2.69336L11.1939 2.76496L-2.04373 7.50251L-2.06934 7.43111L11.1683 2.69336Z" fill="#FF9B8A"/>
<path id="_55" fill-rule="evenodd" clip-rule="evenodd" d="M11.1854 2.74023L11.211 2.81163L-2.02689 7.54938L-2.05249 7.47778L11.1854 2.74023Z" fill="#FF998B"/>
<path id="_56" fill-rule="evenodd" clip-rule="evenodd" d="M11.2022 2.78711L11.2278 2.85851L-2.0098 7.59626L-2.0354 7.52465L11.2022 2.78711Z" fill="#FF988B"/>
<path id="_57" fill-rule="evenodd" clip-rule="evenodd" d="M11.2193 2.83594L11.2449 2.90733L-1.99271 7.64488L-2.01831 7.57348L11.2193 2.83594Z" fill="#FF968C"/>
<path id="_58" fill-rule="evenodd" clip-rule="evenodd" d="M11.2364 2.88281L11.262 2.95421L-1.97562 7.69175L-2.00122 7.62036L11.2364 2.88281Z" fill="#FF948D"/>
<path id="_59" fill-rule="evenodd" clip-rule="evenodd" d="M11.2533 2.93164L11.2789 3.00304L-1.95877 7.74058L-1.98438 7.66919L11.2533 2.93164Z" fill="#FF938D"/>
<path id="_60" fill-rule="evenodd" clip-rule="evenodd" d="M11.2704 2.97852L11.296 3.05012L-1.94168 7.78766L-1.96729 7.71606L11.2704 2.97852Z" fill="#FF918E"/>
<path id="_61" fill-rule="evenodd" clip-rule="evenodd" d="M11.2875 3.02539L11.3131 3.09679L-1.92459 7.83454L-1.9502 7.76294L11.2875 3.02539Z" fill="#FF8F8F"/>
<path id="_62" fill-rule="evenodd" clip-rule="evenodd" d="M11.3045 3.07422L11.3301 3.14561L-1.90771 7.88316L-1.93311 7.81176L11.3045 3.07422Z" fill="#FF8D90"/>
<path id="_63" fill-rule="evenodd" clip-rule="evenodd" d="M11.3216 3.12109L11.347 3.19249L-1.89062 7.93004L-1.91602 7.85864L11.3216 3.12109Z" fill="#FF8C90"/>
<path id="_64" fill-rule="evenodd" clip-rule="evenodd" d="M11.3387 3.16992L11.3641 3.24132L-1.87353 7.97886L-1.89893 7.90747L11.3387 3.16992Z" fill="#FF8A91"/>
<path id="_65" fill-rule="evenodd" clip-rule="evenodd" d="M11.3558 3.2168L11.3812 3.28819L-1.85648 8.02574L-1.88208 7.95413L11.3558 3.2168Z" fill="#FF8892"/>
<path id="_66" fill-rule="evenodd" clip-rule="evenodd" d="M11.3727 3.26367L11.3983 3.33507L-1.83939 8.07282L-1.86499 8.00122L11.3727 3.26367Z" fill="#FF8693"/>
<path id="_67" fill-rule="evenodd" clip-rule="evenodd" d="M11.3897 3.3125L11.4153 3.3839L-1.8223 8.12144L-1.8479 8.05005L11.3897 3.3125Z" fill="#FF8593"/>
<path id="_68" fill-rule="evenodd" clip-rule="evenodd" d="M11.4068 3.35938L11.4324 3.43077L-1.80521 8.16832L-1.83081 8.09692L11.4068 3.35938Z" fill="#FF8394"/>
<path id="_69" fill-rule="evenodd" clip-rule="evenodd" d="M11.4239 3.4082L11.4495 3.4796L-1.78812 8.21714L-1.81372 8.14575L11.4239 3.4082Z" fill="#FF8195"/>
<path id="_70" fill-rule="evenodd" clip-rule="evenodd" d="M11.441 3.45508L11.4666 3.52647L-1.77103 8.26402L-1.79663 8.19241L11.441 3.45508Z" fill="#FF7F96"/>
<path id="_71" fill-rule="evenodd" clip-rule="evenodd" d="M11.4581 3.50195L11.4837 3.57335L-1.75394 8.3111L-1.77954 8.2395L11.4581 3.50195Z" fill="#FF7D96"/>
<path id="_72" fill-rule="evenodd" clip-rule="evenodd" d="M11.475 3.55078L11.5006 3.62218L-1.7373 8.35972L-1.7627 8.28833L11.475 3.55078Z" fill="#FF7C97"/>
<path id="_73" fill-rule="evenodd" clip-rule="evenodd" d="M11.492 3.59766L11.5174 3.66905L-1.72021 8.4066L-1.74561 8.3352L11.492 3.59766Z" fill="#FF7A98"/>
<path id="_74" fill-rule="evenodd" clip-rule="evenodd" d="M11.5089 3.64648L11.5345 3.71788L-1.70312 8.45543L-1.72852 8.38403L11.5089 3.64648Z" fill="#FF7899"/>
<path id="_75" fill-rule="evenodd" clip-rule="evenodd" d="M11.526 3.69336L11.5516 3.76476L-1.68607 8.5023L-1.71167 8.4309L11.526 3.69336Z" fill="#FF7699"/>
<path id="_76" fill-rule="evenodd" clip-rule="evenodd" d="M11.5431 3.74023L11.5687 3.81163L-1.66898 8.54938L-1.69458 8.47778L11.5431 3.74023Z" fill="#FF759A"/>
<path id="_77" fill-rule="evenodd" clip-rule="evenodd" d="M11.5602 3.78906L11.5858 3.86046L-1.65189 8.59821L-1.67749 8.52661L11.5602 3.78906Z" fill="#FF739B"/>
<path id="_78" fill-rule="evenodd" clip-rule="evenodd" d="M11.5772 3.83594L11.6028 3.90733L-1.6348 8.64488L-1.6604 8.57348L11.5772 3.83594Z" fill="#FF719C"/>
<path id="_79" fill-rule="evenodd" clip-rule="evenodd" d="M11.5943 3.88281L11.6199 3.95421L-1.61771 8.69175L-1.64331 8.62036L11.5943 3.88281Z" fill="#FF709C"/>
<path id="_80" fill-rule="evenodd" clip-rule="evenodd" d="M11.6114 3.93164L11.637 4.00304L-1.60062 8.74058L-1.62622 8.66919L11.6114 3.93164Z" fill="#FF6E9D"/>
<path id="_81" fill-rule="evenodd" clip-rule="evenodd" d="M11.6285 3.97852L11.6541 4.04991L-1.58374 8.78766L-1.60913 8.71606L11.6285 3.97852Z" fill="#FF6C9E"/>
<path id="_82" fill-rule="evenodd" clip-rule="evenodd" d="M11.6456 4.02539L11.671 4.09679L-1.56668 8.83454L-1.59229 8.76294L11.6456 4.02539Z" fill="#FF6A9F"/>
<path id="_83" fill-rule="evenodd" clip-rule="evenodd" d="M11.6625 4.07422L11.6881 4.14562L-1.54959 8.88316L-1.5752 8.81176L11.6625 4.07422Z" fill="#FF69A0"/>
<path id="_84" fill-rule="evenodd" clip-rule="evenodd" d="M11.6795 4.12109L11.7051 4.19249L-1.5325 8.93003L-1.55811 8.85864L11.6795 4.12109Z" fill="#FF67A0"/>
<path id="_85" fill-rule="evenodd" clip-rule="evenodd" d="M11.6966 4.16992L11.7222 4.24132L-1.51541 8.97886L-1.54102 8.90747L11.6966 4.16992Z" fill="#FF65A1"/>
<path id="_86" fill-rule="evenodd" clip-rule="evenodd" d="M11.7137 4.2168L11.7393 4.2884L-1.49832 9.02595L-1.52393 8.95455L11.7137 4.2168Z" fill="#FF64A2"/>
<path id="_87" fill-rule="evenodd" clip-rule="evenodd" d="M11.7306 4.26367L11.7562 4.33507L-1.48148 9.07282L-1.50708 9.00122L11.7306 4.26367Z" fill="#FF62A3"/>
<path id="_88" fill-rule="evenodd" clip-rule="evenodd" d="M11.7477 4.3125L11.7733 4.3839L-1.46439 9.12144L-1.48999 9.05005L11.7477 4.3125Z" fill="#FF61A3"/>
<path id="_89" fill-rule="evenodd" clip-rule="evenodd" d="M11.7647 4.35938L11.7901 4.43077L-1.44751 9.16832L-1.4729 9.09692L11.7647 4.35938Z" fill="#FF5FA4"/>
<path id="_90" fill-rule="evenodd" clip-rule="evenodd" d="M11.7818 4.4082L11.8072 4.4796L-1.43042 9.21714L-1.45581 9.14575L11.7818 4.4082Z" fill="#FF5DA5"/>
<path id="_91" fill-rule="evenodd" clip-rule="evenodd" d="M11.7989 4.45508L11.8243 4.52647L-1.41336 9.26402L-1.43896 9.19262L11.7989 4.45508Z" fill="#FF5CA6"/>
<path id="_92" fill-rule="evenodd" clip-rule="evenodd" d="M11.8158 4.50195L11.8414 4.57335L-1.39627 9.3111L-1.42188 9.23971L11.8158 4.50195Z" fill="#FF5AA6"/>
<path id="_93" fill-rule="evenodd" clip-rule="evenodd" d="M11.8329 4.55078L11.8585 4.62218L-1.37918 9.35972L-1.40479 9.28833L11.8329 4.55078Z" fill="#FF59A7"/>
<path id="_94" fill-rule="evenodd" clip-rule="evenodd" d="M11.85 4.59766L11.8756 4.66905L-1.36209 9.4066L-1.3877 9.3352L11.85 4.59766Z" fill="#FF57A8"/>
<path id="_95" fill-rule="evenodd" clip-rule="evenodd" d="M11.867 4.64453L11.8926 4.71593L-1.345 9.45347L-1.37061 9.38208L11.867 4.64453Z" fill="#FF56A9"/>
<path id="_96" fill-rule="evenodd" clip-rule="evenodd" d="M11.8841 4.69336L11.9097 4.76476L-1.32791 9.5023L-1.35352 9.4309L11.8841 4.69336Z" fill="#FF54A9"/>
<path id="_97" fill-rule="evenodd" clip-rule="evenodd" d="M11.9012 4.74023L11.9268 4.81163L-1.31082 9.54938L-1.33643 9.47799L11.9012 4.74023Z" fill="#FF53AA"/>
<path id="_98" fill-rule="evenodd" clip-rule="evenodd" d="M11.9183 4.78906L11.9439 4.86046L-1.29394 9.598L-1.31934 9.52661L11.9183 4.78906Z" fill="#FF51AB"/>
<path id="_99" fill-rule="evenodd" clip-rule="evenodd" d="M11.9354 4.83594L11.9608 4.90733L-1.27685 9.64488L-1.30225 9.57348L11.9354 4.83594Z" fill="#FF50AC"/>
<path id="_100" fill-rule="evenodd" clip-rule="evenodd" d="M11.9522 4.88281L11.9776 4.95421L-1.26001 9.69175L-1.2854 9.62036L11.9522 4.88281Z" fill="#FF4FAC"/>
<path id="_101" fill-rule="evenodd" clip-rule="evenodd" d="M11.9693 4.93164L11.9947 5.00304L-1.24295 9.74058L-1.26855 9.66919L11.9693 4.93164Z" fill="#FF4DAD"/>
<path id="_102" fill-rule="evenodd" clip-rule="evenodd" d="M11.9862 4.97852L12.0118 5.04991L-1.22586 9.78766L-1.25146 9.71627L11.9862 4.97852Z" fill="#FF4CAE"/>
<path id="_103" fill-rule="evenodd" clip-rule="evenodd" d="M12.0033 5.02734L12.0289 5.09874L-1.20877 9.83649L-1.23438 9.76489L12.0033 5.02734Z" fill="#FF4BAE"/>
<path id="_104" fill-rule="evenodd" clip-rule="evenodd" d="M12.0204 5.07422L12.046 5.14562L-1.19168 9.88316L-1.21729 9.81176L12.0204 5.07422Z" fill="#FF49AF"/>
<path id="_105" fill-rule="evenodd" clip-rule="evenodd" d="M12.0375 5.12109L12.0631 5.19249L-1.17459 9.93003L-1.2002 9.85864L12.0375 5.12109Z" fill="#FF48B0"/>
<path id="_106" fill-rule="evenodd" clip-rule="evenodd" d="M12.0545 5.16992L12.0801 5.24132L-1.1575 9.97886L-1.18311 9.90747L12.0545 5.16992Z" fill="#FF47B1"/>
<path id="_107" fill-rule="evenodd" clip-rule="evenodd" d="M12.0716 5.2168L12.0972 5.2884L-1.14041 10.0259L-1.16602 9.95455L12.0716 5.2168Z" fill="#FF46B1"/>
<path id="_108" fill-rule="evenodd" clip-rule="evenodd" d="M12.0887 5.26562L12.1143 5.33702L-1.12357 10.0748L-1.14917 10.0034L12.0887 5.26562Z" fill="#FF45B2"/>
<path id="_109" fill-rule="evenodd" clip-rule="evenodd" d="M12.1056 5.3125L12.1312 5.3839L-1.10648 10.1214L-1.13208 10.05L12.1056 5.3125Z" fill="#FF44B3"/>
<path id="_110" fill-rule="evenodd" clip-rule="evenodd" d="M12.1227 5.35938L12.1483 5.43077L-1.08939 10.1683L-1.11499 10.0969L12.1227 5.35938Z" fill="#FF42B3"/>
<path id="_111" fill-rule="evenodd" clip-rule="evenodd" d="M12.1397 5.4082L12.1653 5.4796L-1.0723 10.2171L-1.0979 10.1457L12.1397 5.4082Z" fill="#FF41B4"/>
<path id="_112" fill-rule="evenodd" clip-rule="evenodd" d="M12.1568 5.45508L12.1824 5.52647L-1.05521 10.264L-1.08081 10.1926L12.1568 5.45508Z" fill="#FF40B5"/>
<path id="_113" fill-rule="evenodd" clip-rule="evenodd" d="M12.1739 5.50195L12.1995 5.57335L-1.03812 10.3111L-1.06372 10.2397L12.1739 5.50195Z" fill="#FF3FB5"/>
<path id="_114" fill-rule="evenodd" clip-rule="evenodd" d="M12.191 5.55078L12.2166 5.62218L-1.02103 10.3597L-1.04663 10.2883L12.191 5.55078Z" fill="#FF3EB6"/>
<path id="_115" fill-rule="evenodd" clip-rule="evenodd" d="M12.2079 5.59766L12.2335 5.66905L-1.00418 10.4066L-1.02979 10.3352L12.2079 5.59766Z" fill="#FF3EB6"/>
<path id="_116" fill-rule="evenodd" clip-rule="evenodd" d="M12.225 5.64648L12.2506 5.71788L-0.987093 10.4554L-1.0127 10.384L12.225 5.64648Z" fill="#FF3DB7"/>
<path id="_117" fill-rule="evenodd" clip-rule="evenodd" d="M12.242 5.69336L12.2674 5.76476L-0.970003 10.5023L-0.995605 10.4309L12.242 5.69336Z" fill="#FF3CB8"/>
<path id="_118" fill-rule="evenodd" clip-rule="evenodd" d="M12.2591 5.74023L12.2845 5.81184L-0.953157 10.5494L-0.97876 10.478L12.2591 5.74023Z" fill="#FF3BB8"/>
<path id="_119" fill-rule="evenodd" clip-rule="evenodd" d="M12.276 5.78906L12.3016 5.86046L-0.936067 10.598L-0.96167 10.5266L12.276 5.78906Z" fill="#FF3AB9"/>
<path id="_120" fill-rule="evenodd" clip-rule="evenodd" d="M12.2931 5.83594L12.3187 5.90733L-0.918977 10.6449L-0.94458 10.5735L12.2931 5.83594Z" fill="#FF3AB9"/>
<path id="_121" fill-rule="evenodd" clip-rule="evenodd" d="M12.3102 5.88281L12.3358 5.95421L-0.901888 10.6918L-0.92749 10.6204L12.3102 5.88281Z" fill="#FF39BA"/>
<path id="_122" fill-rule="evenodd" clip-rule="evenodd" d="M12.3272 5.93164L12.3528 6.00304L-0.884798 10.7406L-0.9104 10.6692L12.3272 5.93164Z" fill="#FF38BB"/>
<path id="_123" fill-rule="evenodd" clip-rule="evenodd" d="M12.3443 5.97852L12.3699 6.05012L-0.867708 10.7877L-0.893311 10.7163L12.3443 5.97852Z" fill="#FF38BB"/>
<path id="_124" fill-rule="evenodd" clip-rule="evenodd" d="M12.3614 6.02539L12.387 6.097L-0.850618 10.8345L-0.876221 10.7629L12.3614 6.02539Z" fill="#FF37BC"/>
<path id="_125" fill-rule="evenodd" clip-rule="evenodd" d="M12.3785 6.07422L12.4041 6.14561L-0.833736 10.8832L-0.859131 10.8118L12.3785 6.07422Z" fill="#FF37BC"/>
<path id="_126" fill-rule="evenodd" clip-rule="evenodd" d="M12.3956 6.12109L12.421 6.19249L-0.816646 10.93L-0.842041 10.8586L12.3956 6.12109Z" fill="#FF36BD"/>
<path id="_127" fill-rule="evenodd" clip-rule="evenodd" d="M12.4125 6.16992L12.4378 6.24132L-0.799801 10.9789L-0.825195 10.9075L12.4125 6.16992Z" fill="#FF36BD"/>
<path id="_128" fill-rule="evenodd" clip-rule="evenodd" d="M12.4297 6.2168L12.4551 6.2884L-0.782503 11.0259L-0.808105 10.9545L12.4297 6.2168Z" fill="#FF35BE"/>
<path id="_129" fill-rule="evenodd" clip-rule="evenodd" d="M12.4466 6.26367L12.4722 6.33528L-0.765413 11.0728L-0.791016 11.0014L12.4466 6.26367Z" fill="#FF35BE"/>
<path id="_130" fill-rule="evenodd" clip-rule="evenodd" d="M12.4635 6.3125L12.4891 6.3839L-0.748567 11.1214L-0.77417 11.05L12.4635 6.3125Z" fill="#FF35BF"/>
<path id="_131" fill-rule="evenodd" clip-rule="evenodd" d="M12.4806 6.35938L12.5062 6.43077L-0.731477 11.1683L-0.75708 11.0969L12.4806 6.35938Z" fill="#FF34BF"/>
<path id="_132" fill-rule="evenodd" clip-rule="evenodd" d="M12.4977 6.4082L12.5233 6.4796L-0.714388 11.2171L-0.73999 11.1457L12.4977 6.4082Z" fill="#FF34C0"/>
<path id="_133" fill-rule="evenodd" clip-rule="evenodd" d="M12.5147 6.45508L12.5403 6.52668L-0.697298 11.2642L-0.7229 11.1928L12.5147 6.45508Z" fill="#FF34C0"/>
<path id="_134" fill-rule="evenodd" clip-rule="evenodd" d="M12.5318 6.50195L12.5574 6.57356L-0.680208 11.3111L-0.705811 11.2397L12.5318 6.50195Z" fill="#FF34C1"/>
<path id="_135" fill-rule="evenodd" clip-rule="evenodd" d="M12.5489 6.55078L12.5745 6.62218L-0.663362 11.3597L-0.688965 11.2883L12.5489 6.55078Z" fill="#FF34C1"/>
<path id="_136" fill-rule="evenodd" clip-rule="evenodd" d="M12.5658 6.59766L12.5914 6.66905L-0.646272 11.4066L-0.671875 11.3352L12.5658 6.59766Z" fill="#FF34C1"/>
<path id="_137" fill-rule="evenodd" clip-rule="evenodd" d="M12.5829 6.64648L12.6085 6.71788L-0.629182 11.4554L-0.654785 11.384L12.5829 6.64648Z" fill="#FF34C2"/>
<path id="_138" fill-rule="evenodd" clip-rule="evenodd" d="M12.6 6.69336L12.6256 6.76476L-0.612093 11.5023L-0.637695 11.4309L12.6 6.69336Z" fill="#FF34C2"/>
<path id="_139" fill-rule="evenodd" clip-rule="evenodd" d="M12.617 6.74023L12.6426 6.81184L-0.595003 11.5494L-0.620605 11.478L12.617 6.74023Z" fill="#FF34C3"/>
<path id="_140" fill-rule="evenodd" clip-rule="evenodd" d="M12.6341 6.78906L12.6597 6.86067L-0.577913 11.598L-0.603516 11.5266L12.6341 6.78906Z" fill="#FE34C3"/>
<path id="_141" fill-rule="evenodd" clip-rule="evenodd" d="M12.6512 6.83594L12.6768 6.90733L-0.560823 11.6449L-0.586426 11.5735L12.6512 6.83594Z" fill="#FE34C4"/>
<path id="_142" fill-rule="evenodd" clip-rule="evenodd" d="M12.6681 6.88477L12.6937 6.95616L-0.543977 11.6937L-0.56958 11.6223L12.6681 6.88477Z" fill="#FE34C4"/>
<path id="_143" fill-rule="evenodd" clip-rule="evenodd" d="M12.6852 6.93164L12.7108 7.00304L-0.526887 11.7406L-0.55249 11.6692L12.6852 6.93164Z" fill="#FD34C5"/>
<path id="_144" fill-rule="evenodd" clip-rule="evenodd" d="M12.7022 6.97852L12.7278 7.05012L-0.510006 11.7877L-0.5354 11.7163L12.7022 6.97852Z" fill="#FD34C5"/>
<path id="_145" fill-rule="evenodd" clip-rule="evenodd" d="M12.7193 7.02734L12.7447 7.09895L-0.492952 11.8365L-0.518555 11.7649L12.7193 7.02734Z" fill="#FC34C5"/>
<path id="_146" fill-rule="evenodd" clip-rule="evenodd" d="M12.7362 7.07422L12.7618 7.14562L-0.475862 11.8832L-0.501465 11.8118L12.7362 7.07422Z" fill="#FC35C6"/>
<path id="_147" fill-rule="evenodd" clip-rule="evenodd" d="M12.7533 7.12109L12.7789 7.19249L-0.458772 11.93L-0.484375 11.8586L12.7533 7.12109Z" fill="#FB35C6"/>
<path id="_148" fill-rule="evenodd" clip-rule="evenodd" d="M12.7704 7.16992L12.796 7.24132L-0.441682 11.9789L-0.467285 11.9075L12.7704 7.16992Z" fill="#FA35C7"/>
<path id="_149" fill-rule="evenodd" clip-rule="evenodd" d="M12.7875 7.2168L12.8131 7.2884L-0.424593 12.0259L-0.450195 11.9545L12.7875 7.2168Z" fill="#FA35C7"/>
<path id="_150" fill-rule="evenodd" clip-rule="evenodd" d="M12.8045 7.26562L12.8301 7.33723L-0.407503 12.0748L-0.433105 12.0032L12.8045 7.26562Z" fill="#F935C8"/>
<path id="_151" fill-rule="evenodd" clip-rule="evenodd" d="M12.8216 7.3125L12.8472 7.3839L-0.390621 12.1216L-0.416016 12.05L12.8216 7.3125Z" fill="#F835C8"/>
<path id="_152" fill-rule="evenodd" clip-rule="evenodd" d="M12.8387 7.35938L12.8641 7.43077L-0.373531 12.1683L-0.398926 12.0969L12.8387 7.35938Z" fill="#F735C8"/>
<path id="_153" fill-rule="evenodd" clip-rule="evenodd" d="M12.8558 7.4082L12.8812 7.4796L-0.356441 12.2171L-0.381836 12.1457L12.8558 7.4082Z" fill="#F635C9"/>
<path id="_154" fill-rule="evenodd" clip-rule="evenodd" d="M12.8729 7.45508L12.8983 7.52668L-0.339387 12.2642L-0.36499 12.1928L12.8729 7.45508Z" fill="#F535C9"/>
<path id="_155" fill-rule="evenodd" clip-rule="evenodd" d="M12.8897 7.50195L12.9153 7.57356L-0.322298 12.3111L-0.3479 12.2397L12.8897 7.50195Z" fill="#F436CA"/>
<path id="_156" fill-rule="evenodd" clip-rule="evenodd" d="M12.9066 7.55078L12.9322 7.62218L-0.305452 12.3599L-0.331055 12.2883L12.9066 7.55078Z" fill="#F336CA"/>
<path id="_157" fill-rule="evenodd" clip-rule="evenodd" d="M12.9237 7.59766L12.9493 7.66905L-0.288362 12.4068L-0.313965 12.3352L12.9237 7.59766Z" fill="#F236CA"/>
<path id="_158" fill-rule="evenodd" clip-rule="evenodd" d="M12.9408 7.64648L12.9664 7.71788L-0.271272 12.4554L-0.296875 12.384L12.9408 7.64648Z" fill="#F136CB"/>
<path id="_159" fill-rule="evenodd" clip-rule="evenodd" d="M12.9579 7.69336L12.9835 7.76476L-0.254182 12.5023L-0.279785 12.4309L12.9579 7.69336Z" fill="#F036CB"/>
<path id="_160" fill-rule="evenodd" clip-rule="evenodd" d="M12.975 7.74023L13.0006 7.81184L-0.237093 12.5494L-0.262695 12.478L12.975 7.74023Z" fill="#EF36CC"/>
<path id="_161" fill-rule="evenodd" clip-rule="evenodd" d="M12.992 7.78906L13.0176 7.86067L-0.220211 12.5982L-0.245605 12.5266L12.992 7.78906Z" fill="#EE37CC"/>
<path id="_162" fill-rule="evenodd" clip-rule="evenodd" d="M13.0091 7.83594L13.0345 7.90733L-0.203121 12.6451L-0.228516 12.5735L13.0091 7.83594Z" fill="#EC37CC"/>
<path id="_163" fill-rule="evenodd" clip-rule="evenodd" d="M13.026 7.88477L13.0516 7.95616L-0.186031 12.6937L-0.211426 12.6223L13.026 7.88477Z" fill="#EB37CD"/>
<path id="_164" fill-rule="evenodd" clip-rule="evenodd" d="M13.0431 7.93164L13.0687 8.00304L-0.168977 12.7406L-0.19458 12.6692L13.0431 7.93164Z" fill="#EA37CD"/>
<path id="_165" fill-rule="evenodd" clip-rule="evenodd" d="M13.0602 7.97852L13.0858 8.05012L-0.151888 12.7877L-0.17749 12.7163L13.0602 7.97852Z" fill="#E837CE"/>
<path id="_166" fill-rule="evenodd" clip-rule="evenodd" d="M13.0772 8.02734L13.1028 8.09895L-0.134798 12.8365L-0.1604 12.7649L13.0772 8.02734Z" fill="#E738CE"/>
<path id="_167" fill-rule="evenodd" clip-rule="evenodd" d="M13.0943 8.07422L13.1199 8.14561L-0.117708 12.8834L-0.143311 12.8118L13.0943 8.07422Z" fill="#E638CE"/>
<path id="_168" fill-rule="evenodd" clip-rule="evenodd" d="M13.1114 8.12305L13.137 8.19444L-0.100618 12.932L-0.126221 12.8606L13.1114 8.12305Z" fill="#E438CF"/>
<path id="_169" fill-rule="evenodd" clip-rule="evenodd" d="M13.1285 8.16992L13.1541 8.24132L-0.0835281 12.9789L-0.109131 12.9075L13.1285 8.16992Z" fill="#E338CF"/>
<path id="_170" fill-rule="evenodd" clip-rule="evenodd" d="M13.1454 8.2168L13.171 8.2884L-0.0666824 13.0259L-0.0922852 12.9545L13.1454 8.2168Z" fill="#E138D0"/>
<path id="_171" fill-rule="evenodd" clip-rule="evenodd" d="M13.1624 8.26562L13.188 8.33723L-0.0498367 13.0748L-0.0754395 13.0032L13.1624 8.26562Z" fill="#E039D0"/>
<path id="_172" fill-rule="evenodd" clip-rule="evenodd" d="M13.1793 8.3125L13.2049 8.3839L-0.0327469 13.1216L-0.0583496 13.05L13.1793 8.3125Z" fill="#DE39D0"/>
<path id="_173" fill-rule="evenodd" clip-rule="evenodd" d="M13.1964 8.35938L13.222 8.43077L-0.015657 13.1683L-0.0412598 13.0969L13.1964 8.35938Z" fill="#DD39D1"/>
<path id="_174" fill-rule="evenodd" clip-rule="evenodd" d="M13.2135 8.4082L13.2391 8.4796L0.0014328 13.2171L-0.0241699 13.1457L13.2135 8.4082Z" fill="#DB39D1"/>
<path id="_175" fill-rule="evenodd" clip-rule="evenodd" d="M13.2306 8.45508L13.2562 8.52647L0.0185226 13.264L-0.00708008 13.1926L13.2306 8.45508Z" fill="#DA3AD1"/>
<path id="_176" fill-rule="evenodd" clip-rule="evenodd" d="M13.2477 8.50391L13.2733 8.57551L0.0356125 13.3131L0.0100098 13.2417L13.2477 8.50391Z" fill="#D83AD2"/>
<path id="_177" fill-rule="evenodd" clip-rule="evenodd" d="M13.2647 8.55078L13.2903 8.62218L0.0527023 13.3599L0.0270996 13.2883L13.2647 8.55078Z" fill="#D63AD2"/>
<path id="_178" fill-rule="evenodd" clip-rule="evenodd" d="M13.2818 8.59766L13.3074 8.66905L0.0697922 13.4068L0.0441895 13.3352L13.2818 8.59766Z" fill="#D53AD2"/>
<path id="_179" fill-rule="evenodd" clip-rule="evenodd" d="M13.2989 8.64648L13.3243 8.71788L0.0866739 13.4554L0.0612793 13.384L13.2989 8.64648Z" fill="#D33BD3"/>
<path id="_180" fill-rule="evenodd" clip-rule="evenodd" d="M13.316 8.69336L13.3414 8.76476L0.103764 13.5023L0.0783691 13.4309L13.316 8.69336Z" fill="#D13BD3"/>
<path id="_181" fill-rule="evenodd" clip-rule="evenodd" d="M13.3331 8.74023L13.3585 8.81184L0.120818 13.5494L0.0952148 13.478L13.3331 8.74023Z" fill="#D03BD3"/>
<path id="_182" fill-rule="evenodd" clip-rule="evenodd" d="M13.35 8.78906L13.3756 8.86046L0.137907 13.5982L0.112305 13.5266L13.35 8.78906Z" fill="#CE3BD4"/>
<path id="_183" fill-rule="evenodd" clip-rule="evenodd" d="M13.367 8.83594L13.3926 8.90733L0.154997 13.6451L0.129395 13.5735L13.367 8.83594Z" fill="#CC3CD4"/>
<path id="_184" fill-rule="evenodd" clip-rule="evenodd" d="M13.3841 8.88477L13.4097 8.95616L0.172087 13.6937L0.146484 13.6223L13.3841 8.88477Z" fill="#CA3CD4"/>
<path id="_185" fill-rule="evenodd" clip-rule="evenodd" d="M13.4012 8.93164L13.4268 9.00304L0.189177 13.7406L0.163574 13.6692L13.4012 8.93164Z" fill="#C93CD5"/>
<path id="_186" fill-rule="evenodd" clip-rule="evenodd" d="M13.4181 8.98047L13.4437 9.05187L0.206023 13.7894L0.18042 13.718L13.4181 8.98047Z" fill="#C73DD5"/>
<path id="_187" fill-rule="evenodd" clip-rule="evenodd" d="M13.4352 9.02734L13.4608 9.09895L0.223112 13.8365L0.19751 13.7649L13.4352 9.02734Z" fill="#C53DD5"/>
<path id="_188" fill-rule="evenodd" clip-rule="evenodd" d="M13.4522 9.07422L13.4778 9.14561L0.239994 13.8834L0.2146 13.8118L13.4522 9.07422Z" fill="#C33DD6"/>
<path id="_189" fill-rule="evenodd" clip-rule="evenodd" d="M13.4693 9.12305L13.4947 9.19444L0.257084 13.932L0.231689 13.8606L13.4693 9.12305Z" fill="#C13DD6"/>
<path id="_190" fill-rule="evenodd" clip-rule="evenodd" d="M13.4864 9.16992L13.5118 9.24132L0.274174 13.9789L0.248779 13.9075L13.4864 9.16992Z" fill="#C03ED6"/>
<path id="_191" fill-rule="evenodd" clip-rule="evenodd" d="M13.5035 9.21875L13.5289 9.29015L0.291228 14.0277L0.265625 13.9563L13.5035 9.21875Z" fill="#BE3ED7"/>
<path id="_192" fill-rule="evenodd" clip-rule="evenodd" d="M13.5204 9.26562L13.546 9.33702L0.308318 14.0746L0.282715 14.003L13.5204 9.26562Z" fill="#BC3ED7"/>
<path id="_193" fill-rule="evenodd" clip-rule="evenodd" d="M13.5375 9.3125L13.5631 9.3839L0.325407 14.1216L0.299805 14.05L13.5375 9.3125Z" fill="#BA3ED7"/>
<path id="_194" fill-rule="evenodd" clip-rule="evenodd" d="M13.5545 9.36133L13.5801 9.43272L0.342497 14.1703L0.316895 14.0989L13.5545 9.36133Z" fill="#B83FD8"/>
<path id="_195" fill-rule="evenodd" clip-rule="evenodd" d="M13.5716 9.4082L13.5972 9.4796L0.359587 14.2171L0.333984 14.1457L13.5716 9.4082Z" fill="#B73FD8"/>
<path id="_196" fill-rule="evenodd" clip-rule="evenodd" d="M13.5887 9.45703L13.6143 9.52843L0.376677 14.266L0.351074 14.1946L13.5887 9.45703Z" fill="#B53FD8"/>
<path id="_197" fill-rule="evenodd" clip-rule="evenodd" d="M13.6058 9.50391L13.6314 9.5753L0.393767 14.3128L0.368164 14.2412L13.6058 9.50391Z" fill="#B340D8"/>
<path id="_198" fill-rule="evenodd" clip-rule="evenodd" d="M13.6229 9.55078L13.6485 9.62218L0.410612 14.3599L0.38501 14.2883L13.6229 9.55078Z" fill="#B140D9"/>
<path id="_199" fill-rule="evenodd" clip-rule="evenodd" d="M13.6397 9.59961L13.6653 9.67101L0.427702 14.4086L0.4021 14.3372L13.6397 9.59961Z" fill="#AF40D9"/>
<path id="_200" fill-rule="evenodd" clip-rule="evenodd" d="M13.6566 9.64648L13.6822 9.71788L0.444548 14.4554L0.418945 14.384L13.6566 9.64648Z" fill="#AE40D9"/>
<path id="_201" fill-rule="evenodd" clip-rule="evenodd" d="M13.6737 9.69336L13.6993 9.76476L0.461638 14.5023L0.436035 14.4309L13.6737 9.69336Z" fill="#AC41D9"/>
<path id="_202" fill-rule="evenodd" clip-rule="evenodd" d="M13.6908 9.74219L13.7164 9.81358L0.478728 14.5511L0.453125 14.4797L13.6908 9.74219Z" fill="#AA41DA"/>
<path id="_203" fill-rule="evenodd" clip-rule="evenodd" d="M13.7079 9.78906L13.7335 9.86046L0.495818 14.5982L0.470215 14.5266L13.7079 9.78906Z" fill="#A841DA"/>
<path id="_204" fill-rule="evenodd" clip-rule="evenodd" d="M13.725 9.83594L13.7506 9.90733L0.512907 14.6451L0.487305 14.5735L13.725 9.83594Z" fill="#A641DA"/>
<path id="_205" fill-rule="evenodd" clip-rule="evenodd" d="M13.742 9.88477L13.7676 9.95616L0.529997 14.6937L0.504395 14.6223L13.742 9.88477Z" fill="#A542DA"/>
<path id="_206" fill-rule="evenodd" clip-rule="evenodd" d="M13.7591 9.93164L13.7845 10.003L0.547087 14.7406L0.521484 14.6692L13.7591 9.93164Z" fill="#A342DB"/>
<path id="_207" fill-rule="evenodd" clip-rule="evenodd" d="M13.7762 9.98047L13.8016 10.0519L0.563969 14.7894L0.538574 14.718L13.7762 9.98047Z" fill="#A142DB"/>
<path id="_208" fill-rule="evenodd" clip-rule="evenodd" d="M13.7933 10.0273L13.8187 10.0989L0.581023 14.8365L0.55542 14.7649L13.7933 10.0273Z" fill="#9F43DB"/>
<path id="_209" fill-rule="evenodd" clip-rule="evenodd" d="M13.8102 10.0742L13.8358 10.1456L0.598112 14.8834L0.57251 14.8118L13.8102 10.0742Z" fill="#9E43DB"/>
<path id="_210" fill-rule="evenodd" clip-rule="evenodd" d="M13.8272 10.123L13.8528 10.1944L0.615202 14.932L0.5896 14.8606L13.8272 10.123Z" fill="#9C43DC"/>
<path id="_211" fill-rule="evenodd" clip-rule="evenodd" d="M13.8443 10.1699L13.8699 10.2413L0.632292 14.9789L0.606689 14.9075L13.8443 10.1699Z" fill="#9A43DC"/>
<path id="_212" fill-rule="evenodd" clip-rule="evenodd" d="M13.8614 10.2168L13.887 10.2882L0.649382 15.0257L0.623779 14.9543L13.8614 10.2168Z" fill="#9944DC"/>
<path id="_213" fill-rule="evenodd" clip-rule="evenodd" d="M13.8783 10.2656L13.9039 10.337L0.666228 15.0746L0.640625 15.0032L13.8783 10.2656Z" fill="#9744DC"/>
<path id="_214" fill-rule="evenodd" clip-rule="evenodd" d="M13.8954 10.3125L13.921 10.3839L0.683109 15.1216L0.657715 15.05L13.8954 10.3125Z" fill="#9544DD"/>
<path id="_215" fill-rule="evenodd" clip-rule="evenodd" d="M13.9125 10.3613L13.9378 10.4327L0.700199 15.1703L0.674805 15.0989L13.9125 10.3613Z" fill="#9444DD"/>
<path id="_216" fill-rule="evenodd" clip-rule="evenodd" d="M13.9295 10.4082L13.9549 10.4796L0.717289 15.2171L0.691895 15.1457L13.9295 10.4082Z" fill="#9245DD"/>
<path id="_217" fill-rule="evenodd" clip-rule="evenodd" d="M13.9466 10.4551L13.972 10.5265L0.734343 15.264L0.70874 15.1926L13.9466 10.4551Z" fill="#9045DD"/>
<path id="_218" fill-rule="evenodd" clip-rule="evenodd" d="M13.9635 10.5039L13.9891 10.5753L0.751433 15.3128L0.72583 15.2415L13.9635 10.5039Z" fill="#8F45DD"/>
<path id="_219" fill-rule="evenodd" clip-rule="evenodd" d="M13.9806 10.5508L14.0062 10.6222L0.768523 15.3599L0.74292 15.2885L13.9806 10.5508Z" fill="#8D45DE"/>
<path id="_220" fill-rule="evenodd" clip-rule="evenodd" d="M13.9977 10.5996L14.0233 10.671L0.785612 15.4086L0.76001 15.3372L13.9977 10.5996Z" fill="#8C45DE"/>
<path id="_221" fill-rule="evenodd" clip-rule="evenodd" d="M14.0147 10.6465L14.0403 10.7179L0.802702 15.4554L0.7771 15.384L14.0147 10.6465Z" fill="#8A46DE"/>
<path id="_222" fill-rule="evenodd" clip-rule="evenodd" d="M14.0318 10.6934L14.0574 10.7648L0.819792 15.5023L0.794189 15.4309L14.0318 10.6934Z" fill="#8946DE"/>
<path id="_223" fill-rule="evenodd" clip-rule="evenodd" d="M14.0489 10.7422L14.0745 10.8136L0.836882 15.5511L0.811279 15.4797L14.0489 10.7422Z" fill="#8746DE"/>
<path id="_224" fill-rule="evenodd" clip-rule="evenodd" d="M14.066 10.7891L14.0916 10.8605L0.853764 15.5982L0.828369 15.5268L14.066 10.7891Z" fill="#8646DE"/>
<path id="_225" fill-rule="evenodd" clip-rule="evenodd" d="M14.0829 10.8379L14.1085 10.9093L0.870818 15.647L0.845215 15.5754L14.0829 10.8379Z" fill="#8547DF"/>
<path id="_226" fill-rule="evenodd" clip-rule="evenodd" d="M14.1 10.8848L14.1256 10.9562L0.887907 15.6937L0.862305 15.6223L14.1 10.8848Z" fill="#8347DF"/>
<path id="_227" fill-rule="evenodd" clip-rule="evenodd" d="M14.117 10.9316L14.1426 11.003L0.904997 15.7406L0.879395 15.6692L14.117 10.9316Z" fill="#8247DF"/>
<path id="_228" fill-rule="evenodd" clip-rule="evenodd" d="M14.1339 10.9805L14.1595 11.0519L0.921843 15.7894L0.89624 15.718L14.1339 10.9805Z" fill="#8147DF"/>
<path id="_229" fill-rule="evenodd" clip-rule="evenodd" d="M14.151 11.0273L14.1766 11.0987L0.938933 15.8365L0.91333 15.7651L14.151 11.0273Z" fill="#8047DF"/>
<path id="_230" fill-rule="evenodd" clip-rule="evenodd" d="M14.1681 11.0762L14.1937 11.1476L0.956023 15.8853L0.93042 15.8137L14.1681 11.0762Z" fill="#7E48DF"/>
<path id="_231" fill-rule="evenodd" clip-rule="evenodd" d="M14.1852 11.123L14.2108 11.1944L0.973112 15.932L0.94751 15.8606L14.1852 11.123Z" fill="#7D48DF"/>
<path id="_232" fill-rule="evenodd" clip-rule="evenodd" d="M14.2022 11.1699L14.2278 11.2413L0.990202 15.9789L0.9646 15.9075L14.2022 11.1699Z" fill="#7C48E0"/>
<path id="_233" fill-rule="evenodd" clip-rule="evenodd" d="M14.2193 11.2188L14.2449 11.2901L1.00729 16.0277L0.981689 15.9563L14.2193 11.2188Z" fill="#7B48E0"/>
<path id="_234" fill-rule="evenodd" clip-rule="evenodd" d="M14.2364 11.2656L14.262 11.3372L1.02414 16.0748L0.998535 16.0034L14.2364 11.2656Z" fill="#7A48E0"/>
<path id="_235" fill-rule="evenodd" clip-rule="evenodd" d="M14.2533 11.3125L14.2789 11.3839L1.04123 16.1217L1.01562 16.0503L14.2533 11.3125Z" fill="#7948E0"/>
<path id="_236" fill-rule="evenodd" clip-rule="evenodd" d="M14.2704 11.3613L14.296 11.4327L1.05832 16.1703L1.03271 16.0989L14.2704 11.3613Z" fill="#7849E0"/>
<path id="_237" fill-rule="evenodd" clip-rule="evenodd" d="M14.2875 11.4082L14.3131 11.4796L1.07541 16.2171L1.0498 16.1457L14.2875 11.4082Z" fill="#7749E0"/>
<path id="_238" fill-rule="evenodd" clip-rule="evenodd" d="M14.3045 11.457L14.3301 11.5284L1.0925 16.266L1.06689 16.1946L14.3045 11.457Z" fill="#7649E0"/>
<path id="_239" fill-rule="evenodd" clip-rule="evenodd" d="M14.3216 11.5039L14.3472 11.5753L1.10959 16.3128L1.08398 16.2415L14.3216 11.5039Z" fill="#7549E0"/>
<path id="_240" fill-rule="evenodd" clip-rule="evenodd" d="M14.3387 11.5508L14.3643 11.6224L1.12668 16.3599L1.10107 16.2885L14.3387 11.5508Z" fill="#7449E0"/>
<path id="_241" fill-rule="evenodd" clip-rule="evenodd" d="M14.3558 11.5996L14.3814 11.671L1.14356 16.4085L1.11816 16.3372L14.3558 11.5996Z" fill="#7349E0"/>
<path id="_242" fill-rule="evenodd" clip-rule="evenodd" d="M14.3727 11.6465L14.3981 11.7179L1.1604 16.4554L1.13501 16.384L14.3727 11.6465Z" fill="#7349E1"/>
<path id="_243" fill-rule="evenodd" clip-rule="evenodd" d="M14.3897 11.6934L14.4151 11.7648L1.17749 16.5023L1.1521 16.4309L14.3897 11.6934Z" fill="#7249E1"/>
<path id="_244" fill-rule="evenodd" clip-rule="evenodd" d="M14.4068 11.7422L14.4322 11.8136L1.19455 16.5511L1.16895 16.4797L14.4068 11.7422Z" fill="#7149E1"/>
<path id="_245" fill-rule="evenodd" clip-rule="evenodd" d="M14.4237 11.7891L14.4493 11.8607L1.21164 16.5982L1.18604 16.5268L14.4237 11.7891Z" fill="#714AE1"/>
<path id="_246" fill-rule="evenodd" clip-rule="evenodd" d="M14.4408 11.8379L14.4664 11.9093L1.22873 16.6468L1.20312 16.5754L14.4408 11.8379Z" fill="#704AE1"/>
<path id="_247" fill-rule="evenodd" clip-rule="evenodd" d="M14.4579 11.8848L14.4835 11.9562L1.24582 16.6937L1.22021 16.6223L14.4579 11.8848Z" fill="#704AE1"/>
<path id="_248" fill-rule="evenodd" clip-rule="evenodd" d="M14.475 11.9316L14.5006 12.003L1.26291 16.7406L1.2373 16.6692L14.475 11.9316Z" fill="#6F4AE1"/>
<path id="_249" fill-rule="evenodd" clip-rule="evenodd" d="M14.492 11.9805L14.5176 12.0519L1.28 16.7894L1.25439 16.718L14.492 11.9805Z" fill="#6F4AE1"/>
<path id="_250" fill-rule="evenodd" clip-rule="evenodd" d="M14.5091 12.0273L14.5347 12.0989L1.29709 16.8365L1.27148 16.7651L14.5091 12.0273Z" fill="#6F4AE1"/>
<path id="_251" fill-rule="evenodd" clip-rule="evenodd" d="M14.5262 12.0762L14.5518 12.1478L1.31397 16.8853L1.28857 16.8137L14.5262 12.0762Z" fill="#6E4AE1"/>
<path id="_252" fill-rule="evenodd" clip-rule="evenodd" d="M14.5433 12.123L14.5687 12.1944L1.33106 16.932L1.30566 16.8606L14.5433 12.123Z" fill="#6E4AE1"/>
<path id="_253" fill-rule="evenodd" clip-rule="evenodd" d="M14.5599 12.1699L14.5856 12.2413L1.3479 16.9789L1.32251 16.9075L14.5599 12.1699Z" fill="#6E4AE1"/>
<path id="_254" fill-rule="evenodd" clip-rule="evenodd" d="M14.5772 12.2188L14.6028 12.2901L1.3652 17.0277L1.3396 16.9563L14.5772 12.2188Z" fill="#6E4AE1"/>
<path id="_255" fill-rule="evenodd" clip-rule="evenodd" d="M14.5941 12.2656L14.9315 13.2083L1.69386 17.9459L1.35645 17.0034L14.5941 12.2656Z" fill="#6E4AE1"/>
</g>
</g>
</g>
</g>
<g id="Clip path group_2">
<mask id="mask1_707_19690" style="mask-type:luminance" maskUnits="userSpaceOnUse" x="0" y="0" width="12" height="17">
<g id="id1">
<path id="Vector_4" d="M8.82341 0C9.76342 0.558056 10.5357 1.37172 11.0434 2.34317C9.72221 4.95735 7.00811 6.76078 3.89311 6.76078V6.76099C7.6436 6.76099 10.8125 9.37497 11.6693 12.8711C11.6064 13.4537 11.4565 14.0114 11.2338 14.5311C10.309 14.0342 9.25178 13.7522 8.12859 13.7522C5.71195 13.7522 3.60045 15.0569 2.45895 17C1.59387 16.3801 0.902592 15.5309 0.476296 14.5432C1.86217 12.1411 4.45866 10.5156 7.4163 10.5156V10.5152C4.07587 10.5152 1.19692 8.44161 0.00170898 5.51812V5.03458C0.00170898 4.44905 0.089341 3.88287 0.251283 3.34834C1.04309 3.68638 1.91442 3.87371 2.82946 3.87371C5.49755 3.87371 7.79389 2.28385 8.82341 0Z" fill="white"/>
</g>
</mask>
<g mask="url(#mask1_707_19690)">
<g id="Group_3">
<g id="Group_4">
<g id="Clip path group_3">
<mask id="mask2_707_19690" style="mask-type:luminance" maskUnits="userSpaceOnUse" x="0" y="0" width="12" height="17">
<g id="id2">
<path id="Vector_5" d="M8.82341 0C9.76342 0.558056 10.5357 1.37172 11.0434 2.34317C9.72221 4.95735 7.00811 6.76078 3.89311 6.76078V6.76099C7.6436 6.76099 10.8125 9.37497 11.6693 12.8711C11.6064 13.4537 11.4565 14.0114 11.2338 14.5311C10.309 14.0342 9.25178 13.7522 8.12859 13.7522C5.71195 13.7522 3.60045 15.0569 2.45895 17C1.59387 16.3801 0.902592 15.5309 0.476296 14.5432C1.86217 12.1411 4.45866 10.5156 7.4163 10.5156V10.5152C4.07587 10.5152 1.19692 8.44161 0.00170898 5.51812V5.03458C0.00170898 4.44905 0.089341 3.88287 0.251283 3.34834C1.04309 3.68638 1.91442 3.87371 2.82946 3.87371C5.49755 3.87371 7.79389 2.28385 8.82341 0Z" fill="white"/>
</g>
</mask>
<g mask="url(#mask2_707_19690)">
<g id="Group_5">
<path id="_256" fill-rule="evenodd" clip-rule="evenodd" d="M12.1184 -3.875L13.118 -0.285831L-5.18966 4.81307L-6.18921 1.2239L12.1184 -3.875Z" fill="#FFD374"/>
<path id="_257" fill-rule="evenodd" clip-rule="evenodd" d="M13.1109 -0.310547L13.1317 -0.23582L-5.17572 4.86308L-5.19653 4.78814L13.1109 -0.310547Z" fill="#FFD374"/>
<path id="_258" fill-rule="evenodd" clip-rule="evenodd" d="M13.1248 -0.261719L13.1456 -0.186992L-5.1618 4.9119L-5.18262 4.83718L13.1248 -0.261719Z" fill="#FFD374"/>
<path id="_259" fill-rule="evenodd" clip-rule="evenodd" d="M13.1387 -0.210938L13.1595 -0.136003L-5.14813 4.96269L-5.16895 4.88796L13.1387 -0.210938Z" fill="#FFD374"/>
<path id="_260" fill-rule="evenodd" clip-rule="evenodd" d="M13.1528 -0.160156L13.1736 -0.0852214L-5.13397 5.01347L-5.15479 4.93874L13.1528 -0.160156Z" fill="#FFD374"/>
<path id="_261" fill-rule="evenodd" clip-rule="evenodd" d="M13.1665 -0.111328L13.1873 -0.0366015L-5.12005 5.0623L-5.14087 4.98736L13.1665 -0.111328Z" fill="#FFD274"/>
<path id="_262" fill-rule="evenodd" clip-rule="evenodd" d="M13.1804 -0.0605469L13.2012 0.0141798L-5.10638 5.11308L-5.1272 5.03835L13.1804 -0.0605469Z" fill="#FFD274"/>
<path id="_263" fill-rule="evenodd" clip-rule="evenodd" d="M13.1943 -0.0117188L13.2151 0.0630079L-5.09247 5.16191L-5.11328 5.08697L13.1943 -0.0117188Z" fill="#FFD274"/>
<path id="_264" fill-rule="evenodd" clip-rule="evenodd" d="M13.208 0.0390625L13.2291 0.113997L-5.07855 5.21269L-5.09937 5.13796L13.208 0.0390625Z" fill="#FFD175"/>
<path id="_265" fill-rule="evenodd" clip-rule="evenodd" d="M13.2219 0.0878906L13.2427 0.162617L-5.06467 5.26151L-5.08569 5.18658L13.2219 0.0878906Z" fill="#FFD175"/>
<path id="_266" fill-rule="evenodd" clip-rule="evenodd" d="M13.2361 0.138672L13.2569 0.213607L-5.05072 5.3123L-5.07153 5.23757L13.2361 0.138672Z" fill="#FFD175"/>
<path id="_267" fill-rule="evenodd" clip-rule="evenodd" d="M13.25 0.1875L13.2708 0.262227L-5.0368 5.36112L-5.05762 5.28619L13.25 0.1875Z" fill="#FFD075"/>
<path id="_268" fill-rule="evenodd" clip-rule="evenodd" d="M13.2637 0.238281L13.2845 0.313216L-5.02289 5.4119L-5.0437 5.33718L13.2637 0.238281Z" fill="#FFCF75"/>
<path id="_269" fill-rule="evenodd" clip-rule="evenodd" d="M13.2776 0.287109L13.2984 0.361836L-5.00921 5.46073L-5.03003 5.38601L13.2776 0.287109Z" fill="#FFCF76"/>
<path id="_270" fill-rule="evenodd" clip-rule="evenodd" d="M13.2915 0.337891L13.3123 0.412825L-4.9953 5.51151L-5.01611 5.43679L13.2915 0.337891Z" fill="#FFCE76"/>
<path id="_271" fill-rule="evenodd" clip-rule="evenodd" d="M13.3052 0.386719L13.3262 0.461445L-4.98138 5.56034L-5.0022 5.48562L13.3052 0.386719Z" fill="#FFCE76"/>
<path id="_272" fill-rule="evenodd" clip-rule="evenodd" d="M13.3193 0.4375L13.3401 0.512227L-4.96747 5.61112L-4.98828 5.53619L13.3193 0.4375Z" fill="#FFCD76"/>
<path id="_273" fill-rule="evenodd" clip-rule="evenodd" d="M13.3332 0.486328L13.3541 0.561055L-4.95355 5.65995L-4.97437 5.58523L13.3332 0.486328Z" fill="#FFCC77"/>
<path id="_274" fill-rule="evenodd" clip-rule="evenodd" d="M13.3472 0.537109L13.368 0.611836L-4.93963 5.71073L-4.96045 5.6358L13.3472 0.537109Z" fill="#FFCB77"/>
<path id="_275" fill-rule="evenodd" clip-rule="evenodd" d="M13.3609 0.585938L13.3817 0.660872L-4.92572 5.75956L-4.94653 5.68483L13.3609 0.585938Z" fill="#FFCA77"/>
<path id="_276" fill-rule="evenodd" clip-rule="evenodd" d="M13.3747 0.636719L13.3956 0.711445L-4.91205 5.81034L-4.93286 5.73541L13.3747 0.636719Z" fill="#FFCA78"/>
<path id="_277" fill-rule="evenodd" clip-rule="evenodd" d="M13.3887 0.685547L13.4095 0.760274L-4.89813 5.85917L-4.91895 5.78444L13.3887 0.685547Z" fill="#FFC978"/>
<path id="_278" fill-rule="evenodd" clip-rule="evenodd" d="M13.4026 0.736328L13.4234 0.811055L-4.88421 5.90995L-4.90503 5.83502L13.4026 0.736328Z" fill="#FFC878"/>
<path id="_279" fill-rule="evenodd" clip-rule="evenodd" d="M13.4165 0.787109L13.4373 0.862044L-4.8703 5.96073L-4.89111 5.88601L13.4165 0.787109Z" fill="#FFC779"/>
<path id="_280" fill-rule="evenodd" clip-rule="evenodd" d="M13.4304 0.835938L13.4512 0.910664L-4.85638 6.00956L-4.8772 5.93483L13.4304 0.835938Z" fill="#FFC679"/>
<path id="_281" fill-rule="evenodd" clip-rule="evenodd" d="M13.4443 0.886719L13.4651 0.961654L-4.84247 6.06034L-4.86328 5.98562L13.4443 0.886719Z" fill="#FFC579"/>
<path id="_282" fill-rule="evenodd" clip-rule="evenodd" d="M13.458 0.935547L13.4789 1.01027L-4.82855 6.10917L-4.84937 6.03444L13.458 0.935547Z" fill="#FFC47A"/>
<path id="_283" fill-rule="evenodd" clip-rule="evenodd" d="M13.4719 0.986328L13.4927 1.06126L-4.81488 6.15995L-4.83569 6.08523L13.4719 0.986328Z" fill="#FFC27A"/>
<path id="_284" fill-rule="evenodd" clip-rule="evenodd" d="M13.4861 1.03516L13.5069 1.10988L-4.80072 6.20878L-4.82153 6.13405L13.4861 1.03516Z" fill="#FFC17B"/>
<path id="_285" fill-rule="evenodd" clip-rule="evenodd" d="M13.5 1.08594L13.5208 1.16087L-4.7868 6.25956L-4.80762 6.18483L13.5 1.08594Z" fill="#FFC07B"/>
<path id="_286" fill-rule="evenodd" clip-rule="evenodd" d="M13.5137 1.13477L13.5345 1.20949L-4.77292 6.30839L-4.79395 6.23366L13.5137 1.13477Z" fill="#FFBF7C"/>
<path id="_287" fill-rule="evenodd" clip-rule="evenodd" d="M13.5276 1.18555L13.5484 1.26027L-4.75921 6.35917L-4.78003 6.28424L13.5276 1.18555Z" fill="#FFBE7C"/>
<path id="_288" fill-rule="evenodd" clip-rule="evenodd" d="M13.5415 1.23438L13.5623 1.3091L-4.7453 6.408L-4.76611 6.33327L13.5415 1.23438Z" fill="#FFBC7D"/>
<path id="_289" fill-rule="evenodd" clip-rule="evenodd" d="M13.5552 1.28516L13.5762 1.35988L-4.73138 6.45878L-4.7522 6.38385L13.5552 1.28516Z" fill="#FFBB7D"/>
<path id="_290" fill-rule="evenodd" clip-rule="evenodd" d="M13.5693 1.33398L13.5901 1.40892L-4.71747 6.50761L-4.73828 6.43288L13.5693 1.33398Z" fill="#FFBA7E"/>
<path id="_291" fill-rule="evenodd" clip-rule="evenodd" d="M13.5832 1.38477L13.6041 1.45949L-4.70355 6.55839L-4.72437 6.48345L13.5832 1.38477Z" fill="#FFB97E"/>
<path id="_292" fill-rule="evenodd" clip-rule="evenodd" d="M13.5972 1.43359L13.618 1.50853L-4.68963 6.60722L-4.71045 6.53249L13.5972 1.43359Z" fill="#FFB77F"/>
<path id="_293" fill-rule="evenodd" clip-rule="evenodd" d="M13.6108 1.48438L13.6316 1.5591L-4.67575 6.658L-4.69678 6.58327L13.6108 1.48438Z" fill="#FFB67F"/>
<path id="_294" fill-rule="evenodd" clip-rule="evenodd" d="M13.6247 1.5332L13.6456 1.60814L-4.66205 6.70683L-4.68286 6.6321L13.6247 1.5332Z" fill="#FFB480"/>
<path id="_295" fill-rule="evenodd" clip-rule="evenodd" d="M13.6387 1.58398L13.6595 1.65871L-4.64813 6.75761L-4.66895 6.68288L13.6387 1.58398Z" fill="#FFB380"/>
<path id="_296" fill-rule="evenodd" clip-rule="evenodd" d="M13.6524 1.63281L13.6734 1.70775L-4.63421 6.80644L-4.65503 6.73171L13.6524 1.63281Z" fill="#FFB181"/>
<path id="_297" fill-rule="evenodd" clip-rule="evenodd" d="M13.6665 1.68359L13.6873 1.75832L-4.6203 6.85722L-4.64111 6.78249L13.6665 1.68359Z" fill="#FFB081"/>
<path id="_298" fill-rule="evenodd" clip-rule="evenodd" d="M13.6804 1.73438L13.7012 1.8091L-4.60638 6.908L-4.6272 6.83306L13.6804 1.73438Z" fill="#FFAE82"/>
<path id="_299" fill-rule="evenodd" clip-rule="evenodd" d="M13.6943 1.7832L13.7151 1.85793L-4.59247 6.95683L-4.61328 6.8821L13.6943 1.7832Z" fill="#FFAD83"/>
<path id="_300" fill-rule="evenodd" clip-rule="evenodd" d="M13.708 1.83398L13.7289 1.90871L-4.57855 7.0074L-4.59937 6.93267L13.708 1.83398Z" fill="#FFAB83"/>
<path id="_301" fill-rule="evenodd" clip-rule="evenodd" d="M13.7219 1.88281L13.7427 1.95775L-4.56488 7.05644L-4.58569 6.98171L13.7219 1.88281Z" fill="#FFAA84"/>
<path id="_302" fill-rule="evenodd" clip-rule="evenodd" d="M13.7361 1.93359L13.7569 2.00832L-4.55072 7.10722L-4.57153 7.03228L13.7361 1.93359Z" fill="#FFA885"/>
<path id="_303" fill-rule="evenodd" clip-rule="evenodd" d="M13.7498 1.98242L13.7706 2.05715L-4.5368 7.15605L-4.55762 7.08132L13.7498 1.98242Z" fill="#FFA785"/>
<path id="_304" fill-rule="evenodd" clip-rule="evenodd" d="M13.7637 2.0332L13.7845 2.10793L-4.52313 7.20683L-4.54395 7.1321L13.7637 2.0332Z" fill="#FFA586"/>
<path id="_305" fill-rule="evenodd" clip-rule="evenodd" d="M13.7776 2.08203L13.7984 2.15697L-4.50921 7.25565L-4.53003 7.18093L13.7776 2.08203Z" fill="#FFA386"/>
<path id="_306" fill-rule="evenodd" clip-rule="evenodd" d="M13.7915 2.13281L13.8123 2.20754L-4.4953 7.30644L-4.51611 7.2315L13.7915 2.13281Z" fill="#FFA287"/>
<path id="_307" fill-rule="evenodd" clip-rule="evenodd" d="M13.8052 2.18164L13.826 2.25658L-4.48138 7.35526L-4.5022 7.28054L13.8052 2.18164Z" fill="#FFA088"/>
<path id="_308" fill-rule="evenodd" clip-rule="evenodd" d="M13.8193 2.23242L13.8401 2.30715L-4.46747 7.40605L-4.48828 7.33132L13.8193 2.23242Z" fill="#FF9E88"/>
<path id="_309" fill-rule="evenodd" clip-rule="evenodd" d="M13.8332 2.28125L13.8541 2.35618L-4.45355 7.45487L-4.47437 7.38015L13.8332 2.28125Z" fill="#FF9D89"/>
<path id="_310" fill-rule="evenodd" clip-rule="evenodd" d="M13.847 2.33203L13.8678 2.40676L-4.43963 7.50566L-4.46045 7.43093L13.847 2.33203Z" fill="#FF9B8A"/>
<path id="_311" fill-rule="evenodd" clip-rule="evenodd" d="M13.8608 2.38086L13.8816 2.45559L-4.42575 7.55427L-4.44678 7.47955L13.8608 2.38086Z" fill="#FF998B"/>
<path id="_312" fill-rule="evenodd" clip-rule="evenodd" d="M13.8747 2.43164L13.8956 2.50637L-4.41205 7.60526L-4.43286 7.53054L13.8747 2.43164Z" fill="#FF988B"/>
<path id="_313" fill-rule="evenodd" clip-rule="evenodd" d="M13.8887 2.48047L13.9095 2.5552L-4.39813 7.65409L-4.41895 7.57916L13.8887 2.48047Z" fill="#FF968C"/>
<path id="_314" fill-rule="evenodd" clip-rule="evenodd" d="M13.9024 2.53125L13.9232 2.60598L-4.38421 7.70487L-4.40503 7.63015L13.9024 2.53125Z" fill="#FF948D"/>
<path id="_315" fill-rule="evenodd" clip-rule="evenodd" d="M13.9165 2.58203L13.9373 2.65676L-4.3703 7.75565L-4.39111 7.68072L13.9165 2.58203Z" fill="#FF938D"/>
<path id="_316" fill-rule="evenodd" clip-rule="evenodd" d="M13.9304 2.63086L13.9512 2.70579L-4.35638 7.80448L-4.3772 7.72976L13.9304 2.63086Z" fill="#FF918E"/>
<path id="_317" fill-rule="evenodd" clip-rule="evenodd" d="M13.9441 2.68164L13.9649 2.75637L-4.34247 7.85526L-4.36328 7.78033L13.9441 2.68164Z" fill="#FF8F8F"/>
<path id="_318" fill-rule="evenodd" clip-rule="evenodd" d="M13.958 2.73047L13.9788 2.8052L-4.32859 7.90409L-4.34961 7.82937L13.958 2.73047Z" fill="#FF8D90"/>
<path id="_319" fill-rule="evenodd" clip-rule="evenodd" d="M13.9719 2.78125L13.9927 2.85598L-4.31488 7.95487L-4.33569 7.88015L13.9719 2.78125Z" fill="#FF8C90"/>
<path id="_320" fill-rule="evenodd" clip-rule="evenodd" d="M13.9856 2.83008L14.0066 2.90501L-4.30096 8.0037L-4.32178 7.92898L13.9856 2.83008Z" fill="#FF8A91"/>
<path id="_321" fill-rule="evenodd" clip-rule="evenodd" d="M13.9998 2.88086L14.0206 2.95559L-4.2868 8.05448L-4.30762 7.97955L13.9998 2.88086Z" fill="#FF8892"/>
<path id="_322" fill-rule="evenodd" clip-rule="evenodd" d="M14.0137 2.92969L14.0345 3.00441L-4.27313 8.1031L-4.29395 8.02838L14.0137 2.92969Z" fill="#FF8693"/>
<path id="_323" fill-rule="evenodd" clip-rule="evenodd" d="M14.0276 2.98047L14.0484 3.0552L-4.25921 8.15409L-4.28003 8.07937L14.0276 2.98047Z" fill="#FF8593"/>
<path id="_324" fill-rule="evenodd" clip-rule="evenodd" d="M14.0413 3.0293L14.0621 3.10423L-4.2453 8.20292L-4.26611 8.12819L14.0413 3.0293Z" fill="#FF8394"/>
<path id="_325" fill-rule="evenodd" clip-rule="evenodd" d="M14.0552 3.08008L14.076 3.1548L-4.23142 8.2537L-4.25244 8.17898L14.0552 3.08008Z" fill="#FF8195"/>
<path id="_326" fill-rule="evenodd" clip-rule="evenodd" d="M14.0691 3.12891L14.0899 3.20363L-4.21771 8.30253L-4.23853 8.22759L14.0691 3.12891Z" fill="#FF7F96"/>
<path id="_327" fill-rule="evenodd" clip-rule="evenodd" d="M14.083 3.17969L14.1041 3.25441L-4.20355 8.35331L-4.22437 8.27858L14.083 3.17969Z" fill="#FF7D96"/>
<path id="_328" fill-rule="evenodd" clip-rule="evenodd" d="M14.097 3.22852L14.1178 3.30324L-4.18963 8.40214L-4.21045 8.3272L14.097 3.22852Z" fill="#FF7C97"/>
<path id="_329" fill-rule="evenodd" clip-rule="evenodd" d="M14.1108 3.2793L14.1316 3.35402L-4.17596 8.45292L-4.19678 8.37819L14.1108 3.2793Z" fill="#FF7A98"/>
<path id="_330" fill-rule="evenodd" clip-rule="evenodd" d="M14.1248 3.33008L14.1456 3.40481L-4.16205 8.5037L-4.18286 8.42877L14.1248 3.33008Z" fill="#FF7899"/>
<path id="_331" fill-rule="evenodd" clip-rule="evenodd" d="M14.1385 3.37891L14.1593 3.45384L-4.14813 8.55253L-4.16895 8.4778L14.1385 3.37891Z" fill="#FF7699"/>
<path id="_332" fill-rule="evenodd" clip-rule="evenodd" d="M14.1526 3.42773L14.1734 3.50246L-4.13421 8.60136L-4.15503 8.52642L14.1526 3.42773Z" fill="#FF759A"/>
<path id="_333" fill-rule="evenodd" clip-rule="evenodd" d="M14.1665 3.47852L14.1873 3.55345L-4.1203 8.65214L-4.14111 8.57741L14.1665 3.47852Z" fill="#FF739B"/>
<path id="_334" fill-rule="evenodd" clip-rule="evenodd" d="M14.1802 3.5293L14.201 3.60402L-4.10638 8.70292L-4.1272 8.62819L14.1802 3.5293Z" fill="#FF719C"/>
<path id="_335" fill-rule="evenodd" clip-rule="evenodd" d="M14.1941 3.57812L14.2149 3.65306L-4.09247 8.75175L-4.11328 8.67702L14.1941 3.57812Z" fill="#FF709C"/>
<path id="_336" fill-rule="evenodd" clip-rule="evenodd" d="M14.208 3.62891L14.2288 3.70363L-4.07879 8.80253L-4.09961 8.7276L14.208 3.62891Z" fill="#FF6E9D"/>
<path id="_337" fill-rule="evenodd" clip-rule="evenodd" d="M14.2219 3.67773L14.2427 3.75246L-4.06488 8.85136L-4.08569 8.77642L14.2219 3.67773Z" fill="#FF6C9E"/>
<path id="_338" fill-rule="evenodd" clip-rule="evenodd" d="M14.2356 3.72852L14.2564 3.80324L-4.05096 8.90214L-4.07178 8.82741L14.2356 3.72852Z" fill="#FF6A9F"/>
<path id="_339" fill-rule="evenodd" clip-rule="evenodd" d="M14.2498 3.77734L14.2706 3.85228L-4.03705 8.95097L-4.05786 8.87624L14.2498 3.77734Z" fill="#FF69A0"/>
<path id="_340" fill-rule="evenodd" clip-rule="evenodd" d="M14.2637 3.82812L14.2845 3.90285L-4.02313 9.00175L-4.04395 8.92702L14.2637 3.82812Z" fill="#FF67A0"/>
<path id="_341" fill-rule="evenodd" clip-rule="evenodd" d="M14.2774 3.87695L14.2982 3.95168L-4.00921 9.05058L-4.03003 8.97564L14.2774 3.87695Z" fill="#FF65A1"/>
<path id="_342" fill-rule="evenodd" clip-rule="evenodd" d="M14.2913 3.92773L14.3121 4.00246L-3.9953 9.10136L-4.01611 9.02663L14.2913 3.92773Z" fill="#FF64A2"/>
<path id="_343" fill-rule="evenodd" clip-rule="evenodd" d="M14.3052 3.97852L14.326 4.05324L-3.98163 9.15214L-4.00244 9.0772L14.3052 3.97852Z" fill="#FF62A3"/>
<path id="_344" fill-rule="evenodd" clip-rule="evenodd" d="M14.3191 4.02734L14.3401 4.10228L-3.96747 9.20097L-3.98828 9.12624L14.3191 4.02734Z" fill="#FF61A3"/>
<path id="_345" fill-rule="evenodd" clip-rule="evenodd" d="M14.333 4.07617L14.3539 4.1509L-3.95355 9.2498L-3.97437 9.17486L14.333 4.07617Z" fill="#FF5FA4"/>
<path id="_346" fill-rule="evenodd" clip-rule="evenodd" d="M14.3469 4.12695L14.3677 4.20189L-3.93988 9.30058L-3.96069 9.22585L14.3469 4.12695Z" fill="#FF5DA5"/>
<path id="_347" fill-rule="evenodd" clip-rule="evenodd" d="M14.3608 4.17578L14.3816 4.25051L-3.92596 9.34941L-3.94678 9.27447L14.3608 4.17578Z" fill="#FF5CA6"/>
<path id="_348" fill-rule="evenodd" clip-rule="evenodd" d="M14.3745 4.22656L14.3954 4.3015L-3.91205 9.40019L-3.93286 9.32546L14.3745 4.22656Z" fill="#FF5AA6"/>
<path id="_349" fill-rule="evenodd" clip-rule="evenodd" d="M14.3884 4.27734L14.4092 4.35207L-3.89817 9.45097L-3.91919 9.37624L14.3884 4.27734Z" fill="#FF59A7"/>
<path id="_350" fill-rule="evenodd" clip-rule="evenodd" d="M14.4023 4.32617L14.4232 4.40111L-3.88446 9.4998L-3.90527 9.42507L14.4023 4.32617Z" fill="#FF57A8"/>
<path id="_351" fill-rule="evenodd" clip-rule="evenodd" d="M14.4163 4.37695L14.4373 4.45168L-3.8703 9.55058L-3.89111 9.47564L14.4163 4.37695Z" fill="#FF56A9"/>
<path id="_352" fill-rule="evenodd" clip-rule="evenodd" d="M14.4302 4.42578L14.451 4.50051L-3.85638 9.5994L-3.8772 9.52447L14.4302 4.42578Z" fill="#FF54A9"/>
<path id="_353" fill-rule="evenodd" clip-rule="evenodd" d="M14.4441 4.47656L14.4649 4.55129L-3.84271 9.65019L-3.86353 9.57546L14.4441 4.47656Z" fill="#FF53AA"/>
<path id="_354" fill-rule="evenodd" clip-rule="evenodd" d="M14.458 4.52539L14.4788 4.60033L-3.82879 9.69901L-3.84961 9.62429L14.458 4.52539Z" fill="#FF51AB"/>
<path id="_355" fill-rule="evenodd" clip-rule="evenodd" d="M14.4717 4.57617L14.4925 4.65111L-3.81488 9.7498L-3.83569 9.67507L14.4717 4.57617Z" fill="#FF50AC"/>
<path id="_356" fill-rule="evenodd" clip-rule="evenodd" d="M14.4858 4.625L14.5066 4.69973L-3.80075 9.79862L-3.82178 9.72369L14.4858 4.625Z" fill="#FF4FAC"/>
<path id="_357" fill-rule="evenodd" clip-rule="evenodd" d="M14.4998 4.67578L14.5206 4.75051L-3.78705 9.8494L-3.80786 9.77468L14.4998 4.67578Z" fill="#FF4DAD"/>
<path id="_358" fill-rule="evenodd" clip-rule="evenodd" d="M14.5135 4.72461L14.5345 4.79934L-3.77313 9.89823L-3.79395 9.8233L14.5135 4.72461Z" fill="#FF4CAE"/>
<path id="_359" fill-rule="evenodd" clip-rule="evenodd" d="M14.5274 4.77539L14.5482 4.85033L-3.75921 9.94901L-3.78003 9.87429L14.5274 4.77539Z" fill="#FF4BAE"/>
<path id="_360" fill-rule="evenodd" clip-rule="evenodd" d="M14.5413 4.82422L14.5621 4.89895L-3.74554 9.99784L-3.76636 9.92291L14.5413 4.82422Z" fill="#FF49AF"/>
<path id="_361" fill-rule="evenodd" clip-rule="evenodd" d="M14.5552 4.875L14.576 4.94993L-3.73163 10.0486L-3.75244 9.9739L14.5552 4.875Z" fill="#FF48B0"/>
<path id="_362" fill-rule="evenodd" clip-rule="evenodd" d="M14.5691 4.92578L14.5899 5.00051L-3.71747 10.0994L-3.73828 10.0245L14.5691 4.92578Z" fill="#FF47B1"/>
<path id="_363" fill-rule="evenodd" clip-rule="evenodd" d="M14.583 4.97461L14.6038 5.04954L-3.70379 10.1482L-3.72461 10.0735L14.583 4.97461Z" fill="#FF46B1"/>
<path id="_364" fill-rule="evenodd" clip-rule="evenodd" d="M14.5969 5.02539L14.6177 5.10012L-3.68988 10.199L-3.71069 10.1243L14.5969 5.02539Z" fill="#FF45B2"/>
<path id="_365" fill-rule="evenodd" clip-rule="evenodd" d="M14.6106 5.07422L14.6316 5.14915L-3.67596 10.2478L-3.69678 10.1731L14.6106 5.07422Z" fill="#FF44B3"/>
<path id="_366" fill-rule="evenodd" clip-rule="evenodd" d="M14.6245 5.125L14.6454 5.19973L-3.66205 10.2986L-3.68286 10.2239L14.6245 5.125Z" fill="#FF42B3"/>
<path id="_367" fill-rule="evenodd" clip-rule="evenodd" d="M14.6384 5.17383L14.6592 5.24855L-3.64837 10.3475L-3.66919 10.2725L14.6384 5.17383Z" fill="#FF41B4"/>
<path id="_368" fill-rule="evenodd" clip-rule="evenodd" d="M14.6523 5.22461L14.6732 5.29934L-3.63446 10.3982L-3.65527 10.3235L14.6523 5.22461Z" fill="#FF40B5"/>
<path id="_369" fill-rule="evenodd" clip-rule="evenodd" d="M14.6663 5.27344L14.6871 5.34816L-3.6203 10.4471L-3.64111 10.3721L14.6663 5.27344Z" fill="#FF3FB5"/>
<path id="_370" fill-rule="evenodd" clip-rule="evenodd" d="M14.6802 5.32422L14.701 5.39915L-3.60663 10.4978L-3.62744 10.4231L14.6802 5.32422Z" fill="#FF3EB6"/>
<path id="_371" fill-rule="evenodd" clip-rule="evenodd" d="M14.6941 5.37305L14.7149 5.44777L-3.59271 10.5467L-3.61353 10.4717L14.6941 5.37305Z" fill="#FF3EB6"/>
<path id="_372" fill-rule="evenodd" clip-rule="evenodd" d="M14.7078 5.42383L14.7288 5.49855L-3.57879 10.5975L-3.59961 10.5227L14.7078 5.42383Z" fill="#FF3DB7"/>
<path id="_373" fill-rule="evenodd" clip-rule="evenodd" d="M14.7217 5.47266L14.7425 5.54738L-3.56491 10.6463L-3.58594 10.5716L14.7217 5.47266Z" fill="#FF3CB8"/>
<path id="_374" fill-rule="evenodd" clip-rule="evenodd" d="M14.7358 5.52344L14.7566 5.59837L-3.55096 10.6971L-3.57178 10.6223L14.7358 5.52344Z" fill="#FF3BB8"/>
<path id="_375" fill-rule="evenodd" clip-rule="evenodd" d="M14.7498 5.57227L14.7706 5.64699L-3.53705 10.7459L-3.55786 10.671L14.7498 5.57227Z" fill="#FF3AB9"/>
<path id="_376" fill-rule="evenodd" clip-rule="evenodd" d="M14.7635 5.62305L14.7843 5.69798L-3.52313 10.7967L-3.54395 10.7219L14.7635 5.62305Z" fill="#FF3AB9"/>
<path id="_377" fill-rule="evenodd" clip-rule="evenodd" d="M14.7773 5.67188L14.7982 5.7466L-3.50946 10.8455L-3.53027 10.7708L14.7773 5.67188Z" fill="#FF39BA"/>
<path id="_378" fill-rule="evenodd" clip-rule="evenodd" d="M14.7913 5.72266L14.8121 5.79759L-3.49554 10.8963L-3.51636 10.8216L14.7913 5.72266Z" fill="#FF38BB"/>
<path id="_379" fill-rule="evenodd" clip-rule="evenodd" d="M14.8052 5.77148L14.826 5.84621L-3.48163 10.9451L-3.50244 10.8704L14.8052 5.77148Z" fill="#FF38BB"/>
<path id="_380" fill-rule="evenodd" clip-rule="evenodd" d="M14.8191 5.82227L14.8399 5.89699L-3.4675 10.9957L-3.48853 10.921L14.8191 5.82227Z" fill="#FF37BC"/>
<path id="_381" fill-rule="evenodd" clip-rule="evenodd" d="M14.833 5.87305L14.8538 5.94777L-3.45379 11.0467L-3.47461 10.9719L14.833 5.87305Z" fill="#FF37BC"/>
<path id="_382" fill-rule="evenodd" clip-rule="evenodd" d="M14.8469 5.92188L14.8677 5.9966L-3.43988 11.0955L-3.46069 11.0206L14.8469 5.92188Z" fill="#FF36BD"/>
<path id="_383" fill-rule="evenodd" clip-rule="evenodd" d="M14.8606 5.97266L14.8814 6.04738L-3.42596 11.1463L-3.44678 11.0716L14.8606 5.97266Z" fill="#FF36BD"/>
<path id="_384" fill-rule="evenodd" clip-rule="evenodd" d="M14.8745 6.02148L14.8953 6.09621L-3.41229 11.1951L-3.43311 11.1202L14.8745 6.02148Z" fill="#FF35BE"/>
<path id="_385" fill-rule="evenodd" clip-rule="evenodd" d="M14.8884 6.07227L14.9092 6.1472L-3.39837 11.2459L-3.41919 11.1712L14.8884 6.07227Z" fill="#FF35BE"/>
<path id="_386" fill-rule="evenodd" clip-rule="evenodd" d="M14.9023 6.12109L14.9232 6.19582L-3.38446 11.2947L-3.40527 11.2198L14.9023 6.12109Z" fill="#FF35BF"/>
<path id="_387" fill-rule="evenodd" clip-rule="evenodd" d="M14.9163 6.17188L14.9371 6.24681L-3.37033 11.3455L-3.39136 11.2708L14.9163 6.17188Z" fill="#FF34BF"/>
<path id="_388" fill-rule="evenodd" clip-rule="evenodd" d="M14.9302 6.2207L14.951 6.29543L-3.35663 11.3943L-3.37744 11.3196L14.9302 6.2207Z" fill="#FF34C0"/>
<path id="_389" fill-rule="evenodd" clip-rule="evenodd" d="M14.9441 6.27148L14.9649 6.34642L-3.34271 11.4451L-3.36353 11.3704L14.9441 6.27148Z" fill="#FF34C0"/>
<path id="_390" fill-rule="evenodd" clip-rule="evenodd" d="M14.9578 6.32031L14.9788 6.39504L-3.32879 11.4939L-3.34961 11.4192L14.9578 6.32031Z" fill="#FF34C1"/>
<path id="_391" fill-rule="evenodd" clip-rule="evenodd" d="M14.9717 6.37109L14.9925 6.44582L-3.31512 11.5445L-3.33594 11.4698L14.9717 6.37109Z" fill="#FF34C1"/>
<path id="_392" fill-rule="evenodd" clip-rule="evenodd" d="M14.9858 6.41992L15.0066 6.49465L-3.30096 11.5935L-3.32178 11.5188L14.9858 6.41992Z" fill="#FF34C1"/>
<path id="_393" fill-rule="evenodd" clip-rule="evenodd" d="M14.9998 6.4707L15.0206 6.54564L-3.28705 11.6445L-3.30786 11.5696L14.9998 6.4707Z" fill="#FF34C2"/>
<path id="_394" fill-rule="evenodd" clip-rule="evenodd" d="M15.0135 6.51953L15.0343 6.59426L-3.27313 11.6932L-3.29395 11.6184L15.0135 6.51953Z" fill="#FF34C2"/>
<path id="_395" fill-rule="evenodd" clip-rule="evenodd" d="M15.0273 6.57031L15.0482 6.64504L-3.25946 11.7437L-3.28027 11.669L15.0273 6.57031Z" fill="#FF34C3"/>
<path id="_396" fill-rule="evenodd" clip-rule="evenodd" d="M15.0413 6.61914L15.0621 6.69387L-3.24554 11.7928L-3.26636 11.718L15.0413 6.61914Z" fill="#FE34C3"/>
<path id="_397" fill-rule="evenodd" clip-rule="evenodd" d="M15.055 6.66992L15.076 6.74465L-3.23163 11.8435L-3.25244 11.7686L15.055 6.66992Z" fill="#FE34C4"/>
<path id="_398" fill-rule="evenodd" clip-rule="evenodd" d="M15.0691 6.71875L15.0899 6.79348L-3.21771 11.8924L-3.23853 11.8176L15.0691 6.71875Z" fill="#FE34C4"/>
<path id="_399" fill-rule="evenodd" clip-rule="evenodd" d="M15.083 6.76953L15.1038 6.84426L-3.20379 11.9432L-3.22461 11.8682L15.083 6.76953Z" fill="#FD34C5"/>
<path id="_400" fill-rule="evenodd" clip-rule="evenodd" d="M15.0969 6.81836L15.1177 6.89329L-3.18988 11.992L-3.21069 11.9173L15.0969 6.81836Z" fill="#FD34C5"/>
<path id="_401" fill-rule="evenodd" clip-rule="evenodd" d="M15.1106 6.86914L15.1314 6.94387L-3.17596 12.0428L-3.19678 11.9678L15.1106 6.86914Z" fill="#FC34C5"/>
<path id="_402" fill-rule="evenodd" clip-rule="evenodd" d="M15.1245 6.91992L15.1453 6.99486L-3.16229 12.0935L-3.18311 12.0188L15.1245 6.91992Z" fill="#FC35C6"/>
<path id="_403" fill-rule="evenodd" clip-rule="evenodd" d="M15.1384 6.96875L15.1592 7.04348L-3.14837 12.1424L-3.16919 12.0676L15.1384 6.96875Z" fill="#FB35C6"/>
<path id="_404" fill-rule="evenodd" clip-rule="evenodd" d="M15.1521 7.01953L15.1732 7.09447L-3.13446 12.1932L-3.15527 12.1184L15.1521 7.01953Z" fill="#FA35C7"/>
<path id="_405" fill-rule="evenodd" clip-rule="evenodd" d="M15.1663 7.06836L15.1871 7.14309L-3.12033 12.242L-3.14136 12.1673L15.1663 7.06836Z" fill="#FA35C7"/>
<path id="_406" fill-rule="evenodd" clip-rule="evenodd" d="M15.1802 7.11914L15.201 7.19387L-3.10663 12.2926L-3.12744 12.2178L15.1802 7.11914Z" fill="#F935C8"/>
<path id="_407" fill-rule="evenodd" clip-rule="evenodd" d="M15.1941 7.16797L15.2149 7.2427L-3.09271 12.3416L-3.11353 12.2669L15.1941 7.16797Z" fill="#F835C8"/>
<path id="_408" fill-rule="evenodd" clip-rule="evenodd" d="M15.2078 7.21875L15.2286 7.29348L-3.07879 12.3924L-3.09961 12.3174L15.2078 7.21875Z" fill="#F735C8"/>
<path id="_409" fill-rule="evenodd" clip-rule="evenodd" d="M15.2217 7.26758L15.2425 7.3423L-3.06512 12.4412L-3.08594 12.3665L15.2217 7.26758Z" fill="#F635C9"/>
<path id="_410" fill-rule="evenodd" clip-rule="evenodd" d="M15.2356 7.31836L15.2564 7.39309L-3.05121 12.492L-3.07202 12.417L15.2356 7.31836Z" fill="#F535C9"/>
<path id="_411" fill-rule="evenodd" clip-rule="evenodd" d="M15.2495 7.36719L15.2706 7.44212L-3.03705 12.5408L-3.05786 12.4661L15.2495 7.36719Z" fill="#F436CA"/>
<path id="_412" fill-rule="evenodd" clip-rule="evenodd" d="M15.2634 7.41797L15.2842 7.4927L-3.02317 12.5916L-3.04419 12.5167L15.2634 7.41797Z" fill="#F336CA"/>
<path id="_413" fill-rule="evenodd" clip-rule="evenodd" d="M15.2773 7.4668L15.2982 7.54173L-3.00946 12.6404L-3.03027 12.5657L15.2773 7.4668Z" fill="#F236CA"/>
<path id="_414" fill-rule="evenodd" clip-rule="evenodd" d="M15.2913 7.51758L15.3121 7.5923L-2.99554 12.6912L-3.01636 12.6165L15.2913 7.51758Z" fill="#F136CB"/>
<path id="_415" fill-rule="evenodd" clip-rule="evenodd" d="M15.305 7.56641L15.3258 7.64134L-2.98163 12.74L-3.00244 12.6653L15.305 7.56641Z" fill="#F036CB"/>
<path id="_416" fill-rule="evenodd" clip-rule="evenodd" d="M15.3188 7.61719L15.3397 7.69191L-2.96795 12.7908L-2.98877 12.7159L15.3188 7.61719Z" fill="#EF36CC"/>
<path id="_417" fill-rule="evenodd" clip-rule="evenodd" d="M15.333 7.66797L15.3538 7.7427L-2.95379 12.8416L-2.97461 12.7667L15.333 7.66797Z" fill="#EE37CC"/>
<path id="_418" fill-rule="evenodd" clip-rule="evenodd" d="M15.3467 7.7168L15.3675 7.79152L-2.93988 12.8904L-2.96069 12.8157L15.3467 7.7168Z" fill="#EC37CC"/>
<path id="_419" fill-rule="evenodd" clip-rule="evenodd" d="M15.3606 7.76562L15.3814 7.84056L-2.92596 12.9392L-2.94678 12.8645L15.3606 7.76562Z" fill="#EB37CD"/>
<path id="_420" fill-rule="evenodd" clip-rule="evenodd" d="M15.3745 7.81641L15.3953 7.89113L-2.91229 12.99L-2.93311 12.9153L15.3745 7.81641Z" fill="#EA37CD"/>
<path id="_421" fill-rule="evenodd" clip-rule="evenodd" d="M15.3884 7.86719L15.4092 7.94191L-2.89837 13.0408L-2.91919 12.9659L15.3884 7.86719Z" fill="#E837CE"/>
<path id="_422" fill-rule="evenodd" clip-rule="evenodd" d="M15.4021 7.91602L15.4229 7.99074L-2.88446 13.0896L-2.90527 13.0149L15.4021 7.91602Z" fill="#E738CE"/>
<path id="_423" fill-rule="evenodd" clip-rule="evenodd" d="M15.4163 7.9668L15.4371 8.04152L-2.87054 13.1404L-2.89136 13.0655L15.4163 7.9668Z" fill="#E638CE"/>
<path id="_424" fill-rule="evenodd" clip-rule="evenodd" d="M15.4302 8.01562L15.451 8.09056L-2.85663 13.1892L-2.87744 13.1145L15.4302 8.01562Z" fill="#E438CF"/>
<path id="_425" fill-rule="evenodd" clip-rule="evenodd" d="M15.4439 8.06641L15.4647 8.14113L-2.84271 13.24L-2.86353 13.1651L15.4439 8.06641Z" fill="#E338CF"/>
<path id="_426" fill-rule="evenodd" clip-rule="evenodd" d="M15.4578 8.11523L15.4786 8.19017L-2.82879 13.2889L-2.84961 13.2141L15.4578 8.11523Z" fill="#E138D0"/>
<path id="_427" fill-rule="evenodd" clip-rule="evenodd" d="M15.4717 8.16602L15.4925 8.24074L-2.81512 13.3396L-2.83594 13.2647L15.4717 8.16602Z" fill="#E039D0"/>
<path id="_428" fill-rule="evenodd" clip-rule="evenodd" d="M15.4854 8.21484L15.5064 8.28978L-2.80121 13.3885L-2.82202 13.3137L15.4854 8.21484Z" fill="#DE39D0"/>
<path id="_429" fill-rule="evenodd" clip-rule="evenodd" d="M15.4995 8.26562L15.5204 8.34035L-2.78705 13.4392L-2.80786 13.3645L15.4995 8.26562Z" fill="#DD39D1"/>
<path id="_430" fill-rule="evenodd" clip-rule="evenodd" d="M15.5134 8.31445L15.5342 8.38939L-2.77337 13.4881L-2.79419 13.4134L15.5134 8.31445Z" fill="#DB39D1"/>
<path id="_431" fill-rule="evenodd" clip-rule="evenodd" d="M15.5273 8.36523L15.5482 8.43996L-2.75946 13.5389L-2.78027 13.4639L15.5273 8.36523Z" fill="#DA3AD1"/>
<path id="_432" fill-rule="evenodd" clip-rule="evenodd" d="M15.541 8.41406L15.5619 8.48879L-2.74554 13.5877L-2.76636 13.5128L15.541 8.41406Z" fill="#D83AD2"/>
<path id="_433" fill-rule="evenodd" clip-rule="evenodd" d="M15.5549 8.46484L15.5757 8.53957L-2.73166 13.6385L-2.75269 13.5637L15.5549 8.46484Z" fill="#D63AD2"/>
<path id="_434" fill-rule="evenodd" clip-rule="evenodd" d="M15.5688 8.51367L15.5897 8.58861L-2.71795 13.6873L-2.73877 13.6126L15.5688 8.51367Z" fill="#D53AD2"/>
<path id="_435" fill-rule="evenodd" clip-rule="evenodd" d="M15.5828 8.56445L15.6038 8.63939L-2.70379 13.7381L-2.72461 13.6634L15.5828 8.56445Z" fill="#D33BD3"/>
<path id="_436" fill-rule="evenodd" clip-rule="evenodd" d="M15.5967 8.61523L15.6175 8.68996L-2.68988 13.7889L-2.71069 13.7139L15.5967 8.61523Z" fill="#D13BD3"/>
<path id="_437" fill-rule="evenodd" clip-rule="evenodd" d="M15.6106 8.66406L15.6314 8.73879L-2.67621 13.8377L-2.69702 13.763L15.6106 8.66406Z" fill="#D03BD3"/>
<path id="_438" fill-rule="evenodd" clip-rule="evenodd" d="M15.6245 8.71484L15.6453 8.78957L-2.66229 13.8885L-2.68311 13.8135L15.6245 8.71484Z" fill="#CE3BD4"/>
<path id="_439" fill-rule="evenodd" clip-rule="evenodd" d="M15.6382 8.76367L15.659 8.83861L-2.64837 13.9373L-2.66919 13.8626L15.6382 8.76367Z" fill="#CC3CD4"/>
<path id="_440" fill-rule="evenodd" clip-rule="evenodd" d="M15.6521 8.81445L15.6729 8.88918L-2.63449 13.9881L-2.65552 13.9131L15.6521 8.81445Z" fill="#CA3CD4"/>
<path id="_441" fill-rule="evenodd" clip-rule="evenodd" d="M15.6663 8.86328L15.6871 8.93822L-2.62054 14.0369L-2.64136 13.9622L15.6663 8.86328Z" fill="#C93CD5"/>
<path id="_442" fill-rule="evenodd" clip-rule="evenodd" d="M15.68 8.91406L15.7008 8.98879L-2.60663 14.0877L-2.62744 14.0128L15.68 8.91406Z" fill="#C73DD5"/>
<path id="_443" fill-rule="evenodd" clip-rule="evenodd" d="M15.6939 8.96289L15.7147 9.03783L-2.59271 14.1365L-2.61353 14.0618L15.6939 8.96289Z" fill="#C53DD5"/>
<path id="_444" fill-rule="evenodd" clip-rule="evenodd" d="M15.7078 9.01367L15.7286 9.0884L-2.57904 14.1873L-2.59985 14.1126L15.7078 9.01367Z" fill="#C33DD6"/>
<path id="_445" fill-rule="evenodd" clip-rule="evenodd" d="M15.7217 9.0625L15.7425 9.13743L-2.56512 14.2361L-2.58594 14.1614L15.7217 9.0625Z" fill="#C13DD6"/>
<path id="_446" fill-rule="evenodd" clip-rule="evenodd" d="M15.7354 9.11328L15.7562 9.18801L-2.55121 14.2869L-2.57202 14.2122L15.7354 9.11328Z" fill="#C03ED6"/>
<path id="_447" fill-rule="evenodd" clip-rule="evenodd" d="M15.7495 9.16211L15.7703 9.23684L-2.53729 14.3357L-2.55811 14.2608L15.7495 9.16211Z" fill="#BE3ED7"/>
<path id="_448" fill-rule="evenodd" clip-rule="evenodd" d="M15.7634 9.21289L15.7842 9.28762L-2.52337 14.3865L-2.54419 14.3118L15.7634 9.21289Z" fill="#BC3ED7"/>
<path id="_449" fill-rule="evenodd" clip-rule="evenodd" d="M15.7771 9.26172L15.7979 9.33665L-2.50946 14.4353L-2.53027 14.3606L15.7771 9.26172Z" fill="#BA3ED7"/>
<path id="_450" fill-rule="evenodd" clip-rule="evenodd" d="M15.791 9.3125L15.8119 9.38743L-2.49554 14.4861L-2.51636 14.4114L15.791 9.3125Z" fill="#B83FD8"/>
<path id="_451" fill-rule="evenodd" clip-rule="evenodd" d="M15.8049 9.36133L15.8257 9.43605L-2.48187 14.535L-2.50269 14.46L15.8049 9.36133Z" fill="#B73FD8"/>
<path id="_452" fill-rule="evenodd" clip-rule="evenodd" d="M15.8186 9.41211L15.8397 9.48684L-2.46795 14.5857L-2.48877 14.511L15.8186 9.41211Z" fill="#B53FD8"/>
<path id="_453" fill-rule="evenodd" clip-rule="evenodd" d="M15.8328 9.46094L15.8536 9.53566L-2.45379 14.6346L-2.47461 14.5596L15.8328 9.46094Z" fill="#B340D8"/>
<path id="_454" fill-rule="evenodd" clip-rule="evenodd" d="M15.8467 9.51172L15.8675 9.58665L-2.44012 14.6853L-2.46094 14.6106L15.8467 9.51172Z" fill="#B140D9"/>
<path id="_455" fill-rule="evenodd" clip-rule="evenodd" d="M15.8606 9.5625L15.8814 9.63723L-2.42621 14.7361L-2.44702 14.6612L15.8606 9.5625Z" fill="#AF40D9"/>
<path id="_456" fill-rule="evenodd" clip-rule="evenodd" d="M15.8743 9.61133L15.8951 9.68626L-2.41229 14.785L-2.43311 14.7102L15.8743 9.61133Z" fill="#AE40D9"/>
<path id="_457" fill-rule="evenodd" clip-rule="evenodd" d="M15.8882 9.66211L15.909 9.73684L-2.39841 14.8357L-2.41943 14.761L15.8882 9.66211Z" fill="#AC41D9"/>
<path id="_458" fill-rule="evenodd" clip-rule="evenodd" d="M15.9021 9.71094L15.9229 9.78587L-2.3847 14.8846L-2.40552 14.8098L15.9021 9.71094Z" fill="#AA41DA"/>
<path id="_459" fill-rule="evenodd" clip-rule="evenodd" d="M15.916 9.76172L15.9371 9.83645L-2.37054 14.9353L-2.39136 14.8606L15.916 9.76172Z" fill="#A841DA"/>
<path id="_460" fill-rule="evenodd" clip-rule="evenodd" d="M15.93 9.81055L15.9508 9.88527L-2.35663 14.984L-2.37744 14.9092L15.93 9.81055Z" fill="#A641DA"/>
<path id="_461" fill-rule="evenodd" clip-rule="evenodd" d="M15.9438 9.86133L15.9647 9.93605L-2.34295 15.035L-2.36377 14.9602L15.9438 9.86133Z" fill="#A542DA"/>
<path id="_462" fill-rule="evenodd" clip-rule="evenodd" d="M15.9578 9.91016L15.9786 9.98488L-2.32904 15.0838L-2.34985 15.0088L15.9578 9.91016Z" fill="#A342DB"/>
<path id="_463" fill-rule="evenodd" clip-rule="evenodd" d="M15.9715 9.96094L15.9923 10.0357L-2.31512 15.1346L-2.33594 15.0598L15.9715 9.96094Z" fill="#A142DB"/>
<path id="_464" fill-rule="evenodd" clip-rule="evenodd" d="M15.9856 10.0098L16.0064 10.0845L-2.301 15.1832L-2.32202 15.1085L15.9856 10.0098Z" fill="#9F43DB"/>
<path id="_465" fill-rule="evenodd" clip-rule="evenodd" d="M15.9995 10.0605L16.0203 10.1355L-2.28729 15.2342L-2.30811 15.1594L15.9995 10.0605Z" fill="#9E43DB"/>
<path id="_466" fill-rule="evenodd" clip-rule="evenodd" d="M16.0132 10.1094L16.0342 10.1841L-2.27337 15.283L-2.29419 15.2081L16.0132 10.1094Z" fill="#9C43DC"/>
<path id="_467" fill-rule="evenodd" clip-rule="evenodd" d="M16.0271 10.1602L16.0479 10.2349L-2.25946 15.3338L-2.28027 15.2591L16.0271 10.1602Z" fill="#9A43DC"/>
<path id="_468" fill-rule="evenodd" clip-rule="evenodd" d="M16.041 10.209L16.0618 10.2837L-2.24579 15.3826L-2.2666 15.3079L16.041 10.209Z" fill="#9944DC"/>
<path id="_469" fill-rule="evenodd" clip-rule="evenodd" d="M16.0549 10.2598L16.0757 10.3347L-2.23187 15.4334L-2.25269 15.3587L16.0549 10.2598Z" fill="#9744DC"/>
<path id="_470" fill-rule="evenodd" clip-rule="evenodd" d="M16.0686 10.3086L16.0894 10.3833L-2.21795 15.4822L-2.23877 15.4073L16.0686 10.3086Z" fill="#9544DD"/>
<path id="_471" fill-rule="evenodd" clip-rule="evenodd" d="M16.0828 10.3594L16.1036 10.4341L-2.20404 15.5328L-2.22485 15.4581L16.0828 10.3594Z" fill="#9444DD"/>
<path id="_472" fill-rule="evenodd" clip-rule="evenodd" d="M16.0967 10.4082L16.1175 10.4829L-2.19012 15.5818L-2.21094 15.5071L16.0967 10.4082Z" fill="#9245DD"/>
<path id="_473" fill-rule="evenodd" clip-rule="evenodd" d="M16.1106 10.459L16.1314 10.5339L-2.17621 15.6326L-2.19702 15.5579L16.1106 10.459Z" fill="#9045DD"/>
<path id="_474" fill-rule="evenodd" clip-rule="evenodd" d="M16.1243 10.5078L16.1451 10.5825L-2.16229 15.6814L-2.18311 15.6067L16.1243 10.5078Z" fill="#8F45DD"/>
<path id="_475" fill-rule="evenodd" clip-rule="evenodd" d="M16.1382 10.5586L16.159 10.6333L-2.14862 15.732L-2.16943 15.6573L16.1382 10.5586Z" fill="#8D45DE"/>
<path id="_476" fill-rule="evenodd" clip-rule="evenodd" d="M16.1521 10.6094L16.1729 10.6841L-2.1347 15.783L-2.15552 15.7083L16.1521 10.6094Z" fill="#8C45DE"/>
<path id="_477" fill-rule="evenodd" clip-rule="evenodd" d="M16.1658 10.6582L16.1866 10.7329L-2.12079 15.8318L-2.1416 15.7569L16.1658 10.6582Z" fill="#8A46DE"/>
<path id="_478" fill-rule="evenodd" clip-rule="evenodd" d="M16.1799 10.709L16.2007 10.7837L-2.10687 15.8826L-2.12769 15.8079L16.1799 10.709Z" fill="#8946DE"/>
<path id="_479" fill-rule="evenodd" clip-rule="evenodd" d="M16.1938 10.7578L16.2147 10.8325L-2.09295 15.9314L-2.11377 15.8565L16.1938 10.7578Z" fill="#8746DE"/>
<path id="_480" fill-rule="evenodd" clip-rule="evenodd" d="M16.2078 10.8086L16.2286 10.8835L-2.07904 15.9822L-2.09985 15.9075L16.2078 10.8086Z" fill="#8646DE"/>
<path id="_481" fill-rule="evenodd" clip-rule="evenodd" d="M16.2214 10.8574L16.2422 10.9321L-2.06516 16.031L-2.08618 15.9561L16.2214 10.8574Z" fill="#8547DF"/>
<path id="_482" fill-rule="evenodd" clip-rule="evenodd" d="M16.2353 10.9082L16.2562 10.9829L-2.05145 16.0818L-2.07227 16.0071L16.2353 10.9082Z" fill="#8347DF"/>
<path id="_483" fill-rule="evenodd" clip-rule="evenodd" d="M16.2495 10.957L16.2703 11.0318L-2.03729 16.1307L-2.05811 16.0559L16.2495 10.957Z" fill="#8247DF"/>
<path id="_484" fill-rule="evenodd" clip-rule="evenodd" d="M16.2632 11.0078L16.2842 11.0827L-2.02337 16.1814L-2.04419 16.1067L16.2632 11.0078Z" fill="#8147DF"/>
<path id="_485" fill-rule="evenodd" clip-rule="evenodd" d="M16.2771 11.0566L16.2979 11.1314L-2.0097 16.2303L-2.03052 16.1555L16.2771 11.0566Z" fill="#8047DF"/>
<path id="_486" fill-rule="evenodd" clip-rule="evenodd" d="M16.291 11.1074L16.3118 11.1821L-1.99579 16.2808L-2.0166 16.2061L16.291 11.1074Z" fill="#7E48DF"/>
<path id="_487" fill-rule="evenodd" clip-rule="evenodd" d="M16.3049 11.1562L16.3257 11.231L-1.98187 16.3299L-2.00269 16.2551L16.3049 11.1562Z" fill="#7D48DF"/>
<path id="_488" fill-rule="evenodd" clip-rule="evenodd" d="M16.3186 11.207L16.3394 11.282L-1.96795 16.3807L-1.98877 16.3059L16.3186 11.207Z" fill="#7C48E0"/>
<path id="_489" fill-rule="evenodd" clip-rule="evenodd" d="M16.3328 11.2559L16.3536 11.3306L-1.95404 16.4295L-1.97485 16.3548L16.3328 11.2559Z" fill="#7B48E0"/>
<path id="_490" fill-rule="evenodd" clip-rule="evenodd" d="M16.3467 11.3066L16.3675 11.3814L-1.94012 16.4803L-1.96094 16.4053L16.3467 11.3066Z" fill="#7A48E0"/>
<path id="_491" fill-rule="evenodd" clip-rule="evenodd" d="M16.3604 11.3574L16.3814 11.4321L-1.92621 16.531L-1.94702 16.4563L16.3604 11.3574Z" fill="#7948E0"/>
<path id="_492" fill-rule="evenodd" clip-rule="evenodd" d="M16.3743 11.4062L16.3951 11.481L-1.91253 16.5799L-1.93335 16.5049L16.3743 11.4062Z" fill="#7849E0"/>
<path id="_493" fill-rule="evenodd" clip-rule="evenodd" d="M16.3882 11.4551L16.409 11.5298L-1.89862 16.6287L-1.91943 16.554L16.3882 11.4551Z" fill="#7749E0"/>
<path id="_494" fill-rule="evenodd" clip-rule="evenodd" d="M16.4021 11.5059L16.4229 11.5806L-1.8847 16.6795L-1.90552 16.6045L16.4021 11.5059Z" fill="#7649E0"/>
<path id="_495" fill-rule="evenodd" clip-rule="evenodd" d="M16.416 11.5566L16.4369 11.6316L-1.87054 16.7303L-1.89136 16.6555L16.416 11.5566Z" fill="#7549E0"/>
<path id="_496" fill-rule="evenodd" clip-rule="evenodd" d="M16.4299 11.6055L16.4507 11.6802L-1.85687 16.7791L-1.87769 16.7042L16.4299 11.6055Z" fill="#7449E0"/>
<path id="_497" fill-rule="evenodd" clip-rule="evenodd" d="M16.4438 11.6562L16.4647 11.7312L-1.84295 16.8299L-1.86377 16.7551L16.4438 11.6562Z" fill="#7349E0"/>
<path id="_498" fill-rule="evenodd" clip-rule="evenodd" d="M16.4578 11.7051L16.4786 11.7798L-1.82904 16.8787L-1.84985 16.804L16.4578 11.7051Z" fill="#7349E1"/>
<path id="_499" fill-rule="evenodd" clip-rule="evenodd" d="M16.4714 11.7559L16.4922 11.8308L-1.81516 16.9295L-1.83618 16.8548L16.4714 11.7559Z" fill="#7249E1"/>
<path id="_500" fill-rule="evenodd" clip-rule="evenodd" d="M16.4853 11.8047L16.5062 11.8794L-1.80145 16.9783L-1.82227 16.9036L16.4853 11.8047Z" fill="#7149E1"/>
<path id="_501" fill-rule="evenodd" clip-rule="evenodd" d="M16.4995 11.8555L16.5203 11.9302L-1.78729 17.0291L-1.80811 16.9542L16.4995 11.8555Z" fill="#714AE1"/>
<path id="_502" fill-rule="evenodd" clip-rule="evenodd" d="M16.5132 11.9043L16.534 11.979L-1.77337 17.0779L-1.79419 17.0032L16.5132 11.9043Z" fill="#704AE1"/>
<path id="_503" fill-rule="evenodd" clip-rule="evenodd" d="M16.5271 11.9551L16.5479 12.0298L-1.7597 17.1287L-1.78052 17.0538L16.5271 11.9551Z" fill="#704AE1"/>
<path id="_504" fill-rule="evenodd" clip-rule="evenodd" d="M16.541 12.0059L16.5618 12.0808L-1.74579 17.1795L-1.7666 17.1048L16.541 12.0059Z" fill="#6F4AE1"/>
<path id="_505" fill-rule="evenodd" clip-rule="evenodd" d="M16.5549 12.0547L16.5757 12.1294L-1.73187 17.2283L-1.75269 17.1534L16.5549 12.0547Z" fill="#6F4AE1"/>
<path id="_506" fill-rule="evenodd" clip-rule="evenodd" d="M16.5686 12.1035L16.5894 12.1782L-1.71799 17.2771L-1.73901 17.2024L16.5686 12.1035Z" fill="#6F4AE1"/>
<path id="_507" fill-rule="evenodd" clip-rule="evenodd" d="M16.5828 12.1543L16.6036 12.229L-1.70404 17.3279L-1.72485 17.253L16.5828 12.1543Z" fill="#6E4AE1"/>
<path id="_508" fill-rule="evenodd" clip-rule="evenodd" d="M16.5967 12.2051L16.6175 12.28L-1.69012 17.3787L-1.71094 17.304L16.5967 12.2051Z" fill="#6E4AE1"/>
<path id="_509" fill-rule="evenodd" clip-rule="evenodd" d="M16.6104 12.2539L16.6312 12.3286L-1.67621 17.4275L-1.69702 17.3528L16.6104 12.2539Z" fill="#6E4AE1"/>
<path id="_510" fill-rule="evenodd" clip-rule="evenodd" d="M16.6243 12.3047L16.6451 12.3796L-1.66253 17.4783L-1.68335 17.4036L16.6243 12.3047Z" fill="#6E4AE1"/>
<path id="_511" fill-rule="evenodd" clip-rule="evenodd" d="M16.6382 12.3535L17.5913 15.7762L-0.716097 20.8751L-1.66943 17.4522L16.6382 12.3535Z" fill="#6E4AE1"/>
</g>
</g>
</g>
</g>
</g>
</g>
</g>
</g>
</g>
<defs>
<clipPath id="clip0_707_19690">
<rect width="62.7148" height="17" fill="white"/>
</clipPath>
</defs>
</svg>
